<svg width="244" height="187" viewBox="0 0 244 187" fill="none" xmlns="http://www.w3.org/2000/svg">
<g clip-path="url(#clip0_22_907)">
<path d="M28.4337 92.3172C28.4337 143.303 69.7655 184.634 120.751 184.634C171.736 184.634 213.068 143.303 213.068 92.3172C213.068 41.3318 171.736 0 120.751 0C69.7655 0 28.4337 41.3318 28.4337 92.3172Z" fill="#D0E3FF"/>
<path d="M135.079 56.2396C129.798 57.9752 124.517 59.7108 118.978 60.4862C113.439 61.2617 107.605 61.0032 102.472 58.8984C97.3023 56.7566 92.908 52.5839 91.5787 47.4141C90.2493 42.2444 92.5018 36.2622 97.3762 33.7881C100.847 32.0156 105.094 32.1264 108.971 32.7911C112.885 33.4558 116.689 34.7113 120.64 35.0436C125.847 35.5237 131.054 34.4528 136.076 33.0126C141.171 31.5725 146.6 29.7631 151.696 31.2771C155.056 32.2741 157.936 34.7113 159.229 37.8131C160.558 40.8781 160.3 44.5338 158.49 47.3403C156.348 50.7006 152.397 52.6208 148.409 53.7655C144.495 54.9103 140.064 54.6149 135.079 56.2396Z" fill="#8AA8D7"/>
<path d="M136.814 155.868C84.341 161.075 54.9103 137.516 53.4332 108.676C51.5499 72.0075 80.5006 62.3326 115.655 69.2379C150.809 76.1433 179.649 45.0878 203.319 65.5822C226.953 86.0397 218.349 147.781 136.814 155.868Z" fill="#8AA8D7"/>
<path d="M156.939 26.6981L158.823 21.0852L161.186 21.6391L156.939 26.6981Z" fill="#5577E7"/>
<path d="M197.153 66.8376L205.757 68.684L205.203 72.0813L197.153 66.8376Z" fill="#5577E7"/>
<path d="M85.6334 35.4867L82.31 38.884L87.4428 39.4009L85.6334 35.4867Z" fill="#FCF539"/>
<path d="M174.849 23.7809L167.98 30.0585L178.505 25.9226L174.849 23.7809Z" fill="#FCF539"/>
<path d="M97.7824 30.9447C97.7085 30.5015 97.2654 30.2061 96.7854 30.28C96.3423 30.3538 96.0468 30.797 96.1207 31.277C96.1945 31.7201 96.6377 32.0156 97.1177 31.9417C97.5978 31.8309 97.8932 31.3878 97.7824 30.9447Z" fill="#FCF539"/>
<path d="M151.031 104.688C150.809 103.654 149.812 103.026 148.815 103.211C147.781 103.432 147.154 104.429 147.338 105.426C147.56 106.46 148.557 107.088 149.554 106.903C150.588 106.682 151.253 105.722 151.031 104.688Z" fill="#E3C0FF"/>
<path d="M83.0889 23.9763C84.6774 20.712 83.319 16.7781 80.0548 15.1895C76.7906 13.601 72.8566 14.9594 71.268 18.2236C69.6795 21.4878 71.0379 25.4218 74.3021 27.0104C77.5664 28.5989 81.5003 27.2405 83.0889 23.9763Z" fill="white"/>
<path d="M173.224 74.4816C173.15 74.1492 172.818 73.9277 172.485 74.0015C172.153 74.0754 171.932 74.4077 172.005 74.7401C172.079 75.0724 172.412 75.294 172.744 75.2201C173.076 75.1463 173.298 74.8139 173.224 74.4816Z" fill="white"/>
<path d="M115.84 58.3814C115.766 58.049 115.433 57.8275 115.101 57.9013C114.769 57.9752 114.547 58.3075 114.621 58.6399C114.695 58.9722 115.027 59.1938 115.36 59.1199C115.692 59.0461 115.913 58.7137 115.84 58.3814Z" fill="white"/>
<path d="M131.349 114.141C109.34 107.753 84.4148 95.0498 69.3117 77.4726C64.2158 71.4905 57.8275 60.5601 66.8746 55.058C70.0872 53.2117 73.8168 52.5839 77.4357 52.3254C79.8728 52.1408 82.31 52.1777 84.7103 52.2885C79.9098 52.2516 74.9616 52.4362 70.3826 53.9871C61.4832 56.9782 61.4463 63.9574 65.6929 71.1581C78.1742 91.0986 109.304 107.051 131.349 114.141Z" fill="white"/>
<path d="M153.874 124.296C139.473 116.689 125.699 107.753 113.181 97.3023C110.079 94.6805 107.051 91.911 104.208 88.9568C101.401 85.9657 98.5948 82.9008 96.8223 79.1712C94.1636 73.1152 99.7395 72.7828 104.208 73.6321C108.233 74.3707 112.11 75.737 115.913 77.1402C113.993 76.4755 112.073 75.8108 110.116 75.2569C108.159 74.703 106.165 74.223 104.171 73.8906C89.5477 71.5642 99.7395 83.6393 104.577 88.5875C119.052 102.952 136.26 114.252 153.874 124.296Z" fill="white"/>
<path d="M182.603 58.4922C188.512 58.0121 197.78 55.3903 192.611 47.8942C186.592 39.8441 172.005 34.4528 162.589 31.314C160.115 30.4647 157.641 29.7631 155.13 29.0245C167.094 31.4986 186.001 37.1854 193.423 47.3772C194.974 49.5928 195.749 52.8793 193.718 55.0949C190.912 57.9752 186.37 58.3814 182.603 58.4922Z" fill="white"/>
<path d="M44.9769 71.7859C45.7893 79.9837 55.3903 88.7353 63.2188 89.0677C63.2188 89.0677 60.7816 87.7014 55.4272 84.3041C46.5279 78.6912 44.9769 71.7859 44.9769 71.7859Z" fill="#FCF539"/>
<path d="M174.738 49.5189L189.915 73.6691L180.868 74.8138L166.725 60.1539C166.725 60.1169 162.885 50.0728 174.738 49.5189Z" fill="#EA9261"/>
<path d="M83.3071 62.148C83.3071 62.148 96.9331 47.3772 105.242 42.6875L108.454 53.1747C108.454 53.1747 92.6865 64.4005 86.1873 66.8746C79.7251 69.3856 83.3071 62.148 83.3071 62.148Z" fill="#EA9261"/>
<path d="M104.208 42.9091C104.208 42.9091 100.256 48.2635 108.454 53.1748L122.782 48.7066C122.782 48.7066 121.046 53.064 126.511 54.7626C126.511 54.7626 127.693 62.0003 132.826 67.0593C132.826 67.0593 99.2225 76.1802 90.5816 93.6836C88.1075 98.7056 92.6495 131.127 102.841 143.793L109.008 140.359C109.008 140.359 107.9 130.647 109.267 120.862C110.633 111.076 109.821 103.432 107.531 99.4072L111.999 97.0439C111.999 97.0439 121.083 124.333 130.241 131.977L138.697 126.881C138.697 126.881 132.826 100.958 129.133 95.0129C129.133 95.0129 159.561 95.8992 164.989 85.2642C170.418 74.6293 155.204 66.21 155.204 66.21C155.204 66.21 154.982 63.9574 153.653 63.5143C151.843 62.9604 144.236 60.2278 147.818 53.064L163.771 57.7168C163.771 57.7168 164.583 59.8585 166.725 60.154C166.725 60.154 164.989 52.6947 174.738 49.5559C174.738 49.5559 168.424 42.6506 151.474 37.6655C151.474 37.6655 148.889 34.5636 146.083 33.9728C143.276 33.382 141.245 34.7113 138.476 32.9388C135.706 31.1294 127.25 30.0216 119.385 33.0496C111.519 36.0776 107.79 39.9549 107.79 39.9549C107.79 39.9549 104.577 41.9859 104.208 42.9091Z" fill="#111D3F"/>
<mask id="mask0_22_907" style="mask-type:luminance" maskUnits="userSpaceOnUse" x="89" y="31" width="86" height="113">
<path d="M104.208 42.9091C104.208 42.9091 100.256 48.2635 108.454 53.1748L122.782 48.7066C122.782 48.7066 121.046 53.064 126.511 54.7626C126.511 54.7626 127.693 62.0003 132.826 67.0593C132.826 67.0593 99.2225 76.1802 90.5816 93.6836C88.1075 98.7056 92.6495 131.127 102.841 143.793L109.008 140.359C109.008 140.359 107.9 130.647 109.267 120.862C110.633 111.076 109.821 103.432 107.531 99.4072L111.999 97.0439C111.999 97.0439 121.083 124.333 130.241 131.977L138.697 126.881C138.697 126.881 132.826 100.958 129.133 95.0129C129.133 95.0129 159.561 95.8992 164.989 85.2642C170.418 74.6293 155.204 66.21 155.204 66.21C155.204 66.21 154.982 63.9574 153.653 63.5143C151.843 62.9604 144.236 60.2278 147.818 53.064L163.771 57.7168C163.771 57.7168 164.583 59.8585 166.725 60.154C166.725 60.154 164.989 52.6947 174.738 49.5559C174.738 49.5559 168.424 42.6506 151.474 37.6655C151.474 37.6655 148.889 34.5636 146.083 33.9728C143.276 33.382 141.245 34.7113 138.476 32.9388C135.706 31.1294 127.25 30.0216 119.385 33.0496C111.519 36.0776 107.79 39.9549 107.79 39.9549C107.79 39.9549 104.577 41.9859 104.208 42.9091Z" fill="white"/>
</mask>
<g mask="url(#mask0_22_907)">
<path d="M148.668 38.2194C148.668 38.2194 165.359 41.9859 173.889 51.8454L173.667 52.4362C173.667 52.4362 164.435 42.9829 148.778 39.2164L148.668 38.2194Z" fill="#E3C0FF"/>
</g>
<mask id="mask1_22_907" style="mask-type:luminance" maskUnits="userSpaceOnUse" x="89" y="31" width="86" height="113">
<path d="M104.208 42.9091C104.208 42.9091 100.256 48.2635 108.454 53.1748L122.782 48.7066C122.782 48.7066 121.046 53.064 126.511 54.7626C126.511 54.7626 127.693 62.0003 132.826 67.0593C132.826 67.0593 99.2225 76.1802 90.5816 93.6836C88.1075 98.7056 92.6495 131.127 102.841 143.793L109.008 140.359C109.008 140.359 107.9 130.647 109.267 120.862C110.633 111.076 109.821 103.432 107.531 99.4072L111.999 97.0439C111.999 97.0439 121.083 124.333 130.241 131.977L138.697 126.881C138.697 126.881 132.826 100.958 129.133 95.0129C129.133 95.0129 159.561 95.8992 164.989 85.2642C170.418 74.6293 155.204 66.21 155.204 66.21C155.204 66.21 154.982 63.9574 153.653 63.5143C151.843 62.9604 144.236 60.2278 147.818 53.064L163.771 57.7168C163.771 57.7168 164.583 59.8585 166.725 60.154C166.725 60.154 164.989 52.6947 174.738 49.5559C174.738 49.5559 168.424 42.6506 151.474 37.6655C151.474 37.6655 148.889 34.5636 146.083 33.9728C143.276 33.382 141.245 34.7113 138.476 32.9388C135.706 31.1294 127.25 30.0216 119.385 33.0496C111.519 36.0776 107.79 39.9549 107.79 39.9549C107.79 39.9549 104.577 41.9859 104.208 42.9091Z" fill="white"/>
</mask>
<g mask="url(#mask1_22_907)">
<path d="M139.657 74.7031C139.657 74.7031 149.591 73.8168 153.948 80.9807C158.305 88.1814 153.985 99.2964 153.985 99.2964L143.83 101.586L139.657 74.7031Z" fill="#E3C0FF"/>
</g>
<mask id="mask2_22_907" style="mask-type:luminance" maskUnits="userSpaceOnUse" x="89" y="31" width="86" height="113">
<path d="M104.208 42.9091C104.208 42.9091 100.256 48.2635 108.454 53.1748L122.782 48.7066C122.782 48.7066 121.046 53.064 126.511 54.7626C126.511 54.7626 127.693 62.0003 132.826 67.0593C132.826 67.0593 99.2225 76.1802 90.5816 93.6836C88.1075 98.7056 92.6495 131.127 102.841 143.793L109.008 140.359C109.008 140.359 107.9 130.647 109.267 120.862C110.633 111.076 109.821 103.432 107.531 99.4072L111.999 97.0439C111.999 97.0439 121.083 124.333 130.241 131.977L138.697 126.881C138.697 126.881 132.826 100.958 129.133 95.0129C129.133 95.0129 159.561 95.8992 164.989 85.2642C170.418 74.6293 155.204 66.21 155.204 66.21C155.204 66.21 154.982 63.9574 153.653 63.5143C151.843 62.9604 144.236 60.2278 147.818 53.064L163.771 57.7168C163.771 57.7168 164.583 59.8585 166.725 60.154C166.725 60.154 164.989 52.6947 174.738 49.5559C174.738 49.5559 168.424 42.6506 151.474 37.6655C151.474 37.6655 148.889 34.5636 146.083 33.9728C143.276 33.382 141.245 34.7113 138.476 32.9388C135.706 31.1294 127.25 30.0216 119.385 33.0496C111.519 36.0776 107.79 39.9549 107.79 39.9549C107.79 39.9549 104.577 41.9859 104.208 42.9091Z" fill="white"/>
</mask>
<g mask="url(#mask2_22_907)">
<path d="M151.363 95.8992C151.363 95.8992 153.911 85.7812 150.108 80.2421C146.267 74.7031 137.479 73.1891 131.829 76.0694C131.829 76.0694 124.37 66.2469 111.556 71.3797C98.7055 76.5125 77.7679 99.5549 77.7679 99.5549L98.3731 145.381L161.924 127.065L151.363 95.8992Z" fill="#EA9261"/>
</g>
<mask id="mask3_22_907" style="mask-type:luminance" maskUnits="userSpaceOnUse" x="89" y="31" width="86" height="113">
<path d="M104.208 42.9091C104.208 42.9091 100.256 48.2635 108.454 53.1748L122.782 48.7066C122.782 48.7066 121.046 53.064 126.511 54.7626C126.511 54.7626 127.693 62.0003 132.826 67.0593C132.826 67.0593 99.2225 76.1802 90.5816 93.6836C88.1075 98.7056 92.6495 131.127 102.841 143.793L109.008 140.359C109.008 140.359 107.9 130.647 109.267 120.862C110.633 111.076 109.821 103.432 107.531 99.4072L111.999 97.0439C111.999 97.0439 121.083 124.333 130.241 131.977L138.697 126.881C138.697 126.881 132.826 100.958 129.133 95.0129C129.133 95.0129 159.561 95.8992 164.989 85.2642C170.418 74.6293 155.204 66.21 155.204 66.21C155.204 66.21 154.982 63.9574 153.653 63.5143C151.843 62.9604 144.236 60.2278 147.818 53.064L163.771 57.7168C163.771 57.7168 164.583 59.8585 166.725 60.154C166.725 60.154 164.989 52.6947 174.738 49.5559C174.738 49.5559 168.424 42.6506 151.474 37.6655C151.474 37.6655 148.889 34.5636 146.083 33.9728C143.276 33.382 141.245 34.7113 138.476 32.9388C135.706 31.1294 127.25 30.0216 119.385 33.0496C111.519 36.0776 107.79 39.9549 107.79 39.9549C107.79 39.9549 104.577 41.9859 104.208 42.9091Z" fill="white"/>
</mask>
<g mask="url(#mask3_22_907)">
<path d="M131.644 28.9507L159.266 36.4838C159.266 36.4838 144.384 32.1264 147.818 53.0639L136.482 59.7477C135.005 60.597 133.195 60.597 131.755 59.7108L120.603 52.9162L119.2 50.1098L122.745 48.7435C119.274 40.398 123.225 34.0835 131.644 28.9507Z" fill="#03A29B"/>
</g>
<mask id="mask4_22_907" style="mask-type:luminance" maskUnits="userSpaceOnUse" x="113" y="24" width="77" height="120">
<path d="M113.424 59.7074C113.424 59.7074 113.191 66.3579 122.73 65.775L132.023 53.9898C132.023 53.9898 133.054 58.5653 138.523 56.877C138.523 56.877 143.589 62.1794 150.683 63.451C150.683 63.451 128.119 89.9709 130.886 109.294C131.684 114.835 153.759 139.013 169.326 143.699L172.472 137.38C172.472 137.38 166.068 129.995 161.663 121.151C157.259 112.306 152.267 106.46 148.103 104.434L150.453 99.9586C150.453 99.9586 173.373 117.334 185.248 118.463L189.343 109.479C189.343 109.479 169.846 91.4141 163.439 88.5974C163.439 88.5974 189.04 72.1277 187.506 60.2863C185.971 48.4449 168.662 50.1002 168.662 50.1002C168.662 50.1002 167.206 48.3674 165.859 48.7533C164.053 49.3193 156.233 51.3654 155.138 43.4311L170.928 38.2513C170.928 38.2513 172.809 39.5588 174.742 38.5917C174.742 38.5917 169.094 33.4197 175.361 25.3196C175.361 25.3196 166.249 23.193 149.449 28.6622C149.449 28.6622 145.564 27.5648 142.915 28.6639C140.266 29.763 139.342 32.0077 136.055 32.1112C132.748 32.1842 125.146 36.0507 120.369 42.9948C115.593 49.9389 114.708 55.2457 114.708 55.2457C114.708 55.2457 113.206 58.7371 113.424 59.7074Z" fill="white"/>
</mask>
<g mask="url(#mask4_22_907)">
<path d="M139.026 40.9535C141.516 39.2472 142.151 35.8456 140.445 33.3558C138.738 30.866 135.337 30.2308 132.847 31.937C130.357 33.6433 129.722 37.0449 131.428 39.5347C133.134 42.0245 136.536 42.6597 139.026 40.9535Z" fill="#111D3F"/>
</g>
<mask id="mask5_22_907" style="mask-type:luminance" maskUnits="userSpaceOnUse" x="89" y="31" width="86" height="113">
<path d="M104.208 42.9091C104.208 42.9091 100.256 48.2635 108.454 53.1748L122.782 48.7066C122.782 48.7066 121.046 53.064 126.511 54.7626C126.511 54.7626 127.693 62.0003 132.826 67.0593C132.826 67.0593 99.2225 76.1802 90.5816 93.6836C88.1075 98.7056 92.6495 131.127 102.841 143.793L109.008 140.359C109.008 140.359 107.9 130.647 109.267 120.862C110.633 111.076 109.821 103.432 107.531 99.4072L111.999 97.0439C111.999 97.0439 121.083 124.333 130.241 131.977L138.697 126.881C138.697 126.881 132.826 100.958 129.133 95.0129C129.133 95.0129 159.561 95.8992 164.989 85.2642C170.418 74.6293 155.204 66.21 155.204 66.21C155.204 66.21 154.982 63.9574 153.653 63.5143C151.843 62.9604 144.236 60.2278 147.818 53.064L163.771 57.7168C163.771 57.7168 164.583 59.8585 166.725 60.154C166.725 60.154 164.989 52.6947 174.738 49.5559C174.738 49.5559 168.424 42.6506 151.474 37.6655C151.474 37.6655 148.889 34.5636 146.083 33.9728C143.276 33.382 141.245 34.7113 138.476 32.9388C135.706 31.1294 127.25 30.0216 119.385 33.0496C111.519 36.0776 107.79 39.9549 107.79 39.9549C107.79 39.9549 104.577 41.9859 104.208 42.9091Z" fill="white"/>
</mask>
<g mask="url(#mask5_22_907)">
<path d="M133.121 53.5809C133.712 53.6178 134.229 53.1378 134.155 52.547C133.86 48.7066 134.081 45.0877 134.968 41.6535C135.115 41.0627 134.709 40.5088 134.118 40.4719C133.675 40.4349 133.269 40.6934 133.121 41.1366C131.977 44.94 131.681 48.8173 132.235 52.7685C132.309 53.2116 132.678 53.544 133.121 53.5809Z" fill="#111D3F"/>
</g>
<path d="M133.86 27.8059C133.86 27.8059 130.758 34.1573 132.937 38.4778C135.115 42.7982 139.399 39.7333 139.584 38.1824C139.768 36.6314 138.956 33.6773 139.953 31.4986C140.95 29.3568 133.86 27.8059 133.86 27.8059Z" fill="#EA9261"/>
<mask id="mask6_22_907" style="mask-type:luminance" maskUnits="userSpaceOnUse" x="132" y="27" width="9" height="14">
<path d="M133.86 27.8059C133.86 27.8059 130.758 34.1573 132.937 38.4778C135.115 42.7982 139.399 39.7333 139.584 38.1824C139.768 36.6314 138.956 33.6773 139.953 31.4986C140.95 29.3568 133.86 27.8059 133.86 27.8059Z" fill="white"/>
</mask>
<g mask="url(#mask6_22_907)">
<path d="M135.743 31.0925C135.743 31.0925 135.632 35.0068 140.248 35.93L140.138 31.6464L135.743 31.0925Z" fill="#B23E3B"/>
</g>
<path d="M131.017 20.2729C130.61 22.7839 126.29 25.1103 123.964 21.4915C120.972 16.8387 113.846 17.4295 115.064 23.1163C115.655 25.8858 113.698 26.809 110.411 24.778C110.411 24.778 110.448 26.3658 111.63 27.3259C112.996 28.4707 115.655 28.803 116.911 25.7381C116.911 25.7381 120.345 34.5267 121.748 27.5106C130.278 34.7483 131.607 21.6392 131.607 21.6392L131.017 20.2729Z" fill="#FCF539"/>
<path d="M116.874 20.5313C118.24 19.0911 120.972 19.1281 122.376 21.2698C123.779 23.4116 124.998 25.221 128.247 24.1132" stroke="white" stroke-width="0.355643" stroke-miterlimit="10" stroke-linecap="round"/>
<path d="M143.166 22.4885C143.166 22.4885 144.901 19.9036 146.489 21.1222C148.077 22.3407 146.6 26.735 142.39 26.1442" fill="#B23E3B"/>
<path d="M133.86 27.806C135.005 31.4617 137.922 33.2711 140.47 33.1604C142.722 33.0865 144.827 30.9817 145.381 28.9507C145.861 27.289 145.197 25.9227 145.492 24.2241C146.194 20.3467 144.532 17.3187 144.532 17.3187C142.205 13.1091 135.522 13.4045 132.604 17.6141C129.724 21.8607 133.86 27.806 133.86 27.806Z" fill="#EA9261"/>
<path d="M133.38 24.3718C133.38 24.3718 130.98 22.4146 129.835 24.0394C128.69 25.6642 131.349 29.4677 135.226 27.6582" fill="#EA9261"/>
<path d="M130.537 25.1103C130.537 25.1103 131.903 24.0025 133.417 25.6642" stroke="#B23E3B" stroke-width="0.327135" stroke-miterlimit="10" stroke-linecap="round"/>
<path d="M133.269 27.0304C133.269 27.0304 129.983 27.2151 131.829 24.741" stroke="#B23E3B" stroke-width="0.327135" stroke-miterlimit="10" stroke-linecap="round"/>
<path d="M140.765 23.2639C140.765 23.2639 140.433 25.1103 140.913 26.2181C142.464 25.5534 142.981 27.9536 140.839 28.1013" stroke="#B23E3B" stroke-width="0.327135" stroke-miterlimit="10" stroke-linecap="round"/>
<path d="M145.233 25.8119C145.381 26.2181 145.197 26.6981 144.79 26.8458C144.384 26.9935 143.904 26.8089 143.756 26.4027C143.609 25.9965 143.793 25.5165 144.2 25.3688C144.606 25.2211 145.086 25.4057 145.233 25.8119Z" fill="#E3C0FF"/>
<path d="M137.405 26.809C137.553 27.2151 137.368 27.6952 136.962 27.8429C136.556 27.9906 136.076 27.806 135.928 27.3998C135.78 26.9936 135.965 26.5135 136.371 26.3658C136.777 26.2181 137.257 26.4028 137.405 26.809Z" fill="#E3C0FF"/>
<path d="M137.479 24.261C137.663 24.8887 138.033 25.2949 138.328 25.2211C138.624 25.1472 138.697 24.5564 138.513 23.9656C138.328 23.3378 137.959 22.9316 137.663 23.0055C137.405 23.0793 137.294 23.6702 137.479 24.261Z" fill="#111D3F"/>
<path d="M136.962 25.2949C136.962 25.2949 137.922 25.1103 139.288 25.5165" stroke="#B23E3B" stroke-width="0.379128" stroke-miterlimit="10" stroke-linecap="round"/>
<path d="M143.682 23.2639C143.719 23.8917 143.535 24.4456 143.239 24.4456C142.981 24.4825 142.722 23.9655 142.722 23.3378C142.685 22.71 142.87 22.1561 143.166 22.1561C143.461 22.1561 143.646 22.6362 143.682 23.2639Z" fill="#111D3F"/>
<path d="M144.384 24.0394C144.384 24.0394 143.535 24.2241 142.501 25.0734" stroke="#B23E3B" stroke-width="0.355643" stroke-miterlimit="10" stroke-linecap="round"/>
<path d="M138.328 27.8798C139.805 28.8768 142.132 28.6183 142.132 28.6183C142.132 28.6183 141.91 30.2431 140.027 29.8369C138.513 29.5045 138.328 27.8798 138.328 27.8798Z" fill="white"/>
<path d="M139.362 22.0085C139.731 20.4576 135.3 20.1252 134.562 23.6333C134.562 23.6333 135.669 22.9686 136.925 22.6362C137.996 22.3408 139.251 22.4147 139.362 22.0085Z" fill="#FCF539"/>
<path d="M141.541 22.0085C140.839 20.716 143.719 18.6851 145.27 21.6392C145.27 21.6392 144.31 21.4546 143.35 21.6392C142.575 21.75 141.725 22.3408 141.541 22.0085Z" fill="#FCF539"/>
<path d="M131.903 24.0763C133.343 24.8887 132.42 21.196 134.082 21.4176C135.337 21.5653 133.934 18.9065 135.559 17.7987C135.559 17.7987 137.442 21.4914 140.248 19.5343C143.313 17.3556 143.756 20.5313 145.603 20.8267C146.194 16.1739 141.615 10.4872 135.115 13.626C126.77 17.6141 131.903 24.0763 131.903 24.0763Z" fill="#FCF539"/>
<path d="M181.053 75.4786C181.053 75.4786 182.714 77.5095 182.677 80.279C182.64 83.0486 183.157 83.861 184.45 83.4548C185.742 83.0486 185.225 80.2052 185.225 80.2052C185.225 80.2052 190.432 88.4399 191.761 89.3631C193.054 90.2862 193.903 88.9199 193.903 88.9199C193.903 88.9199 194.9 89.917 196.562 89.7693C198.224 89.6216 197.743 88.5507 197.67 88.1076C197.596 87.6644 194.789 83.5655 194.383 82.2362C193.977 80.8699 195.048 82.31 195.196 82.6793C195.343 83.0486 197.19 86.4089 198.26 86.7782C199.331 87.1475 199.627 86.372 199.627 86.1135C199.627 85.855 197.005 82.2362 196.266 80.1683C195.528 78.1004 191.281 75.6632 189.952 73.7061C188.623 71.712 179.428 71.3058 181.053 75.4786Z" fill="#EA9261"/>
<path d="M189.656 82.6055C189.656 82.6055 192.057 87.1106 193.903 88.92" stroke="#B23E3B" stroke-width="0.355643" stroke-miterlimit="10" stroke-linecap="round"/>
<path d="M192.057 82.7532C192.057 82.7532 194.789 87.2213 197.153 89.6585" stroke="#B23E3B" stroke-width="0.355643" stroke-miterlimit="10" stroke-linecap="round"/>
<path d="M83.3071 62.1479C83.3071 62.1479 85.6704 63.4773 86.1873 66.9115C86.1873 66.9115 83.5286 70.8996 81.793 71.4905C80.0575 72.0813 79.9098 71.1212 79.9098 71.1212C79.9098 71.1212 80.7222 75.1462 80.7591 75.2939C80.796 75.4416 83.5655 75.3678 83.824 76.3648C84.0825 77.3618 83.3071 77.0664 81.6453 77.288C79.9836 77.5095 79.5036 77.9157 79.5036 77.9157C79.5036 77.9157 79.6513 78.9128 78.1373 78.765C76.6233 78.6173 74.5185 77.251 74.5185 76.9556C74.5185 76.6971 74.8877 74.6662 74.8877 74.6662C74.8877 74.6662 73.7061 74.3707 73.5953 73.7799C73.4845 73.1891 75.6263 70.4565 75.5524 70.198C75.5155 69.9395 74.7769 69.0902 75.0354 68.7209C75.3308 68.3517 81.7931 64.2528 83.3071 62.1479Z" fill="#EA9261"/>
<path d="M77.1772 71.5643C77.1772 71.5643 78.1373 73.9646 78.3958 75.2939C78.6173 76.6233 78.765 78.2481 79.5405 77.9158" stroke="#B23E3B" stroke-width="0.327135" stroke-miterlimit="10" stroke-linecap="round"/>
<path d="M75.8109 71.5275L74.6662 76.0325" stroke="#B23E3B" stroke-width="0.327135" stroke-miterlimit="10" stroke-linecap="round"/>
<path d="M78.0265 73.9646C78.0265 73.9646 77.9896 75.1463 77.4357 75.7371L78.5066 76.3279L78.0265 73.9646Z" fill="#B23E3B"/>
<path d="M79.7252 69.3856C79.7252 69.3856 81.5715 69.4225 82.6055 68.3147L80.316 70.6042" stroke="#B23E3B" stroke-width="0.327135" stroke-miterlimit="10" stroke-linecap="round"/>
<path d="M111.999 97.007C111.076 91.9849 110.374 86.889 114.88 84.7103C117.058 83.6764 129.023 77.9158 129.023 77.9158" stroke="#B23E3B" stroke-width="0.355643" stroke-miterlimit="10" stroke-linecap="round"/>
<path d="M131.792 76.0694C131.792 76.0694 137.553 71.7859 141.171 70.4565" stroke="#03A29B" stroke-width="0.369269" stroke-miterlimit="10"/>
<path d="M163.882 78.8389C164.435 82.0146 163.549 85.6334 158.97 88.883" stroke="#03A29B" stroke-width="0.369269" stroke-miterlimit="10"/>
<path d="M159.192 70.4934C159.192 70.4934 161.851 73.0044 163.217 76.5125" stroke="#03A29B" stroke-width="0.369269" stroke-miterlimit="10"/>
<path d="M139.547 13.3675C136.445 13.0352 134.894 14.7708 136.297 15.6201C137.663 16.4694 134.82 16.8017 133.048 16.9495C131.312 17.0602 132.42 19.2389 132.42 19.2389" stroke="white" stroke-width="0.355643" stroke-miterlimit="10" stroke-linecap="round"/>
<path d="M93.3512 146.452C93.3512 146.452 116.098 124.85 161.37 108.897C205.35 93.425 204.612 98.0039 206.126 104.023C207.64 110.042 195.565 130.389 179.169 149.96C179.169 149.997 138.587 163.66 93.3512 146.452Z" fill="#EB5E0E"/>
<path d="M203.763 99.2964C203.763 99.2964 163.771 133.232 141.762 145.677" stroke="#B23E3B" stroke-width="0.355643" stroke-miterlimit="10" stroke-linecap="round"/>
<path d="M195.38 128.69C195.38 128.69 176.03 181.422 105.5 166.282C63.3296 157.198 51.1068 130.389 50.9591 112.885C50.9222 109.673 54.3194 107.937 55.9812 110.744C56.055 110.855 56.1289 111.002 56.2027 111.113C56.2027 111.113 52.0669 92.8342 67.3177 90.2862C68.4624 90.1016 69.0902 91.6156 68.1301 92.2803C64.8805 94.5328 61.594 98.8902 63.8097 106.977C67.687 121.194 74.8139 129.54 96.7854 137.183C96.7854 137.183 84.5626 124.665 86.5566 115.101C88.6245 105.5 127.878 169.974 195.38 128.69Z" fill="#5577E7"/>
<mask id="mask7_22_907" style="mask-type:luminance" maskUnits="userSpaceOnUse" x="50" y="90" width="146" height="80">
<path d="M195.38 128.69C195.38 128.69 176.03 181.422 105.5 166.282C63.3296 157.198 51.1068 130.389 50.9591 112.885C50.9222 109.673 54.3194 107.937 55.9812 110.744C56.055 110.855 56.1289 111.002 56.2027 111.113C56.2027 111.113 52.0669 92.8342 67.3177 90.2862C68.4624 90.1016 69.0902 91.6156 68.1301 92.2803C64.8805 94.5328 61.594 98.8902 63.8097 106.977C67.687 121.194 74.8139 129.54 96.7854 137.183C96.7854 137.183 84.5626 124.665 86.5566 115.101C88.6245 105.5 127.878 169.974 195.38 128.69Z" fill="white"/>
</mask>
<g mask="url(#mask7_22_907)">
<path d="M102.398 115.84L78.1742 78.765L29.0984 104.909C29.0984 104.909 57.8275 155.13 76.7341 164.398C95.6406 173.667 85.1903 159.635 85.1903 159.635C85.1903 159.635 90.914 160.743 95.6776 158.084C100.441 155.425 82.7532 147.338 83.6763 144.716C84.5995 142.095 106.239 150.625 107.827 151.031C109.377 151.4 99.1487 144.236 101.327 141.135C103.506 138.033 121.859 151.954 132.604 146.858C132.604 146.858 116.357 146.71 108.713 137.442C103.026 130.573 119.237 136.519 121.933 134.266C124.628 132.014 90.5447 106.423 90.5447 106.423" fill="white"/>
</g>
<mask id="mask8_22_907" style="mask-type:luminance" maskUnits="userSpaceOnUse" x="50" y="90" width="146" height="80">
<path d="M195.38 128.69C195.38 128.69 176.03 181.422 105.5 166.282C63.3296 157.198 51.1068 130.389 50.9591 112.885C50.9222 109.673 54.3194 107.937 55.9812 110.744C56.055 110.855 56.1289 111.002 56.2027 111.113C56.2027 111.113 52.0669 92.8342 67.3177 90.2862C68.4624 90.1016 69.0902 91.6156 68.1301 92.2803C64.8805 94.5328 61.594 98.8902 63.8097 106.977C67.687 121.194 74.8139 129.54 96.7854 137.183C96.7854 137.183 84.5626 124.665 86.5566 115.101C88.6245 105.5 127.878 169.974 195.38 128.69Z" fill="white"/>
</mask>
<g mask="url(#mask8_22_907)">
<path d="M195.38 128.69C182.086 143.461 169.347 149.591 153.69 149.96C153.69 149.96 166.614 151.216 161.186 156.57C155.758 161.924 135.411 162.737 126.548 159.93C98.3363 151.031 102.103 170.048 86.0396 163.771C69.9764 157.493 89.1415 186.37 89.1415 186.37L175.698 177.138L199.59 138.107L195.38 128.69Z" fill="#394BD1"/>
</g>
<path d="M68.3886 103.211C67.1331 96.0099 74.26 90.0647 77.5095 92.5757C79.0605 93.7574 75.6632 94.8283 73.1522 97.0808C70.3827 99.5918 68.3886 103.211 68.3886 103.211Z" fill="white"/>
<path d="M85.6335 127.582C78.5066 125.219 74.74 117.169 77.9527 115.877C79.4667 115.249 79.6144 118.277 81.0915 121.194C82.7162 124.407 85.6335 127.582 85.6335 127.582Z" fill="white"/>
</g>
<defs>
<clipPath id="clip0_22_907">
<rect width="243.127" height="186.333" fill="white"/>
</clipPath>
</defs>
</svg>
