<svg width="207" height="186" viewBox="0 0 207 186" fill="none" xmlns="http://www.w3.org/2000/svg">
<path d="M5 93.1635C5 144.149 46.3318 185.481 97.3172 185.481C148.303 185.481 189.634 144.149 189.634 93.1635C189.634 42.1782 148.303 0.846313 97.3172 0.846313C46.3318 0.846313 5 42.1782 5 93.1635Z" fill="#DCF1F0"/>
<path d="M111.645 57.086C106.364 58.8215 101.084 60.5571 95.5448 61.3326C90.0057 62.108 84.1713 61.8495 79.0385 59.7447C73.8687 57.6029 69.4744 53.4302 68.145 48.2604C66.8157 43.0907 69.0682 37.1085 73.9425 34.6344C77.4137 32.8619 81.6603 32.9727 85.5376 33.6374C89.4518 34.3021 93.2553 35.5576 97.2065 35.8899C102.413 36.37 107.62 35.2991 112.642 33.8589C117.738 32.4188 123.166 30.6094 128.262 32.1234C131.622 33.1204 134.503 35.5576 135.795 38.6594C137.124 41.7244 136.866 45.3801 135.057 48.1866C132.915 51.5469 128.964 53.4671 124.976 54.6119C121.061 55.7566 116.63 55.4612 111.645 57.086Z" fill="#9FC9C7"/>
<path d="M113.38 156.715C60.9073 161.921 31.4766 138.362 29.9995 109.522C28.1162 72.8538 57.0669 63.1789 92.2213 70.0843C127.376 76.9896 156.216 45.9341 179.886 66.4285C203.519 86.886 194.915 148.628 113.38 156.715Z" fill="#9FC9C7"/>
<path d="M36.2771 127.653C36.1294 125.142 34.5785 122.853 32.5106 121.487C30.4427 120.083 27.8578 119.566 25.3837 119.603C22.8726 119.677 20.4355 120.305 18.0721 121.08C13.7886 122.52 9.65281 124.625 6.40325 127.801C3.19061 130.977 0.938069 135.297 0.974996 139.839C0.974996 142.129 1.63968 144.566 3.33832 146.117C5.25851 147.889 8.17574 148.259 10.6868 147.594C13.2347 146.929 15.4503 145.415 17.4813 143.827C19.5492 142.203 21.5063 140.467 23.8327 139.248C25.6052 138.325 27.5254 137.697 29.3718 136.922C31.2181 136.147 33.0275 135.186 34.3569 133.672C35.6493 132.195 36.4248 130.091 36.2771 127.653Z" fill="url(#paint0_linear_25_1557)"/>
<path d="M23.0572 81.0515C22.0602 86.849 21.1001 92.7943 22.1341 98.5549C23.168 104.352 26.6022 110.039 32.1043 112.144C36.9787 113.99 42.9239 112.513 46.3581 108.562C49.1646 105.349 50.1985 100.918 50.2354 96.6347C50.3093 92.3511 49.4969 88.1415 49.1276 83.8949C48.9061 81.31 48.7953 78.6882 48.2783 76.1772C47.7613 73.6661 46.7643 71.1182 44.9549 69.2718C41.5207 65.7269 35.5755 65.3576 31.255 67.7578C26.9346 70.195 24.1281 74.8478 23.0572 81.0515Z" fill="url(#paint1_linear_25_1557)"/>
<path d="M9.8374 136.59C18.7737 128.613 31.4766 125.142 43.2193 127.358" stroke="#2E2854" stroke-width="0.369269" stroke-miterlimit="10" stroke-linecap="round" stroke-linejoin="round"/>
<path d="M34.2092 77.5066C31.0704 102.248 39.5267 128.244 56.5869 146.412" stroke="#2E2854" stroke-width="0.369269" stroke-miterlimit="10" stroke-linecap="round" stroke-linejoin="round"/>
<path d="M192.515 84.2642C189.856 84.375 187.271 84.7812 184.797 85.7043C182.323 86.6275 179.997 88.0677 178.335 90.1356C176.673 92.2035 175.713 94.8991 176.119 97.5209C176.525 100.143 178.409 102.543 180.957 103.282C183.578 104.02 186.348 102.986 189.044 102.654C191.628 102.358 194.25 102.728 196.835 102.728C199.457 102.728 202.19 102.285 204.184 100.586C206.325 98.7395 207.175 95.6746 206.584 92.9051C205.993 90.1725 204.11 87.7722 201.71 86.2952C199.272 84.8181 196.466 84.1165 192.515 84.2642Z" fill="url(#paint2_linear_25_1557)"/>
<path d="M159.761 66.1701C159.761 61.0742 160.647 55.9413 162.235 51.1039C163.823 46.2665 166.666 41.6506 170.986 38.9549C173.608 37.2932 176.858 36.407 179.849 37.2194C184.132 38.3641 186.828 42.6476 188.342 46.8204C191.075 54.3535 191.333 62.7728 189.044 70.4536C188.084 73.7032 186.643 76.8789 184.391 79.4268C182.138 81.9748 179.036 83.8581 175.639 84.1535C171.577 84.5227 167.035 83.1934 164.34 80.1654C160.721 76.0665 159.761 71.9676 159.761 66.1701Z" fill="url(#paint3_linear_25_1557)"/>
<path d="M175.233 48.7775C175.122 73.8508 170.802 98.8873 162.567 122.557" stroke="#2E2854" stroke-width="0.369269" stroke-miterlimit="10" stroke-linecap="round" stroke-linejoin="round"/>
<path d="M168.475 102.765C177.744 95.7854 189.598 92.2404 201.193 93.0528" stroke="#2E2854" stroke-width="0.369269" stroke-miterlimit="10" stroke-linecap="round" stroke-linejoin="round"/>
<path d="M136.275 63.2897C136.09 66.2438 136.829 69.2718 138.417 71.8198" stroke="#2E2854" stroke-width="0.369269" stroke-miterlimit="10" stroke-linecap="round" stroke-linejoin="round"/>
<path d="M149.938 82.3809C151.858 81.0885 153.372 79.0944 154.074 76.8788" stroke="#2E2854" stroke-width="0.369269" stroke-miterlimit="10" stroke-linecap="round" stroke-linejoin="round"/>
<path d="M173.239 118.2C173.977 115.726 175.491 113.436 177.485 111.775" stroke="#2E2854" stroke-width="0.369269" stroke-miterlimit="10" stroke-linecap="round" stroke-linejoin="round"/>
<path d="M190.041 143.273C192.33 142.904 194.509 141.944 196.318 140.504" stroke="#2E2854" stroke-width="0.369269" stroke-miterlimit="10" stroke-linecap="round" stroke-linejoin="round"/>
<path d="M54.5928 126.472C55.8853 128.65 58.1747 130.201 60.6488 130.607" stroke="#2E2854" stroke-width="0.369269" stroke-miterlimit="10" stroke-linecap="round" stroke-linejoin="round"/>
<path d="M42.1115 158.044C43.7363 156.752 45.7303 155.902 47.7983 155.57" stroke="#2E2854" stroke-width="0.369269" stroke-miterlimit="10" stroke-linecap="round" stroke-linejoin="round"/>
<path d="M64.2307 99.0719C63.3076 97.5209 62.7537 95.7115 62.6798 93.9021" stroke="#2E2854" stroke-width="0.369269" stroke-miterlimit="10" stroke-linecap="round" stroke-linejoin="round"/>
<path d="M57.2516 167.497H181.067C186.274 161.183 190.004 153.502 190.742 145.341C191.481 136.848 188.637 127.875 182.397 122.04C176.156 116.243 166.371 114.138 158.653 117.757C161.164 112.661 163.638 108.488 164.783 103.909C165.927 99.2935 165.595 94.0868 162.789 90.2833C159.982 86.4798 154.332 84.6335 150.233 87.0337C151.415 82.2702 151.526 77.5066 150.233 73.1492C149.716 71.4137 148.904 69.6412 147.353 68.718C145.691 67.721 143.624 67.9425 141.777 68.5334C137.494 69.9735 133.949 73.4816 132.509 77.7651C130.478 75.5125 127.967 73.9616 125.308 73.5554C122.649 73.1123 119.806 73.777 117.59 75.3648C115.19 77.1004 113.602 79.7961 112.827 82.6394C112.051 85.4828 112.014 88.5108 112.236 91.428C107.731 84.5966 99.5698 81.5316 92.2213 83.0826C84.836 84.5966 78.5953 90.6526 76.7859 97.9641C71.1361 96.7086 64.7477 95.5269 59.8734 98.6657C54.8882 101.878 53.3373 108.784 54.8513 114.507C56.3284 120.231 60.2426 125.032 64.2307 129.389C62.4952 128.392 60.4642 129.315 59.578 130.903C58.6917 132.454 58.7656 134.485 59.541 136.11C60.3165 137.734 61.6459 139.064 63.1229 140.098C60.1319 140.245 57.51 140.282 54.9621 140.91C52.4141 141.538 49.977 142.756 48.3153 144.787C45.1765 148.628 45.7673 154.499 48.3153 158.746C50.5309 162.254 53.8174 164.986 57.2516 167.497Z" fill="#49AD9F"/>
<path opacity="0.15" d="M155.219 167.497C155.329 161.368 153.778 148.406 153.778 148.406C142.146 145.452 126.489 147.668 126.489 147.668C126.489 147.668 133.395 143.2 139.709 135.076C146.024 126.952 143.993 113.88 143.993 113.88C143.993 113.88 147.205 113.953 146.135 99.515C145.433 90.0986 140.3 78.3928 136.829 71.3767C134.872 73.0753 133.358 75.291 132.545 77.7281C130.515 75.4756 128.003 73.9247 125.345 73.5185C122.686 73.0753 119.843 73.74 117.627 75.3279C115.227 77.0634 113.639 79.7591 112.863 82.6025C112.088 85.4459 112.051 88.4739 112.273 91.3911C107.768 84.5596 99.6067 81.4947 92.2582 83.0456C84.8729 84.5596 78.6322 90.6156 76.8228 97.9271C73.5732 97.2255 70.1021 96.5239 66.8156 96.6347C69.9913 99.4042 74.2748 101.952 74.2748 101.952C63.5661 118.2 80.5155 161.589 80.5155 161.589L71.9854 167.497H155.219Z" fill="#2E2854"/>
<path d="M84.7621 86.2952C86.0176 90.948 88.6763 95.1946 92.2952 98.3703" stroke="#2E2854" stroke-width="0.369269" stroke-miterlimit="10" stroke-linecap="round" stroke-linejoin="round"/>
<path d="M97.7604 65.6531C94.5847 67.0563 90.5227 66.0223 88.4548 63.2159C86.7192 60.8526 86.4977 57.4553 88.0117 55.1658C86.2761 55.2397 84.4298 54.4273 83.5066 52.9502C82.5465 51.4732 82.6204 49.3314 84.1344 47.9651C83.322 47.5958 82.7681 46.7834 82.7311 45.8972C82.6942 45.0109 83.1373 44.1616 84.1344 43.9031C83.2481 42.943 82.8788 41.5398 83.1373 40.2843C83.4327 39.0288 84.3559 37.921 86.0176 37.4779C84.0974 35.4838 83.6912 32.2342 85.0206 29.7971C86.35 27.3599 89.341 25.9936 92.1844 26.9537C92.5537 25.0335 94.1415 23.4087 96.0617 23.0025C97.9819 22.5963 100.087 23.4456 101.232 25.292C103.262 23.778 106.254 23.6303 108.395 24.9966C110.537 26.3629 111.719 29.0955 111.645 31.7911C113.454 31.865 115.19 32.8251 116.187 34.3021C117.221 35.7792 117.479 37.7363 116.962 39.7304C117.775 40.1366 118.218 41.2075 117.922 42.4261C120.138 42.6845 122.132 44.2724 123.018 46.3403C123.905 48.4082 123.757 50.8454 122.76 52.8394C121.763 54.8704 120.027 56.4583 117.996 57.4184L97.7604 65.6531Z" fill="#623B8C"/>
<path d="M100.604 53.9104C101.121 56.2737 101.859 58.6001 102.746 60.8526C102.746 60.8526 107.583 59.0801 107.583 59.1171C106.586 56.5322 105.81 54.575 104.592 52.3964L100.604 53.9104Z" fill="#EA9261"/>
<path d="M104.629 52.4332L100.604 53.9103C100.751 54.6119 100.936 55.3135 101.121 56.0151C102.339 55.8674 104.112 55.4612 105.589 54.3534C105.293 53.7257 104.998 53.0979 104.629 52.4332Z" fill="#D95243"/>
<path d="M110.242 38.1795C111.386 41.5398 110.906 44.7524 109.392 47.9651C107.878 51.1777 104.998 53.6149 101.564 54.4642C98.1296 55.3135 94.5108 54.1319 91.9628 51.6578C89.2672 49.036 88.2702 46.008 87.3101 42.1306C89.9688 39.8412 91.889 36.7024 93.3661 33.4159C94.1415 34.856 95.5817 35.9638 97.1695 36.3331C98.7574 36.7024 100.53 36.37 101.97 35.5207C102.007 36.6655 102.782 37.7363 103.853 38.0687C104.924 38.438 106.18 38.0687 106.955 37.3301C107.103 37.9579 107.62 38.438 108.211 38.6226C108.838 38.8441 109.54 38.6964 110.242 38.1795Z" fill="#EA9261"/>
<path d="M109.392 47.9651C109.651 47.4481 109.872 46.9311 110.057 46.4142C109.762 46.0449 109.318 45.7495 108.765 45.5648C107.768 45.2694 106.586 45.6756 105.995 46.5249C105.404 47.3743 105.404 48.6298 106.032 49.4791C106.438 50.0699 107.14 50.4023 107.841 50.4761C108.432 49.7007 108.986 48.8883 109.392 47.9651Z" fill="#D95243"/>
<path d="M91.9998 51.6577C92.9229 52.544 93.9569 53.2456 95.1016 53.7625C95.5447 53.3194 95.8032 52.7286 95.8402 52.1378C95.914 51.1038 95.2863 49.996 93.9569 49.6267C92.9599 49.3313 91.7782 49.7375 91.1874 50.5868C91.1504 50.6238 91.1505 50.6607 91.1135 50.7345C91.372 51.03 91.6674 51.3623 91.9998 51.6577Z" fill="#D95243"/>
<path d="M88.5287 42.1676C88.861 42.6477 89.1934 43.0908 89.5626 43.5708C89.9688 43.0169 90.5597 42.6477 91.1874 42.463C91.8521 42.2784 92.5537 42.3522 93.1445 42.6477" stroke="#2E2854" stroke-width="0.369269" stroke-miterlimit="10" stroke-linecap="round" stroke-linejoin="round"/>
<path d="M90.4119 42.7952C90.2642 42.4998 90.1165 42.1675 89.9688 41.8721" stroke="#2E2854" stroke-width="0.369269" stroke-miterlimit="10" stroke-linecap="round" stroke-linejoin="round"/>
<path d="M91.4459 42.389C91.4089 42.2044 91.3351 42.0198 91.2982 41.7982" stroke="#2E2854" stroke-width="0.369269" stroke-miterlimit="10" stroke-linecap="round" stroke-linejoin="round"/>
<path d="M105.257 38.8441C105.109 39.398 104.924 39.9519 104.703 40.5058C104.149 40.1366 103.484 39.915 102.819 39.9888C102.155 40.0258 101.49 40.3212 101.01 40.7643" stroke="#2E2854" stroke-width="0.369269" stroke-miterlimit="10" stroke-linecap="round" stroke-linejoin="round"/>
<path d="M103.632 40.0258C103.669 39.6935 103.742 39.3612 103.779 39.0288" stroke="#2E2854" stroke-width="0.369269" stroke-miterlimit="10" stroke-linecap="round" stroke-linejoin="round"/>
<path d="M102.561 39.9889C102.561 39.8043 102.524 39.5827 102.524 39.3981" stroke="#2E2854" stroke-width="0.369269" stroke-miterlimit="10" stroke-linecap="round" stroke-linejoin="round"/>
<path d="M95.6186 42.0198C95.5817 42.5368 95.5817 43.0168 95.5448 43.6076C96.0248 43.6446 96.5049 43.5707 96.948 43.423" stroke="#2E2854" stroke-width="0.369269" stroke-miterlimit="10" stroke-linecap="round" stroke-linejoin="round"/>
<path d="M96.1356 46.931C97.465 47.0787 98.7944 46.7464 99.9022 46.0448C101.01 45.3432 101.859 44.2354 102.302 42.9799" stroke="#2E2854" stroke-width="0.369269" stroke-miterlimit="10" stroke-linecap="round" stroke-linejoin="round"/>
<path d="M87.9747 42.426C87.347 41.9459 86.3869 41.9459 85.7222 42.3521C85.0575 42.7583 84.6513 43.4969 84.5774 44.2354C84.5036 44.974 84.6882 45.7125 84.9836 46.4141C85.4268 47.4111 86.0545 48.3343 86.9038 49.1098C87.4947 49.6637 88.1963 50.1437 89.0087 50.1806C89.8211 50.2545 90.7442 49.7006 90.7812 48.9621L87.9747 42.426Z" fill="#EA9261"/>
<path d="M110.02 38.5857C110.574 37.441 111.534 36.4439 112.716 35.9639C113.897 35.4838 115.338 35.5208 116.445 36.1854C117.332 36.7393 117.959 37.6256 118.329 38.5857C118.919 40.0628 118.919 41.7983 118.255 43.2754C117.59 44.7525 116.261 45.8972 114.71 46.2665C113.159 46.6358 111.386 46.1557 110.316 44.974L110.02 38.5857Z" fill="#EA9261"/>
<path d="M112.494 38.8073C113.934 38.3641 115.596 38.8811 116.556 40.0628" stroke="#2E2854" stroke-width="0.369269" stroke-miterlimit="10" stroke-linecap="round" stroke-linejoin="round"/>
<path d="M113.565 41.7983C114.341 41.0228 114.858 39.9888 114.968 38.918" stroke="#2E2854" stroke-width="0.369269" stroke-miterlimit="10" stroke-linecap="round" stroke-linejoin="round"/>
<path d="M138.343 112.255C139.672 112.292 141.039 112.292 142.257 111.701C143.365 111.147 144.251 109.891 143.993 108.673C143.993 108.673 143.66 106.088 141.962 104.352C140.263 102.617 134.207 104.759 134.207 104.759L138.343 112.255Z" fill="#CF6B07"/>
<path d="M86.0176 86.9599C82.5834 89.0278 78.1153 87.0707 75.1242 84.4489C68.5143 78.6144 65.3016 69.1242 66.8526 60.5572C64.4523 60.0771 62.089 59.5601 59.578 59.0062C58.027 63.4005 57.7316 68.2379 58.3594 72.8538C58.9871 77.5066 60.5381 81.9748 62.569 86.1844C64.2307 89.6555 66.2248 92.979 68.8466 95.7854C71.4684 98.5919 74.718 100.881 78.4107 101.952L94.9539 101.14C94.9539 101.14 96.3202 95.97 94.1046 91.6865C91.889 87.403 86.0176 86.9599 86.0176 86.9599Z" fill="#EA9261"/>
<path d="M60.9073 56.8645C60.8704 57.8246 60.8704 58.7847 60.6858 59.7079C60.6488 59.9295 60.6119 60.151 60.4642 60.2987C60.3534 60.4834 60.1319 60.5941 59.9103 60.5572C59.6149 60.5203 59.4672 60.1879 59.3933 59.8925C59.061 58.7847 59.024 57.5661 59.2456 56.4214C59.2825 56.1998 59.3564 55.9783 59.4672 55.7567C59.578 55.5721 59.7995 55.3874 60.0211 55.3874C60.3165 55.3505 60.6119 55.609 60.7227 55.8675C60.8704 56.1998 60.9073 56.4953 60.9073 56.8645Z" fill="#EA9261"/>
<path d="M60.9073 56.8645C60.8704 57.8246 60.8704 58.7847 60.6858 59.7079C60.6488 59.9295 60.6119 60.151 60.4642 60.2987C60.3534 60.4834 60.1319 60.5941 59.9103 60.5572C59.6149 60.5203 59.4672 60.1879 59.3933 59.8925C59.061 58.7847 59.024 57.5661 59.2456 56.4214C59.2825 56.1998 59.3564 55.9783 59.4672 55.7567C59.578 55.5721 59.7995 55.3874 60.0211 55.3874C60.3165 55.3505 60.6119 55.609 60.7227 55.8675C60.8704 56.1998 60.9073 56.4953 60.9073 56.8645Z" stroke="#2E2854" stroke-width="0.369269" stroke-miterlimit="10" stroke-linecap="round" stroke-linejoin="round"/>
<path d="M64.8954 54.8704C64.9324 53.2456 65.0801 51.5839 65.4494 49.9592C65.5232 49.5899 65.7078 49.1468 66.151 49.036C66.4833 48.9621 66.8526 49.1098 67.0372 49.3683C67.2218 49.5899 67.2588 49.8853 67.2957 50.1438C67.4803 51.7686 67.4803 53.4672 67.2588 55.092L64.8954 54.8704Z" fill="#EA9261"/>
<path d="M94.1046 91.6865C94.1046 91.6496 94.1046 91.6496 94.1046 91.6865C92.3321 90.394 89.9319 88.7693 87.864 87.2922C86.7931 87.0337 86.0176 86.9598 86.0176 86.9598C84.0975 88.1046 81.808 87.9938 79.6662 87.2183C80.7002 89.397 83.5805 94.7883 87.7901 97.3732C84.9468 98.6657 81.1064 99.3304 76.3797 97.6317C68.3297 94.7884 62.5322 84.7073 59.7626 78.9836C60.5012 81.4577 61.4982 83.858 62.606 86.1844C64.2677 89.6555 66.2618 92.9789 68.8836 95.7854C71.5054 98.5918 74.7549 100.881 78.4476 101.952L90.3381 101.361C92.1475 100.475 93.8462 99.5888 95.3602 98.8503C95.4709 96.967 95.3971 94.1606 94.1046 91.6865Z" fill="#D95243"/>
<path d="M96.6157 63.7698C93.4399 67.5732 91.5567 72.4107 90.5227 77.285C89.7842 80.9039 89.1564 85.0766 85.9807 86.9599C85.9807 86.9599 88.2702 95.6008 94.917 101.103C94.917 101.103 103.853 100.807 107.214 91.5757C110.574 82.3809 96.6157 63.7698 96.6157 63.7698Z" fill="#EB5E0E"/>
<path opacity="0.15" d="M96.4679 83.9688C93.2922 82.5286 91.0028 80.2761 90.1534 79.3529C89.7473 81.1623 89.2672 83.0087 88.4179 84.4858L95.5817 87.6246C95.0278 89.5448 94.5108 90.948 94.2154 91.6865C92.1106 90.2094 89.0826 88.1046 86.7562 86.4798C86.5346 86.6645 86.3131 86.8122 86.0915 86.9599C86.0915 86.9599 88.0486 94.2714 93.5507 99.7366C97.2803 97.8902 100.124 96.487 100.161 96.487C100.271 96.487 102.967 85.6674 102.967 85.6674L97.7973 70.5643C97.8342 75.8079 97.2065 80.3869 96.4679 83.9688Z" fill="#2E2854"/>
<path d="M85.9438 97.004L88.5287 119.603C90.7074 120.711 93.44 122.077 96.468 123.222C96.468 123.222 98.979 117.314 98.2404 110.815C97.5019 104.315 92.5537 96.7085 92.5537 96.7085C90.3012 96.5978 88.1225 96.6716 85.9438 97.004Z" fill="#EA9261"/>
<path d="M96.4311 123.222C96.4311 123.222 97.4281 120.859 97.982 117.498C95.434 117.018 93.6615 116.501 93.6615 116.501L91.409 121.043C92.9599 121.782 94.6586 122.557 96.4311 123.222Z" fill="#D95243"/>
<path d="M87.3101 96.8194C88.9349 98.2595 91.8891 100.623 95.5448 102.358C94.0308 99.1089 92.4799 96.7086 92.4799 96.7086C90.7443 96.6348 89.0457 96.6348 87.3101 96.8194Z" fill="#D95243"/>
<path d="M108.802 99.995C103.484 98.481 97.982 97.0039 92.5168 96.7085C95.3602 105.239 96.6895 114.249 96.468 123.222C100.751 124.847 105.663 126.065 110.463 125.548L121.984 102.063C117.627 101.361 113.27 100.66 108.802 99.995Z" fill="#5767BF"/>
<path opacity="0.15" d="M112.051 116.981C107.546 119.16 100.271 118.052 96.3572 117.203C96.468 119.234 96.5049 121.228 96.431 123.259C100.715 124.884 105.626 126.102 110.426 125.585L114.747 116.797C114.193 116.354 113.344 116.354 112.051 116.981Z" fill="#2E2854"/>
<path opacity="0.15" d="M121.984 102.063C117.627 101.324 113.27 100.623 108.802 99.995C103.484 98.481 97.982 97.0039 92.5168 96.7085C93.0338 98.2964 93.5138 99.9211 93.9569 101.509C97.7604 103.577 102.598 105.165 107.546 104.057C109.503 105.202 113.713 107.233 119.178 107.787L121.984 102.063Z" fill="#2E2854"/>
<path d="M100.271 123.739C101.084 115.061 100.05 106.199 97.3173 97.9271" stroke="#2E2854" stroke-width="0.369269" stroke-miterlimit="10" stroke-linecap="round" stroke-linejoin="round"/>
<path d="M108.802 99.995C103.484 98.481 97.982 97.0039 92.5168 96.7085" stroke="#2E2854" stroke-width="0.369269" stroke-miterlimit="10" stroke-linecap="round" stroke-linejoin="round"/>
<path d="M92.4798 96.7085C90.3012 96.5978 88.0855 96.6716 85.9069 97.004" stroke="#2E2854" stroke-width="0.369269" stroke-miterlimit="10" stroke-linecap="round" stroke-linejoin="round"/>
<path d="M96.1725 148.369C95.9509 137.697 95.1016 127.063 93.6615 116.501L85.9437 97.004C82.9157 97.4841 79.8877 98.518 77.6721 100.66C74.1641 104.02 73.4255 109.264 73.3147 114.101C73.0563 126.213 75.7889 139.064 79.0384 151.213L89.858 154.832L96.1725 148.369Z" fill="#EA9261"/>
<path d="M78.6322 103.06C77.5983 103.577 77.0813 104.906 77.4506 105.977" stroke="#2E2854" stroke-width="0.369269" stroke-miterlimit="10" stroke-linecap="round" stroke-linejoin="round"/>
<path d="M96.1725 148.369C90.4858 148.739 84.5406 149.736 79.0385 151.213C80.0355 154.942 81.1064 158.635 82.1403 162.217L90.4119 165.762L96.1356 162.069C96.2833 157.49 96.2833 152.948 96.1725 148.369Z" fill="white"/>
<path d="M81.9188 151.73C82.0295 152.21 82.1773 152.616 82.288 153.096" stroke="#D2D4E0" stroke-width="0.369269" stroke-miterlimit="10" stroke-linecap="round" stroke-linejoin="round"/>
<path d="M84.5405 151.36C84.6513 151.767 84.7621 152.136 84.8729 152.542" stroke="#D2D4E0" stroke-width="0.369269" stroke-miterlimit="10" stroke-linecap="round" stroke-linejoin="round"/>
<path d="M87.3839 150.917C87.4947 151.287 87.6055 151.693 87.7163 152.062" stroke="#D2D4E0" stroke-width="0.369269" stroke-miterlimit="10" stroke-linecap="round" stroke-linejoin="round"/>
<path d="M90.2642 150.437C90.3381 150.77 90.4858 151.36 90.5596 151.73" stroke="#D2D4E0" stroke-width="0.369269" stroke-miterlimit="10" stroke-linecap="round" stroke-linejoin="round"/>
<path d="M92.8491 150.179C92.923 150.585 92.9968 150.954 93.0707 151.323" stroke="#D2D4E0" stroke-width="0.369269" stroke-miterlimit="10" stroke-linecap="round" stroke-linejoin="round"/>
<path d="M96.1356 162.069L82.1403 162.217C82.1403 162.217 77.7829 165.762 76.1581 167.46H95.951C96.0248 165.688 96.0987 163.879 96.1356 162.069Z" fill="#2E2854"/>
<path d="M96.1356 162.069C96.2464 157.49 96.2833 152.948 96.1725 148.369C95.951 137.697 95.1016 127.062 93.6615 116.501" stroke="#2E2854" stroke-width="0.369269" stroke-miterlimit="10" stroke-linecap="round" stroke-linejoin="round"/>
<path d="M85.9437 97.004C82.9157 97.4841 79.8877 98.518 77.6721 100.66C74.1641 104.02 73.4255 109.264 73.3147 114.101C73.0563 126.213 75.7889 139.064 79.0384 151.213" stroke="#2E2854" stroke-width="0.369269" stroke-miterlimit="10" stroke-linecap="round" stroke-linejoin="round"/>
<path d="M78.6322 103.06C77.5983 103.577 77.0813 104.906 77.4506 105.977" stroke="#2E2854" stroke-width="0.369269" stroke-miterlimit="10" stroke-linecap="round" stroke-linejoin="round"/>
<path d="M118.809 149.625C118.809 149.625 110.685 150.253 105.33 154.093C99.976 157.934 97.6496 161.737 97.6496 161.737C97.945 162.254 98.3143 162.734 98.7205 163.177C100.825 165.54 104.001 166.648 107.103 167.128C112.088 167.904 117.184 167.387 122.206 166.722C127.523 166.021 132.656 165.208 137.826 164.248L144.916 159.152L135.98 148.333C130.182 148.406 124.459 148.813 118.809 149.625Z" fill="#EA9261"/>
<path d="M143.144 160.371C138.934 161.146 132.878 162.254 125.788 163.62C114.119 165.873 101.822 163.546 98.2773 162.734C98.3881 162.882 98.5358 163.066 98.6466 163.214C100.751 165.577 103.927 166.685 107.029 167.165C112.014 167.941 117.11 167.424 122.132 166.759C127.45 166.057 132.582 165.245 137.752 164.285L143.144 160.371Z" fill="#D95243"/>
<path d="M115.559 153.17C115.559 153.17 125.493 150.77 137.42 150.105L135.943 148.332C130.219 148.406 124.496 148.812 118.809 149.625C118.809 149.625 117.59 149.736 115.818 150.068L115.559 153.17Z" fill="#D95243"/>
<path d="M147.427 148.702C143.587 148.406 139.746 148.295 135.906 148.332C135.98 153.687 136.607 159.041 137.752 164.248C141.113 163.62 144.473 162.955 147.907 162.254L150.012 155.275L147.427 148.702Z" fill="white"/>
<path opacity="0.15" d="M148.793 159.337C147.316 159.595 143.107 160.371 137.198 161.441C137.383 162.365 137.568 163.288 137.752 164.211C141.113 163.583 144.473 162.919 147.907 162.217L148.793 159.337Z" fill="#2E2854"/>
<path opacity="0.15" d="M135.906 148.332C135.906 148.96 135.943 149.588 135.943 150.216C139.783 149.957 143.882 149.846 147.944 150.068L147.427 148.739C143.587 148.406 139.746 148.296 135.906 148.332Z" fill="#2E2854"/>
<path d="M139.229 150.733C138.749 150.843 138.343 150.954 137.826 151.028" stroke="#D2D4E0" stroke-width="0.369269" stroke-miterlimit="10" stroke-linecap="round" stroke-linejoin="round"/>
<path d="M139.451 153.354C139.045 153.428 138.638 153.539 138.269 153.613" stroke="#D2D4E0" stroke-width="0.369269" stroke-miterlimit="10" stroke-linecap="round" stroke-linejoin="round"/>
<path d="M139.709 156.235C139.34 156.309 138.934 156.419 138.565 156.493" stroke="#D2D4E0" stroke-width="0.369269" stroke-miterlimit="10" stroke-linecap="round" stroke-linejoin="round"/>
<path d="M140.005 159.152C139.672 159.189 139.045 159.337 138.712 159.374" stroke="#D2D4E0" stroke-width="0.369269" stroke-miterlimit="10" stroke-linecap="round" stroke-linejoin="round"/>
<path d="M140.152 161.737C139.746 161.774 139.377 161.848 138.971 161.885" stroke="#D2D4E0" stroke-width="0.369269" stroke-miterlimit="10" stroke-linecap="round" stroke-linejoin="round"/>
<path d="M152.744 149.219C150.972 148.997 149.199 148.849 147.427 148.702L147.907 162.217C147.907 162.217 153.225 167.313 153.778 167.461C153.778 161.22 153.446 155.238 152.744 149.219Z" fill="#2E2854"/>
<path d="M118.033 134.522L102.45 135.039C100.751 138.658 99.2005 142.35 97.9081 146.117C96.911 148.923 96.0617 151.84 95.9879 154.832C95.914 157.232 96.431 159.669 97.6496 161.7L115.596 153.133C118.033 151.471 120.47 149.809 122.834 148.037L118.033 134.522Z" fill="#EA9261"/>
<path d="M115.559 153.17C117.996 151.508 120.433 149.846 122.797 148.074" stroke="#2E2854" stroke-width="0.369269" stroke-miterlimit="10" stroke-linecap="round" stroke-linejoin="round"/>
<path d="M99.4959 157.084C98.7574 158.007 98.7204 159.411 99.3851 160.408" stroke="#2E2854" stroke-width="0.369269" stroke-miterlimit="10" stroke-linecap="round" stroke-linejoin="round"/>
<path d="M102.487 135.039C100.788 138.658 99.2375 142.35 97.945 146.117C96.948 148.923 96.0987 151.84 96.0248 154.832C95.951 157.158 96.431 159.521 97.5757 161.515" stroke="#2E2854" stroke-width="0.369269" stroke-miterlimit="10" stroke-linecap="round" stroke-linejoin="round"/>
<path d="M121.984 102.063L114.821 112.144C110.5 119.64 106.143 127.21 102.487 135.039C108.691 140.172 115.522 144.566 122.797 148.074C125.751 145.858 128.594 143.495 131.179 140.836C135.832 136.073 139.635 130.386 141.297 123.924C142.922 117.498 142.22 110.298 137.161 104.685C132.065 103.799 127.043 102.912 121.984 102.063Z" fill="#5767BF"/>
<path opacity="0.15" d="M139.34 107.713C138.712 106.679 137.974 105.645 137.124 104.685C132.102 103.799 127.08 102.912 121.984 102.063L117.996 107.639C117.996 107.639 129.222 109.079 139.34 107.713Z" fill="#2E2854"/>
<path d="M105.109 131.863C111.682 136.479 118.366 140.947 125.197 145.23" stroke="#2E2854" stroke-width="0.369269" stroke-miterlimit="10" stroke-linecap="round" stroke-linejoin="round"/>
<path d="M123.129 108.747C123.166 111.775 123.277 115.061 125.234 117.388C126.785 119.234 129.407 120.083 131.77 119.566" stroke="#2E2854" stroke-width="0.369269" stroke-miterlimit="10" stroke-linecap="round" stroke-linejoin="round"/>
<path d="M114.821 112.144C110.5 119.64 106.143 127.21 102.487 135.039" stroke="#2E2854" stroke-width="0.369269" stroke-miterlimit="10" stroke-linecap="round" stroke-linejoin="round"/>
<path d="M122.76 148.074C125.714 145.858 128.557 143.495 131.142 140.836C135.795 136.073 139.599 130.386 141.26 123.924C142.885 117.498 142.183 110.298 137.124 104.685" stroke="#2E2854" stroke-width="0.369269" stroke-miterlimit="10" stroke-linecap="round" stroke-linejoin="round"/>
<path d="M139.008 80.9407C136.718 73.2599 133.542 65.3576 127.228 60.4463C123.018 57.1598 117.553 55.4981 112.236 55.8305L107.14 62.5512L98.4989 61.7757C98.0557 62.1819 97.6126 62.625 97.2064 63.1051C97.0218 63.3266 96.8372 63.5482 96.6525 63.7697L97.7603 70.5643C99.0528 79.5375 99.6436 88.5846 99.422 97.6317C100.382 97.8163 101.305 98.0379 102.228 98.2594C105.81 101.952 110.906 104.02 115.928 105.091C120.95 106.162 126.12 106.125 131.253 105.903C134.576 105.756 138.011 105.497 141.223 106.42C142.368 106.753 143.587 107.343 143.956 108.488C143.993 108.562 143.993 108.636 144.03 108.71C143.107 99.0349 141.777 90.2463 139.008 80.9407Z" fill="#EB5E0E"/>
<path opacity="0.15" d="M129.998 65.5791L128.89 69.3826L114.821 89.3969L99.4221 92.5357C99.4221 94.2344 99.4221 95.933 99.3851 97.6316C100.345 97.8163 101.268 98.0378 102.192 98.2594C104.333 100.475 107.066 102.1 109.946 103.281C114.858 102.026 120.212 98.9979 125.825 93.1266L129.444 93.9759C129.444 93.9759 135.647 78.5404 129.998 65.5791Z" fill="#2E2854"/>
<path opacity="0.15" d="M99.1266 84.5595C99.1636 85.4458 99.2374 86.3689 99.2744 87.2552L110.094 86.5167C110.094 86.5167 116.076 80.7191 116.113 80.4606C116.15 80.2022 112.716 65.2098 112.716 65.2098C112.716 65.2098 112.162 77.9127 107.989 81.6423C104.924 84.4487 100.973 84.6334 99.1266 84.5595Z" fill="#2E2854"/>
<path d="M97.7234 70.5643C99.0159 79.5376 99.6067 88.5847 99.3852 97.6317" stroke="#2E2854" stroke-width="0.369269" stroke-miterlimit="10" stroke-linecap="round" stroke-linejoin="round"/>
<path d="M107.657 64.1021C110.759 62.7728 112.679 59.1909 112.236 55.8674C112.051 55.8674 111.866 55.9044 111.682 55.9044C106.807 56.3475 102.081 58.4523 98.4989 61.8127C100.641 64.3975 104.555 65.4315 107.657 64.1021Z" fill="#EA9261"/>
<path d="M80.737 57.6029L78.5214 60.8894L81.8079 63.1789C81.8079 61.0002 81.4756 59.3385 80.8478 57.7875" fill="#EA9261"/>
<path d="M81.291 54.7596C81.1063 57.123 80.774 59.4863 80.257 61.7757C79.9985 62.9205 78.9646 63.7329 77.8199 63.7329C72.6501 63.7698 67.665 63.4375 62.7537 62.7358C61.572 62.5512 60.6489 61.5542 60.575 60.3725C60.4642 58.1938 60.5381 55.9782 60.7966 53.8365C60.9443 52.6548 61.9044 51.7316 63.086 51.6209C68.2927 51.2147 73.5733 51.2885 79.0754 51.9901C80.4417 52.2486 81.4018 53.4303 81.291 54.7596Z" fill="#623B8C"/>
<path d="M63.9723 53.1717C63.1968 52.9871 62.3475 53.541 62.1259 54.3164C61.9413 55.0919 62.4214 55.9781 63.1968 56.1997C63.9723 56.4213 64.8585 55.9781 65.117 55.2027C65.3386 54.4272 64.9693 53.3932 63.9723 53.1717Z" stroke="#2E2854" stroke-width="0.369269" stroke-miterlimit="10" stroke-linecap="round" stroke-linejoin="round"/>
<path d="M64.083 54.0949C63.8614 53.8733 63.4552 53.8364 63.1968 54.021C62.9383 54.2057 62.7906 54.538 62.8644 54.8704C62.9383 55.1658 63.1968 55.4243 63.5291 55.4612C63.8245 55.4981 64.1569 55.3504 64.3046 55.055C64.4523 54.7596 64.4153 54.3903 64.083 54.0949Z" fill="#F1DEDC"/>
<path d="M81.808 63.142C83.3958 66.7239 84.6144 70.4905 86.2761 74.0355C87.9378 77.5804 90.1534 81.0146 93.3661 83.3041C96.5418 85.5936 100.862 86.6275 104.518 85.2243C106.512 84.4488 108.174 83.0087 109.429 81.2731L118.55 84.1904L124.68 90.911C121.024 95.8223 115.596 99.4042 109.614 100.697C102.007 102.358 93.6615 100.254 87.7532 95.1946C83.5435 91.6127 80.5894 86.7014 78.5584 81.5316C76.5274 76.3619 75.3458 70.9336 74.201 65.5053C72.7239 63.8067 71.8377 62.4035 71.0253 60.9633C70.9145 60.7418 70.8038 60.5202 70.7668 60.2987C70.7299 60.0402 70.8407 59.7817 71.0622 59.6709C71.3577 59.5232 71.69 59.7448 71.9485 59.9663C72.8717 60.8156 73.684 61.7757 74.3487 62.8466C73.3517 60.8895 72.4285 59.0062 71.6531 57.0491C71.5054 56.6429 71.3577 56.1628 71.69 55.8674C71.9116 55.6828 72.207 55.6828 72.4655 55.8305C72.7239 55.9413 72.8717 56.1628 73.0563 56.3844C74.2749 57.9723 75.1981 59.7078 76.1212 61.4803C75.2719 59.3386 74.3487 57.3076 73.7579 55.2027C73.684 54.9812 73.6471 54.7965 73.684 54.575C73.721 54.3534 73.8318 54.1319 74.0164 54.058C74.201 53.9842 74.4226 54.0211 74.6072 54.1319C74.7919 54.2426 74.9026 54.4273 75.0503 54.575C76.3428 56.3844 77.1552 58.4523 77.9676 60.4833C77.266 58.5631 76.6751 56.6798 76.3059 54.7596C76.232 54.3904 76.232 53.9472 76.5643 53.7995C76.7859 53.6887 77.0444 53.7995 77.229 53.9472C77.5983 54.2426 77.8199 54.6858 78.0414 55.1289C78.743 56.6798 79.3708 58.2677 79.9247 59.8555" fill="#EA9261"/>
<path d="M124.68 90.911C121.024 95.8223 115.596 99.4042 109.614 100.697C102.007 102.358 93.6615 100.254 87.7532 95.1946C83.5435 91.6127 80.5894 86.7014 78.5584 81.5316C76.5274 76.3619 75.3458 70.9336 74.201 65.5053C72.7239 63.8067 71.8377 62.4035 71.0253 60.9633C70.9145 60.7418 70.8038 60.5202 70.7668 60.2987C70.7299 60.0402 70.8407 59.7817 71.0622 59.6709C71.3577 59.5232 71.69 59.7448 71.9485 59.9663C72.8717 60.8156 73.684 61.7757 74.3487 62.8466C73.3517 60.8895 72.4285 59.0062 71.6531 57.0491C71.5054 56.6429 71.3577 56.1628 71.69 55.8674C71.9116 55.6828 72.207 55.6828 72.4655 55.8305C72.7239 55.9413 72.8717 56.1628 73.0563 56.3844C74.2749 57.9723 75.1981 59.7078 76.1212 61.4803C75.2719 59.3386 74.3487 57.3076 73.7579 55.2027C73.684 54.9812 73.6471 54.7965 73.684 54.575C73.721 54.3534 73.8318 54.1319 74.0164 54.058C74.201 53.9842 74.4226 54.0211 74.6072 54.1319C74.7919 54.2426 74.9026 54.4273 75.0503 54.575C76.3428 56.3844 77.1552 58.4523 77.9676 60.4833C77.266 58.5631 76.6751 56.6798 76.3059 54.7596C76.232 54.3904 76.232 53.9472 76.5643 53.7995C76.7859 53.6887 77.0444 53.7995 77.229 53.9472C77.5983 54.2426 77.8199 54.6858 78.0414 55.1289C78.743 56.6798 79.3708 58.2677 79.9247 59.8555" stroke="#2E2854" stroke-width="0.369269" stroke-miterlimit="10" stroke-linecap="round" stroke-linejoin="round"/>
<path d="M129.998 65.5791C133.026 74.1092 132.582 83.821 128.816 92.0188C121.504 90.394 114.636 86.6274 109.429 81.2361C110.426 79.8698 111.165 78.282 111.682 76.6572C112.79 72.9645 112.79 69.0502 112.753 65.2098L129.998 65.5791Z" fill="#EB5E0E"/>
<path d="M111.091 79.9806C116.408 84.2272 122.649 87.2921 129.259 88.9169" stroke="#2E2854" stroke-width="0.369269" stroke-miterlimit="10" stroke-linecap="round" stroke-linejoin="round"/>
<path d="M129.998 65.5791C133.026 74.1092 132.582 83.821 128.816 92.0188C121.504 90.394 114.636 86.6274 109.429 81.2361C110.426 79.8698 111.165 78.282 111.682 76.6572C112.79 72.9645 112.79 69.0502 112.753 65.2098" stroke="#2E2854" stroke-width="0.369269" stroke-miterlimit="10" stroke-linecap="round" stroke-linejoin="round"/>
<path d="M14.1948 167.497H199.457" stroke="#2E2854" stroke-width="0.369269" stroke-miterlimit="10" stroke-linecap="round" stroke-linejoin="round"/>
<path d="M34.9847 151.028C33.9507 150.326 32.3629 150.511 31.5135 151.434C30.6642 152.357 30.6273 153.945 31.4397 154.905C31.8459 155.385 32.3998 155.718 33.0275 155.755C33.7661 155.792 34.4677 155.422 34.9847 154.905C35.5016 154.388 35.834 153.724 35.8709 153.022C35.9448 152.32 35.7232 151.508 34.9847 151.028Z" fill="#9FC9C7"/>
<path d="M49.1277 116.981C48.0937 116.28 46.5059 116.464 45.6566 117.388C44.8072 118.311 44.7703 119.899 45.5827 120.859C45.9889 121.339 46.5428 121.671 47.1706 121.708C47.9091 121.745 48.6107 121.376 49.1277 120.859C49.6447 120.342 49.977 119.677 50.0139 118.975C50.0878 118.311 49.8662 117.498 49.1277 116.981Z" fill="#F1DEDC"/>
<path d="M52.451 134.522C51.971 134.559 51.491 134.152 51.454 133.635C51.4171 133.155 51.7864 132.675 52.2664 132.601C52.7465 132.528 53.2634 132.897 53.3742 133.34C53.485 133.857 53.1527 134.485 52.451 134.522Z" fill="#F1DEDC"/>
<path d="M150.049 66.6501C149.569 66.687 149.089 66.2808 149.052 65.7639C149.015 65.2838 149.384 64.8038 149.864 64.7299C150.344 64.6561 150.861 65.0253 150.972 65.4685C151.083 65.9854 150.75 66.6132 150.049 66.6501Z" fill="#F1DEDC"/>
<path d="M74.6441 44.974C74.1641 45.0109 73.684 44.6047 73.6471 44.0877C73.6102 43.6077 73.9794 43.1276 74.4595 43.0538C74.9395 42.9799 75.4565 43.3492 75.5673 43.7923C75.6411 44.2724 75.3457 44.937 74.6441 44.974Z" fill="#F1DEDC"/>
<path d="M57.0669 84.4858C56.5868 84.5227 56.1068 84.1165 56.0699 83.5996C56.0329 83.1195 56.4022 82.6395 56.8823 82.5656C57.3623 82.4918 57.8793 82.861 57.9901 83.3041C58.0639 83.7842 57.7685 84.4489 57.0669 84.4858Z" fill="#F1DEDC"/>
<path d="M175.307 105.682C174.827 105.719 174.347 105.313 174.31 104.796C174.273 104.316 174.642 103.836 175.122 103.762C175.602 103.688 176.119 104.057 176.23 104.5C176.304 104.98 176.008 105.645 175.307 105.682Z" fill="#F1DEDC"/>
<path d="M195.321 120.822C195.1 121.819 195.469 122.927 196.318 123.518C197.168 124.108 198.386 124.071 199.125 123.37C199.642 122.853 199.863 122.114 199.863 121.413C199.863 120.711 199.642 119.973 199.199 119.456C198.645 118.828 197.758 118.569 196.946 118.754C196.171 118.976 195.58 119.64 195.321 120.822Z" fill="#9FC9C7"/>
<path d="M194.324 114.47C193.992 114.655 193.549 114.877 193.216 114.692C193.032 114.581 192.921 114.323 192.884 114.101C192.847 113.695 193.032 113.252 193.401 113.03C193.77 112.809 194.287 112.919 194.546 113.252C194.767 113.584 194.767 114.212 194.324 114.47Z" fill="#9FC9C7"/>
<path d="M191.37 126.324C191.038 126.509 190.595 126.73 190.262 126.546C190.078 126.435 189.967 126.176 189.93 125.955C189.893 125.549 190.078 125.105 190.447 124.884C190.816 124.662 191.333 124.773 191.592 125.105C191.813 125.438 191.813 126.065 191.37 126.324Z" fill="#9FC9C7"/>
<path d="M17.2967 108.599C16.9643 108.784 16.5212 109.005 16.1888 108.821C16.0042 108.71 15.8934 108.451 15.8565 108.23C15.8196 107.824 16.0042 107.38 16.3735 107.159C16.7427 106.937 17.2597 107.048 17.5182 107.38C17.7398 107.713 17.7398 108.341 17.2967 108.599Z" fill="#9FC9C7"/>
<path d="M117.442 27.9507C117.11 28.1353 116.667 28.3569 116.335 28.1722C116.15 28.0615 116.039 27.803 116.002 27.5814C115.965 27.1752 116.15 26.7321 116.519 26.5105C116.888 26.289 117.405 26.3998 117.664 26.7321C117.885 27.0644 117.885 27.6922 117.442 27.9507Z" fill="#F1C1BC"/>
<path d="M135.093 59.117C134.65 58.9324 134.17 58.7108 133.764 58.4154C133.358 58.12 133.026 57.7138 132.915 57.2337C132.73 56.4952 133.062 55.6459 133.69 55.2028C134.318 54.7227 135.13 54.6119 135.906 54.7966C136.681 54.9812 137.383 55.4243 137.752 56.1259C138.121 56.8276 138.121 57.7138 137.678 58.3785C137.235 59.0062 136.238 59.5971 135.093 59.117Z" fill="#9FC9C7"/>
<path d="M163.453 86.2582C163.601 85.7782 163.749 85.2981 163.97 84.855C164.229 84.4119 164.598 84.0426 165.041 83.858C165.743 83.5626 166.629 83.821 167.146 84.3749C167.663 84.9288 167.885 85.7412 167.811 86.5167C167.737 87.2922 167.368 88.0676 166.703 88.5108C166.075 88.9539 165.152 89.0647 164.487 88.6954C163.859 88.363 163.158 87.4399 163.453 86.2582Z" fill="#F1DEDC"/>
<path d="M142.183 54.7227C141.962 54.5011 141.703 54.2795 141.556 53.9841C141.408 53.6887 141.408 53.3195 141.629 53.061C141.925 52.7655 142.405 52.8025 142.811 52.9871C143.144 53.1717 143.476 53.4302 143.624 53.7626C143.771 54.1318 143.734 54.575 143.476 54.8335C143.217 55.1289 142.7 55.1658 142.183 54.7227Z" fill="#9FC9C7"/>
<path d="M49.0538 56.3105C48.5738 56.0889 47.946 56.1628 47.5029 56.4213C47.0229 56.7167 46.7274 57.1598 46.5428 57.7137C46.2105 58.7477 46.6536 60.0032 47.6137 60.5202C48.2784 60.8525 49.0908 60.7787 49.7185 60.3725C50.3093 59.9663 50.6786 59.1908 50.6048 58.4892C50.5309 57.7137 50.1986 56.8275 49.0538 56.3105Z" fill="#9FC9C7"/>
<path d="M21.6171 112.255C21.1371 112.033 20.5093 112.107 20.0662 112.366C19.5861 112.661 19.2907 113.104 19.1061 113.658C18.7738 114.692 19.2169 115.947 20.177 116.464C20.8417 116.797 21.6541 116.723 22.2818 116.317C22.8726 115.91 23.2419 115.135 23.1681 114.433C23.1311 113.695 22.7619 112.772 21.6171 112.255Z" fill="#9FC9C7"/>
<path d="M60.3903 26.6952C60.7227 31.1634 61.2766 35.5946 62.0151 40.0258C62.0151 40.0258 75.198 38.7703 75.1241 38.7334C74.9395 34.2652 74.4595 29.834 73.6471 25.4397L60.3903 26.6952Z" fill="white"/>
<path d="M72.17 27.286C68.7358 27.6184 65.3016 27.9138 61.9044 28.3569C62.3106 31.6803 62.7537 34.9668 63.5291 38.5118C66.7787 38.401 70.0283 37.9579 73.204 37.2193L72.17 27.286Z" fill="#C6E6FF"/>
<path d="M62.2367 30.9417C62.9383 31.0525 63.7138 30.7201 64.12 30.1662C64.5631 29.5754 64.637 28.7261 64.3046 28.0614C63.4922 28.1722 62.6798 28.246 61.8674 28.3568C62.0151 29.2061 62.1259 30.0924 62.2367 30.9417Z" fill="#FD8309"/>
<path d="M73.204 37.2563L72.9455 34.5975C72.687 34.0436 72.2808 33.5636 71.8008 33.1943C71.0992 32.6773 70.176 32.4558 69.2898 32.5666C69.5483 32.0496 69.7698 31.5695 69.8437 31.0156C69.9175 30.4617 69.8068 29.8709 69.4744 29.4647C68.9574 28.8369 67.9235 28.7631 67.2219 29.2062C66.5203 29.6493 66.1141 30.4617 66.0771 31.311C66.0402 32.1234 66.2618 32.9358 66.631 33.7113C65.5971 33.8221 64.6739 34.4129 64.0462 35.2253C63.6769 35.7423 63.3815 36.3331 63.2707 36.9609C63.3815 37.5148 63.4923 38.0687 63.603 38.6226C66.7787 38.401 70.0283 37.9948 73.204 37.2563Z" fill="#623B8C"/>
<path d="M72.17 27.286C68.7358 27.6184 65.3016 27.9138 61.9044 28.3569C62.3106 31.6803 62.7537 34.9668 63.5291 38.5118C66.7787 38.401 70.0283 37.9579 73.204 37.2193L72.17 27.286Z" stroke="#2E2854" stroke-width="0.369269" stroke-miterlimit="10" stroke-linecap="round" stroke-linejoin="round"/>
<path d="M135.463 32.9728C134.576 37.8841 133.912 42.7953 133.469 47.7435C133.469 47.7435 147.981 50.0699 147.944 50.033C149.015 45.1956 149.717 40.2843 150.086 35.3361L135.463 32.9728Z" fill="white"/>
<path d="M147.944 36.9239C144.177 36.2962 140.374 35.6684 136.607 35.1884C136.127 38.881 135.647 42.5368 135.5 46.5618C139.045 47.3742 142.627 47.8174 146.245 47.8912L147.944 36.9239Z" fill="#C6E6FF"/>
<path d="M147.501 39.8043C147.205 39.8043 146.873 39.9151 146.615 40.0997C146.356 39.1396 145.765 38.4749 145.064 38.2533C144.325 38.0318 143.513 38.2903 142.996 38.8442C142.553 38.2903 142.257 37.9949 141.888 37.921C141.519 37.8102 141.113 37.921 140.817 38.1426C140.817 37.6256 140.743 37.1455 140.411 36.7763C140.116 36.4439 139.599 36.2962 139.155 36.407C139.045 36.0377 138.897 35.7054 138.712 35.4469C138.011 35.3361 137.272 35.2623 136.571 35.1515C136.09 38.8442 135.61 42.4999 135.463 46.525C139.008 47.3374 142.59 47.7805 146.208 47.8543L147.501 39.8043Z" fill="white"/>
<path d="M146.91 40.875C146.762 40.8381 146.615 40.912 146.504 41.0227C145.987 41.4659 145.728 42.0936 145.47 42.6845C145.507 42.1306 145.507 41.6136 145.47 41.1705C145.47 41.0227 145.433 40.875 145.322 40.7643C145.211 40.6535 145.027 40.6535 144.879 40.6904C144.731 40.7273 144.584 40.8381 144.473 40.9489C144.51 40.5058 144.51 40.1365 144.436 39.8042C144.399 39.6934 144.362 39.5457 144.214 39.5087C144.104 39.4718 144.03 39.5087 143.919 39.5826C143.845 39.6565 143.808 39.7303 143.734 39.8411C143.402 40.5427 143.217 41.2812 143.033 42.0567C143.033 41.5767 142.996 41.1335 142.848 40.7273C142.774 40.5427 142.627 40.3211 142.442 40.3211C142.294 40.3211 142.183 40.4319 142.11 40.5427C141.851 40.912 141.63 41.3182 141.519 41.7613C141.703 41.0597 141.666 40.4688 141.556 39.878C141.519 39.7303 141.482 39.5457 141.334 39.4349C141.186 39.3241 140.965 39.3241 140.78 39.4349C140.596 39.5457 140.485 39.6934 140.411 39.878C140.079 40.5058 140.042 41.2443 140.005 41.9459L138.565 44.4939L146.578 45.6386L147.169 41.7613C147.169 41.6136 147.132 41.4659 147.132 41.3182C147.132 41.1335 147.058 40.9489 146.91 40.875Z" fill="#76C9BF"/>
<path d="M136.275 37.9209C135.943 40.6904 135.61 43.5338 135.5 46.5618C137.087 46.9311 138.712 47.2265 140.337 47.4111C140.632 45.6386 140.891 43.7184 140.891 43.7184C140.448 41.2074 138.638 38.9179 136.275 37.9209Z" fill="#49AD9F"/>
<path d="M146.762 44.6047C143.291 42.8322 138.86 43.0168 135.573 45.0848C135.537 45.5648 135.537 46.0449 135.5 46.5618C139.045 47.3742 142.627 47.8173 146.245 47.8912L146.762 44.6047Z" fill="#FD8309"/>
<path d="M147.944 36.9239C144.177 36.2962 140.374 35.6684 136.607 35.1884C136.127 38.881 135.647 42.5368 135.5 46.5618C139.045 47.3742 142.627 47.8174 146.245 47.8912L147.944 36.9239Z" stroke="#2E2854" stroke-width="0.369269" stroke-miterlimit="10" stroke-linecap="round" stroke-linejoin="round"/>
<path d="M34.4677 50.6238C37.7173 54.3904 41.1146 58.0092 44.6965 61.4803C44.6965 61.4803 55.6637 51.6947 55.5899 51.6947C52.488 47.8174 49.1277 44.1616 45.5458 40.7274L34.4677 50.6238Z" fill="white"/>
<path d="M45.398 43.46C42.5177 46.0079 39.6374 48.5559 36.9048 51.1408C39.4528 53.8364 42.0008 56.5321 45.0288 59.1908C47.8721 56.9752 50.4939 54.4272 52.8573 51.6947L45.398 43.46Z" fill="#F3C6FF"/>
<path d="M43.1086 57.4552C43.7363 58.046 44.3641 58.6369 45.0288 59.1908C47.8721 56.9752 50.494 54.4272 52.8573 51.6946L47.6506 45.9709C43.7363 49.3682 43.1086 53.2455 43.1086 53.2455V57.4552Z" fill="#FDD4AA"/>
<path d="M38.7881 53.1349C40.7452 55.1658 42.7393 57.1968 45.0287 59.1909C46.3212 58.1938 47.5767 57.123 48.7583 55.9782C47.5767 54.6119 46.2473 53.2087 46.2473 53.2087C43.9948 51.9532 41.0776 51.9163 38.7881 53.1349Z" fill="#FDB46A"/>
<path d="M50.6047 49.2206C47.0228 50.7715 44.401 54.3534 43.921 58.1938C44.2902 58.5262 44.6595 58.8585 45.0288 59.1539C47.8721 56.9383 50.494 54.3903 52.8573 51.6578L50.6047 49.2206Z" fill="#FD8309"/>
<path d="M45.398 43.46C42.5177 46.0079 39.6374 48.5559 36.9048 51.1408C39.4528 53.8364 42.0008 56.5321 45.0288 59.1908C47.8721 56.9752 50.4939 54.4272 52.8573 51.6947L45.398 43.46Z" stroke="#2E2854" stroke-width="0.369269" stroke-miterlimit="10" stroke-linecap="round" stroke-linejoin="round"/>
<defs>
<linearGradient id="paint0_linear_25_1557" x1="31.6776" y1="123.266" x2="4.36182" y2="141.149" gradientUnits="userSpaceOnUse">
<stop stop-color="#49AD9F"/>
<stop offset="1" stop-color="#76C9BF"/>
</linearGradient>
<linearGradient id="paint1_linear_25_1557" x1="37.5827" y1="111.812" x2="34.1437" y2="74.8666" gradientUnits="userSpaceOnUse">
<stop stop-color="#49AD9F"/>
<stop offset="1" stop-color="#76C9BF"/>
</linearGradient>
<linearGradient id="paint2_linear_25_1557" x1="178.712" y1="94.9315" x2="203.276" y2="92.7698" gradientUnits="userSpaceOnUse">
<stop stop-color="#49AD9F"/>
<stop offset="1" stop-color="#76C9BF"/>
</linearGradient>
<linearGradient id="paint3_linear_25_1557" x1="173.958" y1="82.6693" x2="176.316" y2="44.1522" gradientUnits="userSpaceOnUse">
<stop stop-color="#49AD9F"/>
<stop offset="1" stop-color="#76C9BF"/>
</linearGradient>
</defs>
</svg>
