<svg xmlns="http://www.w3.org/2000/svg" viewBox="0 0 45.8 43.9"><title>Asset 2maiorEMelhor_</title><path d="M44.7,20a3.2,3.2,0,0,0,1.1-2.4,3.1,3.1,0,0,0-3-3.3L32.2,12.7a1.6,1.6,0,0,1-1.5-1.1C29.1,8.4,27.5,5.2,26,2a3.3,3.3,0,0,0-3.1-2,3.4,3.4,0,0,0-3.1,2.1c-1.5,3.2-3.1,6.4-4.7,9.6a1.7,1.7,0,0,1-1.3,1L3.2,14.2a3.3,3.3,0,0,0-2,5.9l7.7,7.4a1.7,1.7,0,0,1,.6,1.6c-.7,3.6-1.3,7.1-1.9,10.7a3.3,3.3,0,0,0,1.2,3.5,3.7,3.7,0,0,0,3.8.1l9.3-5a1.8,1.8,0,0,1,2,0l9.3,5a3.3,3.3,0,0,0,3.8-.2,3.2,3.2,0,0,0,1.2-3.5L36.4,29.2a1.6,1.6,0,0,1,.6-1.7L44.7,20M34.2,25.7a3.6,3.6,0,0,0-1,3.5c.6,3.7,1.3,7.3,1.9,11v.5l-5.5-2.9-4.8-2.5a3.7,3.7,0,0,0-3.8,0L12.1,40a3,3,0,0,1-1.4.6l1.5-8.9a17,17,0,0,1,.4-2.2c.5-1.8-.2-3.1-1.5-4.3L3.5,17.9l-.3-.5,4.9-.7,6.7-1a3.2,3.2,0,0,0,2.9-2.1L22.5,4c.1-.3.1-.6.5-.7L25.4,8l2.7,5.6A3.2,3.2,0,0,0,31,15.7l5.7.9,5.7.8-5.6,5.9-2.6,2.4" style="fill:#161e37"/></svg>