<svg xmlns="http://www.w3.org/2000/svg" viewBox="0 0 50.3 42.3"><title>Asset 3maiorEMelhor_</title><path d="M49.8,39.8a4.3,4.3,0,0,0-.4-.7L32.3,14.8a3,3,0,0,1-.5-1.5V1.8C31.8.5,31.4,0,30.1,0H17.5c-1.2,0-1.7.5-1.7,1.7V8.9c0,1.5.4,1.9,1.9,1.9H28c.3,0,.6-.1.8.2a7,7,0,0,1-.3,3.5L17.7,25.2c-.4.4-.6.4-1,0a27.2,27.2,0,0,0-2.4-2.4,1.4,1.4,0,0,0-2.2.2l-.7.9L.6,39.6c-.6.7-.9,1.4-.3,2.2s1.2.5,1.8.5H48.5c.7,0,1.3-.1,1.6-.7a1.5,1.5,0,0,0-.3-1.8M28.9,7.2c0,.5-.1.7-.7.7H19.3c-.5,0-.6-.2-.6-.7V3.6c0-.6.3-.7.8-.7h4.3c1.5,0,2.9.1,4.4,0s.7.2.7.8V7.2M4.5,39.4c-.1-.4.2-.6.3-.8,2.7-3.9,5.5-7.8,8.1-11.7.5-.6.7-.7,1.2-.1l1.8,1.7c1,1,1.7,1,2.7,0L29.4,17.7c.6-.7.9-.7,1.4.1L45.5,38.7l.4.7Z" style="fill:#ea5b0a"/></svg>