<svg xmlns="http://www.w3.org/2000/svg" viewBox="0 0 51.8 28.3"><title>Asset 1maiorEMelhor_</title><path d="M51.4,13.4A37.4,37.4,0,0,0,35.9,2,25.8,25.8,0,0,0,21.9.3C13,1.9,6.1,6.7.4,13.4a1,1,0,0,0-.1,1.5,46.1,46.1,0,0,0,7.2,6.8c5.5,4,11.5,6.5,18.4,6.6A28.3,28.3,0,0,0,30,28c8.8-1.6,15.7-6.4,21.4-13.1.5-.6.5-.9,0-1.5m-4.8,1.4c-5.1,5-10.8,8.6-18.1,9.6l-2.5.2c-6.8-.1-12.4-2.8-17.5-6.9-1.2-.9-2.2-2-3.3-2.9s-.5-.8,0-1.2c5.1-5.1,11-8.9,18.4-9.8A25,25,0,0,1,37.5,6.7a39.5,39.5,0,0,1,9,6.8c.4.4.7.7.1,1.3" style="fill:#00a19a"/><path d="M25.8,21.9a7.7,7.7,0,0,1-7.6-8.5c0-.7.1-.9.9-.5a2.5,2.5,0,0,0,3.3-.9,2.4,2.4,0,0,0-.6-3.3c-1.1-.7-.4-.9.1-1.2a7.9,7.9,0,0,1,8.9.6,8,8,0,0,1,2.4,8.7,7.8,7.8,0,0,1-7.4,5.1" style="fill:#00a19a"/></svg>