<svg width="87" height="58" viewBox="0 0 87 58" fill="none" xmlns="http://www.w3.org/2000/svg">
<g clip-path="url(#clip0_5_75)">
<path d="M27.9795 17.0537H28.5748C28.6375 17.5816 28.8888 18.0675 29.281 18.4188C29.6731 18.77 30.1786 18.962 30.7009 18.9582C31.0541 18.9705 31.4044 18.8891 31.7174 18.7222C32.0305 18.5553 32.2956 18.3085 32.4868 18.006C34.9512 19.149 36.9393 21.1421 38.0997 23.6328H39.5455C38.953 22.0844 38.0604 20.6732 36.9207 19.4834C35.7811 18.2936 34.4178 17.3495 32.912 16.7075C32.89 16.1257 32.6474 15.5752 32.2351 15.1716C31.8228 14.7681 31.2729 14.5429 30.7009 14.5433C30.3184 14.5422 29.9428 14.6462 29.6135 14.8443C29.2842 15.0423 29.0135 15.3271 28.8299 15.6687H27.9795C26.2454 15.5232 24.5004 15.7453 22.8549 16.321C21.2094 16.8966 19.699 17.8133 18.4191 19.0132C17.1392 20.2131 16.1176 21.6701 15.4188 23.2921C14.72 24.9142 14.3593 26.6661 14.3593 28.4373C14.3593 30.2085 14.72 31.9604 15.4188 33.5825C16.1176 35.2046 17.1392 36.6615 18.4191 37.8614C19.699 39.0613 21.2094 39.978 22.8549 40.5537C24.5004 41.1293 26.2454 41.3514 27.9795 41.206C30.2704 41.1976 32.5161 40.5573 34.4779 39.353C36.4397 38.1488 38.044 36.4257 39.1203 34.3672H37.5044C36.4914 36.0826 35.0536 37.497 33.3348 38.469C31.616 39.441 29.6765 39.9365 27.7105 39.9057C25.7445 39.8749 23.8209 39.3191 22.1323 38.2938C20.4436 37.2685 19.0492 35.8097 18.0885 34.0634C17.1277 32.3171 16.6345 30.3446 16.658 28.3433C16.6816 26.342 17.2211 24.382 18.2227 22.6597C19.2242 20.9373 20.6526 19.513 22.3649 18.5291C24.0772 17.5453 26.0133 17.0365 27.9795 17.0537Z" fill="#F5F5F5"/>
<path d="M46.434 23.6328H47.7947C46.7426 19.0839 44.2146 15.0289 40.6191 12.123C37.0235 9.21702 32.5705 7.62986 27.9795 7.61792C24.4382 7.63342 20.9578 8.55632 17.8593 10.3015L16.9238 9.17613L13.7771 11.6L14.5425 12.7254C12.1686 14.8464 10.3107 17.4994 9.11505 20.4754C7.9194 23.4514 7.41864 26.6693 7.65218 29.8758C7.88572 33.0823 8.8472 36.1898 10.4609 38.9538C12.0746 41.7179 14.2966 44.0629 16.9518 45.8044C19.6071 47.5459 22.6232 48.6363 25.7627 48.9899C28.9023 49.3434 32.0796 48.9503 35.0446 47.8417C38.0096 46.733 40.6813 44.939 42.8495 42.6008C45.0177 40.2627 46.6232 37.4442 47.5396 34.3672H46.0939C45.1944 37.2101 43.6619 39.8031 41.6159 41.944C39.5699 44.0848 37.0657 45.7157 34.2987 46.7093C31.5316 47.7029 28.5765 48.0325 25.6637 47.6723C22.751 47.3121 19.9593 46.2718 17.5065 44.6327C15.0536 42.9935 13.006 40.7998 11.5231 38.2225C10.0402 35.6453 9.16227 32.7542 8.95769 29.7747C8.75312 26.7952 9.22746 23.8079 10.3437 21.0458C11.46 18.2836 13.188 15.8213 15.393 13.8508L16.1584 14.8896L19.39 12.3791L18.7097 11.4269C21.5424 9.81821 24.7358 8.98317 27.9795 9.00299C32.212 9.02061 36.3193 10.4662 39.6586 13.1134C42.9978 15.7606 45.3806 19.4601 46.434 23.6328Z" fill="#F5F5F5"/>
<path d="M27.9796 55.4896H27.4694L26.6189 53.9314L25.6835 55.403C20.7298 54.9846 15.9901 53.1627 12.0013 50.1435C8.01247 47.1244 4.93382 43.0287 3.11399 38.3202C1.29416 33.6118 0.805864 28.4787 1.7044 23.5023C2.60294 18.5259 4.85241 13.905 8.19807 10.163C11.5437 6.42092 15.8519 3.70719 20.6347 2.3291C25.4175 0.951019 30.4838 0.963644 35.2599 2.36555C40.036 3.76745 44.3311 6.50263 47.6587 10.2613C50.9863 14.02 53.2136 18.652 54.0882 23.6328H55.4489C54.5644 18.4335 52.2742 13.5879 48.8351 9.63974C45.396 5.69153 40.9441 2.79692 35.9789 1.28066C31.0137 -0.23559 25.7316 -0.313491 20.7254 1.0557C15.7191 2.42489 11.1867 5.18701 7.63663 9.03214C4.08659 12.8773 1.6594 17.6533 0.627369 22.8243C-0.404661 27.9954 -0.000692755 33.3568 1.79395 38.3072C3.58859 43.2576 6.7029 47.601 10.7875 50.8501C14.872 54.0992 19.7652 56.1254 24.9181 56.7015L24.1527 57.9134H28.8301L28.2348 56.7881C34.5664 56.7045 40.6842 54.4438 45.594 50.3734C50.5038 46.3029 53.9169 40.6619 55.2788 34.3672H53.9181C52.5735 40.3523 49.2779 45.6979 44.568 49.5333C39.8581 53.3687 34.0112 55.4681 27.9796 55.4896Z" fill="#F5F5F5"/>
<path d="M27.8094 25.7105C26.1936 25.7105 25.173 26.6627 25.173 28.1343V29.9522C25.173 31.4239 26.1936 32.2896 27.8094 32.2896C29.4252 32.2896 30.3607 31.4239 30.3607 29.9522V28.1343C30.3751 27.7971 30.3175 27.4606 30.192 27.1482C30.0664 26.8357 29.8759 26.5547 29.6334 26.3243C29.391 26.094 29.1024 25.9199 28.7875 25.8139C28.4726 25.7079 28.1389 25.6726 27.8094 25.7105ZM29.0851 28.1343V29.8657C29.0851 30.7314 28.6598 31.0776 27.8094 31.0776C26.959 31.0776 26.4487 30.6448 26.4487 29.8657V28.1343C26.4487 27.3552 26.8739 26.9224 27.8094 26.9224C28.7449 26.9224 29.0851 27.3552 29.0851 28.1343Z" fill="#F5F5F5"/>
<path d="M34.1877 25.7105C33.6452 25.6852 33.1089 25.8369 32.6569 26.1433V24.412C32.6569 24.3431 32.63 24.277 32.5822 24.2283C32.5343 24.1796 32.4694 24.1523 32.4018 24.1523H31.7214C31.5513 24.1523 31.3812 24.2388 31.3812 24.412V29.9523C31.3812 31.4239 32.3167 32.2896 34.0176 32.2896C35.7185 32.2896 36.5689 31.4239 36.5689 29.9523V28.0478C36.5967 27.7262 36.5535 27.4023 36.4424 27.0999C36.3313 26.7975 36.1551 26.5242 35.9268 26.3001C35.6985 26.076 35.4238 25.9067 35.1229 25.8047C34.8219 25.7027 34.5024 25.6705 34.1877 25.7105ZM34.0176 26.9224C34.868 26.9224 35.2932 27.3552 35.2932 28.1343V29.8657C35.2932 30.6448 34.868 31.0776 34.0176 31.0776C33.1671 31.0776 32.6569 30.6448 32.6569 29.8657V28.1343C32.6569 27.3552 33.0821 26.9224 34.0176 26.9224Z" fill="#F5F5F5"/>
<path d="M40.2258 28.4806H39.9707C39.0352 28.3075 38.695 28.2209 38.695 27.7015C38.695 27.1821 38.695 27.009 39.8856 27.009C41.0763 27.009 41.0763 27.2687 41.0763 27.7881C41.0763 27.9612 41.2464 28.0478 41.4164 28.0478H42.0117C42.1818 28.0478 42.3519 27.9612 42.3519 27.7881C42.3519 26.5761 41.4164 25.797 39.8856 25.797C38.3549 25.797 37.4194 27.0955 37.4194 27.6149C37.4194 29.0866 38.61 29.3463 39.7156 29.5194H39.8856C40.8211 29.6925 41.1613 29.8657 41.1613 30.2985C41.1613 30.7314 41.1613 30.9911 39.8856 30.9911C38.61 30.9911 38.61 30.4717 38.61 30.212C38.61 30.0388 38.5249 29.8657 38.3549 29.8657H37.6745C37.5044 29.8657 37.4194 30.0388 37.4194 30.212V30.3851C37.4194 31.597 38.3549 32.2896 39.8856 32.2896C41.4164 32.2896 42.3519 31.597 42.3519 30.3851V30.212C42.3519 28.8269 41.1613 28.6537 40.2258 28.4806Z" fill="#F5F5F5"/>
<path d="M45.8387 25.7104C44.2229 25.7104 43.2023 26.5761 43.2023 28.0478V29.9522C43.2023 31.4239 44.1378 32.2896 45.8387 32.2896C47.5396 32.2896 48.39 31.5104 48.39 30.2985C48.39 30.1254 48.305 29.9522 48.1349 29.9522H47.4545C47.2844 29.9522 47.1994 30.1254 47.1994 30.2985C47.1994 30.5582 47.1994 31.1642 45.8387 31.1642C44.478 31.1642 44.478 30.8179 44.478 30.0388V29.606H48.1349C48.2025 29.606 48.2674 29.5786 48.3153 29.5299C48.3631 29.4812 48.39 29.4151 48.39 29.3463V28.0478C48.39 26.5761 47.4545 25.7104 45.8387 25.7104ZM44.478 28.1343C44.478 27.3552 44.9032 26.9224 45.8387 26.9224C46.7742 26.9224 47.1994 27.5284 47.1994 28.1343V28.394H44.478V28.1343Z" fill="#F5F5F5"/>
<path d="M52.6422 25.797H52.217C50.176 25.797 49.4956 26.403 49.4956 28.394V31.9433C49.4956 32.0122 49.5225 32.0782 49.5703 32.1269C49.6182 32.1756 49.6831 32.203 49.7507 32.203H50.4311C50.4988 32.203 50.5636 32.1756 50.6115 32.1269C50.6593 32.0782 50.6862 32.0122 50.6862 31.9433V28.4806C50.6862 27.1821 50.9414 27.009 52.217 27.009H52.6422C52.7099 27.009 52.7748 26.9816 52.8226 26.9329C52.8705 26.8842 52.8974 26.8181 52.8974 26.7493V26.0567C52.8974 25.9879 52.8705 25.9218 52.8226 25.8731C52.7748 25.8244 52.7099 25.797 52.6422 25.797Z" fill="#F5F5F5"/>
<path d="M58.5953 25.8836H57.8299C57.7449 25.8836 57.6598 25.8836 57.5748 26.0567L56.3842 29.606C56.312 29.8699 56.2269 30.1299 56.129 30.3851C56.0311 30.1299 55.946 29.8699 55.8739 29.606L54.5982 26.0567C54.5982 25.8836 54.5132 25.8836 54.3431 25.8836H53.4076C53.3768 25.9187 53.3534 25.9599 53.3388 26.0045C53.3242 26.0492 53.3187 26.0964 53.3226 26.1433L55.3636 32.0298L55.6188 32.203H56.5542C56.7243 32.203 56.8094 32.1164 56.8094 32.0298L58.8504 26.2298V25.9701H58.5953" fill="#F5F5F5"/>
<path d="M61.912 25.7104H61.6569C60.2112 25.7104 59.2757 26.4895 59.2757 27.788C59.2757 29.0866 59.4458 28.0478 59.6159 28.0478H60.2962C60.3639 28.0478 60.4288 28.0204 60.4766 27.9717C60.5245 27.923 60.5513 27.8569 60.5513 27.788C60.5513 27.0955 61.3167 26.9224 61.742 26.9224C62.1672 26.9224 63.0176 27.3552 63.0176 28.0478V28.394C62.5515 28.2405 62.0603 28.1817 61.5719 28.2209C59.956 28.2209 59.1056 28.8269 59.1056 30.2119C59.1056 31.5104 60.0411 32.203 61.5719 32.203H61.742C63.2727 32.203 64.2082 31.3373 64.2082 30.1254V28.0478C64.234 27.7342 64.1924 27.4186 64.0861 27.1231C63.9798 26.8276 63.8115 26.5593 63.5929 26.3368C63.3743 26.1142 63.1107 25.9429 62.8204 25.8348C62.5301 25.7266 62.2201 25.6842 61.912 25.7104ZM63.0176 30.1254V30.2985C63.0176 30.8179 62.4223 31.0776 61.6569 31.0776C60.8915 31.0776 60.3813 30.4716 60.3813 30.2985V30.1254C60.3813 29.6925 60.4663 29.3463 61.6569 29.3463C62.8475 29.3463 63.0176 29.6925 63.0176 30.1254Z" fill="#F5F5F5"/>
<path d="M68.5455 30.9911H68.0352C67.0997 30.9911 66.8446 30.8179 66.8446 29.6925V27.009H68.4604C68.5281 27.009 68.593 26.9816 68.6409 26.9329C68.6887 26.8842 68.7156 26.8181 68.7156 26.7493V26.1433C68.7156 26.0744 68.6887 26.0084 68.6409 25.9597C68.593 25.911 68.5281 25.8836 68.4604 25.8836H66.8446V24.9314C66.847 24.8527 66.8231 24.7756 66.7767 24.7126C66.7304 24.6497 66.6643 24.6047 66.5895 24.5851H65.8241C65.7492 24.6047 65.6832 24.6497 65.6368 24.7126C65.5904 24.7756 65.5665 24.8527 65.5689 24.9314V25.8836H65.0587C64.8886 25.8836 64.7185 25.9702 64.7185 26.1433V26.7493C64.7185 26.9224 64.8886 27.009 65.0587 27.009H65.5689V29.606C65.5689 31.5105 66.1643 32.203 68.0352 32.203H68.5455C68.6041 32.1814 68.6574 32.1469 68.7015 32.1021C68.7455 32.0572 68.7794 32.003 68.8006 31.9433V31.2508C68.8006 31.1819 68.7737 31.1158 68.7259 31.0671C68.678 31.0184 68.6132 30.9911 68.5455 30.9911Z" fill="#F5F5F5"/>
<path d="M71.0968 25.5373H72.0323L73.2229 24.0657C73.2536 24.0305 73.2771 23.9894 73.2917 23.9447C73.3063 23.9001 73.3118 23.8529 73.3079 23.806C73.2229 23.6328 73.1378 23.6328 73.0528 23.6328H72.0323L70.8416 25.1045C70.8235 25.1207 70.8091 25.1407 70.7991 25.1631C70.7892 25.1855 70.7841 25.2098 70.7841 25.2343C70.7841 25.2589 70.7892 25.2832 70.7991 25.3056C70.8091 25.328 70.8235 25.3479 70.8416 25.3642C70.8416 25.5373 70.9267 25.5373 71.0968 25.5373Z" fill="#F5F5F5"/>
<path d="M71.7771 25.7105C71.4476 25.6726 71.1139 25.7079 70.799 25.8139C70.4841 25.9199 70.1955 26.094 69.9531 26.3243C69.7106 26.5547 69.5201 26.8357 69.3945 27.1482C69.269 27.4606 69.2114 27.7971 69.2258 28.1343V29.9522C69.2258 31.4239 70.1613 32.2896 71.7771 32.2896C73.3929 32.2896 74.3284 31.4239 74.3284 29.9522V28.1343C74.3428 27.7971 74.2852 27.4606 74.1597 27.1482C74.0341 26.8357 73.8436 26.5547 73.6011 26.3243C73.3587 26.094 73.0701 25.9199 72.7552 25.8139C72.4403 25.7079 72.1067 25.6726 71.7771 25.7105ZM73.1378 28.1343V29.8657C73.1378 30.7314 72.7126 31.0776 71.7771 31.0776C70.8416 31.0776 70.5014 30.6448 70.5014 29.8657V28.1343C70.5014 27.3552 70.9267 26.9224 71.7771 26.9224C72.6275 26.9224 73.1378 27.3552 73.1378 28.1343Z" fill="#F5F5F5"/>
<path d="M78.5807 25.797H78.2405C76.1144 25.797 75.434 26.403 75.434 28.394V31.9433C75.434 32.0122 75.4609 32.0782 75.5087 32.1269C75.5566 32.1756 75.6215 32.203 75.6892 32.203H76.3695C76.4468 32.2055 76.5225 32.1811 76.5844 32.1339C76.6462 32.0867 76.6904 32.0195 76.7097 31.9433V28.4806C76.7097 27.1821 76.8798 27.009 78.1554 27.009H78.5807C78.6579 27.0115 78.7337 26.9871 78.7955 26.9399C78.8573 26.8927 78.9015 26.8255 78.9208 26.7493V26.0567C78.9208 25.8836 78.7507 25.797 78.5807 25.797Z" fill="#F5F5F5"/>
<path d="M80.4516 25.8836H79.7713C79.6012 25.8836 79.4311 25.9701 79.4311 26.1433V31.9433C79.4504 32.0195 79.4946 32.0867 79.5564 32.1339C79.6182 32.1811 79.694 32.2055 79.7713 32.203H80.4516C80.5193 32.203 80.5842 32.1756 80.632 32.1269C80.6799 32.0782 80.7068 32.0122 80.7068 31.9433V26.1433C80.7068 26.0744 80.6799 26.0083 80.632 25.9596C80.5842 25.9109 80.5193 25.8836 80.4516 25.8836Z" fill="#F5F5F5"/>
<path d="M80.1965 23.9791H80.0264C79.846 23.9791 79.6729 24.0521 79.5453 24.1819C79.4177 24.3118 79.3461 24.488 79.3461 24.6716C79.3461 24.8553 79.4177 25.0315 79.5453 25.1613C79.6729 25.2912 79.846 25.3642 80.0264 25.3642H80.1965C80.3769 25.3642 80.55 25.2912 80.6776 25.1613C80.8052 25.0315 80.8769 24.8553 80.8769 24.6716C80.8769 24.488 80.8052 24.3118 80.6776 24.1819C80.55 24.0521 80.3769 23.9791 80.1965 23.9791Z" fill="#F5F5F5"/>
<path d="M84.4487 25.7105C84.1191 25.6726 83.7854 25.7079 83.4706 25.8139C83.1557 25.9199 82.8671 26.094 82.6247 26.3243C82.3822 26.5547 82.1917 26.8357 82.0661 27.1482C81.9406 27.4606 81.883 27.7971 81.8974 28.1343V29.9522C81.8974 31.4239 82.8328 32.2896 84.4487 32.2896C86.0645 32.2896 87 31.4239 87 29.9522V28.1343C87.0144 27.7971 86.9568 27.4606 86.8312 27.1482C86.7057 26.8357 86.5151 26.5547 86.2727 26.3243C86.0302 26.094 85.7417 25.9199 85.4268 25.8139C85.1119 25.7079 84.7782 25.6726 84.4487 25.7105ZM85.7243 28.1343V29.8657C85.7243 30.7314 85.3842 31.0776 84.4487 31.0776C83.5132 31.0776 83.088 30.6448 83.088 29.8657V28.1343C83.088 27.3552 83.5132 26.9224 84.4487 26.9224C85.3842 26.9224 85.7243 27.3552 85.7243 28.1343Z" fill="#F5F5F5"/>
<path d="M63.783 33.9343H63.1877V34.7134H62.5073C62.3477 34.7004 62.1872 34.7228 62.0369 34.779C61.8866 34.8353 61.7502 34.9242 61.6369 35.0394C61.5237 35.1547 61.4364 35.2936 61.3811 35.4466C61.3258 35.5995 61.3039 35.7629 61.3167 35.9254V36.791C61.3016 36.9617 61.325 37.1335 61.3851 37.2936C61.4452 37.4536 61.5404 37.5975 61.6635 37.7144C61.7865 37.8313 61.9341 37.9181 62.0951 37.9681C62.2561 38.0181 62.4262 38.03 62.5923 38.003C63.4428 38.003 63.9531 37.5701 63.9531 36.791V34.0209H63.783M62.5923 37.397C62.2522 37.397 61.997 37.2239 61.997 36.8776V36.0119C61.997 35.6657 62.2522 35.4925 62.5923 35.4925C62.9325 35.4925 63.1877 35.6657 63.1877 36.0119V36.8776C63.1877 37.2239 63.0176 37.397 62.5923 37.397Z" fill="#F5F5F5"/>
<path d="M65.654 34.7134C64.8035 34.7134 64.2933 35.1463 64.2933 35.9254V36.791C64.2933 37.5701 64.8035 38.003 65.654 38.003C65.8202 38.03 65.9902 38.0181 66.1512 37.9681C66.3122 37.9181 66.4598 37.8313 66.5829 37.7144C66.7059 37.5975 66.8011 37.4536 66.8612 37.2936C66.9213 37.1335 66.9447 36.9617 66.9296 36.791V35.9254C66.9447 35.7547 66.9213 35.5829 66.8612 35.4228C66.8011 35.2628 66.7059 35.1189 66.5829 35.002C66.4598 34.8851 66.3122 34.7983 66.1512 34.7483C65.9902 34.6983 65.8202 34.6864 65.654 34.7134ZM65.0587 35.9254C65.0587 35.5791 65.2288 35.406 65.654 35.406C66.0792 35.406 66.2493 35.5791 66.2493 35.9254V36.791C66.2493 37.1373 66.0792 37.3104 65.654 37.3104C65.2288 37.3104 65.0587 37.1373 65.0587 36.791V35.9254Z" fill="#F5F5F5"/>
<path d="M70.3314 37.2239H69.9912C69.481 37.2239 69.3959 37.2239 69.3959 36.6179V35.406H70.2464C70.3314 35.406 70.3314 35.406 70.3314 35.3194V34.8C70.3314 34.777 70.3224 34.755 70.3065 34.7388C70.2905 34.7225 70.2689 34.7134 70.2464 34.7134H69.3959V34.2806C69.3959 34.194 69.3959 34.1075 69.3109 34.1075H68.8006C68.7514 34.1519 68.7209 34.2139 68.7156 34.2806V34.7134H68.2903V35.2328C68.2903 35.2442 68.2925 35.2555 68.2968 35.266C68.3011 35.2765 68.3074 35.286 68.3153 35.294C68.3232 35.3021 68.3325 35.3085 68.3428 35.3128C68.3532 35.3172 68.3642 35.3194 68.3754 35.3194H68.7156V36.5313C68.7156 37.4836 69.0557 37.8298 69.9912 37.8298H70.4164V37.3104H70.3314" fill="#F5F5F5"/>
<path d="M73.0528 34.7134H72.4575V36.7045C72.4575 37.0508 72.2874 37.2239 71.8622 37.2239C71.7919 37.2405 71.7185 37.2386 71.6491 37.2184C71.5797 37.1981 71.5165 37.1603 71.4655 37.1083C71.4144 37.0563 71.3772 36.992 71.3574 36.9214C71.3375 36.8507 71.3356 36.7761 71.3519 36.7045V34.8H70.5865V36.7911C70.5715 36.9617 70.5949 37.1336 70.655 37.2936C70.7151 37.4536 70.8103 37.5975 70.9333 37.7144C71.0564 37.8313 71.204 37.9181 71.365 37.9681C71.5259 38.0181 71.696 38.03 71.8622 38.003C72.7126 38.003 73.2229 37.5702 73.2229 36.7911V34.8H73.0528" fill="#F5F5F5"/>
<path d="M75.349 34.7134H75.0938C73.9883 34.7134 73.6481 35.0597 73.6481 36.0119V37.8299H74.3284V36.0985C74.3284 35.4925 74.4135 35.406 75.0088 35.406H75.349C75.434 35.406 75.434 35.406 75.434 35.3194V34.8C75.434 34.7134 75.434 34.7134 75.349 34.7134Z" fill="#F5F5F5"/>
<path d="M76.2845 34.7134H75.6891V37.7433H76.3695V34.8C76.3695 34.7771 76.3605 34.755 76.3446 34.7388C76.3286 34.7226 76.307 34.7134 76.2845 34.7134Z" fill="#F5F5F5"/>
<path d="M76.1144 33.8477H76.0293C75.9299 33.8457 75.8328 33.8792 75.7551 33.9425C75.6774 34.0058 75.624 34.0948 75.6041 34.194C75.6041 34.3088 75.6489 34.4189 75.7287 34.5001C75.8084 34.5812 75.9166 34.6269 76.0293 34.6269H76.1144C76.2119 34.6066 76.2993 34.5522 76.3615 34.4731C76.4236 34.394 76.4566 34.2953 76.4546 34.194C76.4546 34.1022 76.4187 34.0141 76.3549 33.9492C76.2911 33.8842 76.2046 33.8477 76.1144 33.8477Z" fill="#F5F5F5"/>
<path d="M78.2405 36.0119H78.1554C77.6452 35.9254 77.5601 35.8388 77.5601 35.6657C77.5601 35.4925 77.5601 35.406 78.0704 35.406C78.5807 35.406 78.5807 35.5791 78.5807 35.6657V35.8388C78.5807 35.8618 78.5896 35.8838 78.6056 35.9C78.6215 35.9163 78.6431 35.9254 78.6657 35.9254H79.261C79.2836 35.9254 79.3052 35.9163 79.3211 35.9C79.3371 35.8838 79.3461 35.8618 79.3461 35.8388V35.6657C79.3461 35.0597 78.8358 34.7134 78.0704 34.7134C77.305 34.7134 76.8798 35.0597 76.8798 35.6657C76.8798 36.4448 77.4751 36.6179 77.9853 36.7045H78.0704C78.4956 36.7911 78.6657 36.7911 78.6657 36.9642C78.6657 37.1373 78.6657 37.3105 78.0704 37.3105C77.4751 37.3105 77.5601 37.0508 77.5601 36.9642V36.7911H76.7947V37.0508C76.7947 37.6567 77.305 38.003 78.0704 38.003C78.8358 38.003 79.3461 37.6567 79.3461 36.9642C79.3461 36.1851 78.6657 36.0985 78.2405 36.0119Z" fill="#F5F5F5"/>
<path d="M82.6628 34.7134C82.3315 34.6945 82.0032 34.7857 81.7273 34.9731C81.6109 34.8724 81.4752 34.7973 81.3288 34.7526C81.1824 34.7079 81.0285 34.6945 80.8768 34.7134C80.1114 34.7134 79.6862 35.0597 79.6862 35.7522V37.8299H80.4516V35.8388C80.4516 35.6657 80.4516 35.406 80.8768 35.406C81.3021 35.406 81.3871 35.6657 81.3871 35.8388V37.8299H82.1525V35.8388C82.1525 35.6657 82.1525 35.406 82.5777 35.406C83.0029 35.406 83.088 35.6657 83.088 35.8388V37.8299H83.7683V35.7522C83.7683 35.0597 83.3431 34.7134 82.6628 34.7134Z" fill="#F5F5F5"/>
<path d="M85.5542 34.7134C84.7038 34.7134 84.1935 35.1463 84.1935 35.9254V36.791C84.1935 37.5701 84.7038 38.003 85.5542 38.003C85.7204 38.03 85.8905 38.0181 86.0515 37.9681C86.2124 37.9181 86.3601 37.8313 86.4831 37.7144C86.6062 37.5975 86.7014 37.4536 86.7615 37.2936C86.8216 37.1335 86.845 36.9617 86.8299 36.791V35.9254C86.845 35.7547 86.8216 35.5829 86.7615 35.4228C86.7014 35.2628 86.6062 35.1189 86.4831 35.002C86.3601 34.8851 86.2124 34.7983 86.0515 34.7483C85.8905 34.6983 85.7204 34.6864 85.5542 34.7134ZM84.9589 35.9254C84.9589 35.5791 85.129 35.406 85.5542 35.406C85.9795 35.406 86.1496 35.5791 86.1496 35.9254V36.791C86.1496 37.1373 85.9795 37.3104 85.5542 37.3104C85.129 37.3104 84.9589 37.1373 84.9589 36.791V35.9254Z" fill="#F5F5F5"/>
</g>
<defs>
<clipPath id="clip0_5_75">
<rect width="87" height="58" fill="white"/>
</clipPath>
</defs>
</svg>
