<svg xmlns="http://www.w3.org/2000/svg" viewBox="0 0 102.3 67"><title>Asset 15maiorEMelhor_</title><path d="M32.9,19.7h.7a2.5,2.5,0,0,0,2.5,2.2,2.4,2.4,0,0,0,2.1-1.1,13.5,13.5,0,0,1,6.6,6.5h1.7a14.3,14.3,0,0,0-7.8-8,2.6,2.6,0,0,0-2.6-2.5,2.5,2.5,0,0,0-2.2,1.3h-1a14.8,14.8,0,1,0,0,29.5A14.9,14.9,0,0,0,46,39.7H44.1a13.2,13.2,0,1,1-11.2-20" style="fill:#ea5b0a"/><path d="M54.6,27.3h1.6A24,24,0,0,0,32.9,8.8,24.8,24.8,0,0,0,21,11.9l-1.1-1.3-3.7,2.8.9,1.3a24,24,0,1,0,38.8,25H54.2A22.4,22.4,0,1,1,18.1,16l.9,1.2,3.8-2.9L22,13.2a22.1,22.1,0,0,1,10.9-2.8A22.5,22.5,0,0,1,54.6,27.3" style="fill:#ea5b0a"/><path d="M32.9,64.1h-.6l-1-1.8L30.2,64A31.3,31.3,0,1,1,63.6,27.3h1.6A32.8,32.8,0,1,0,29.3,65.5l-.9,1.4h5.5l-.7-1.3A33,33,0,0,0,65,39.7H63.4A31.4,31.4,0,0,1,32.9,64.1" style="fill:#ea5b0a"/><path d="M32.7,29.7c-1.9,0-3.1,1.1-3.1,2.8v2.1c0,1.7,1.2,2.7,3.1,2.7s3-1,3-2.7V32.5a2.7,2.7,0,0,0-3-2.8m1.5,2.8v2c0,1-.5,1.4-1.5,1.4s-1.6-.5-1.6-1.4v-2c0-.9.5-1.4,1.6-1.4s1.5.5,1.5,1.4" style="fill:#00a19a"/><path d="M40.2,29.7a3,3,0,0,0-1.8.5v-2a.3.3,0,0,0-.3-.3h-.8c-.2,0-.4.1-.4.3v6.4c0,1.7,1.1,2.7,3.1,2.7s3-1,3-2.7V32.4a2.5,2.5,0,0,0-2.8-2.7M40,31.1c1,0,1.5.5,1.5,1.4v2c0,.9-.5,1.4-1.5,1.4s-1.6-.5-1.6-1.4v-2c0-.9.5-1.4,1.6-1.4" style="fill:#00a19a"/><path d="M47.3,32.9H47c-1.1-.2-1.5-.3-1.5-.9s0-.8,1.4-.8,1.4.3,1.4.9h0c0,.2.2.3.4.3h.7c.2,0,.4-.1.4-.3h0c0-1.4-1.1-2.3-2.9-2.3S44,31.3,44,31.9h0c0,1.7,1.4,2,2.7,2.2h.2c1.1.2,1.5.4,1.5.9s0,.8-1.5.8-1.5-.6-1.5-.9h0c0-.2-.1-.4-.3-.4h-.8c-.2,0-.3.2-.3.4v.2c0,1.4,1.1,2.2,2.9,2.2s2.9-.8,2.9-2.2v-.2c0-1.6-1.4-1.8-2.5-2" style="fill:#00a19a"/><path d="M53.9,29.7c-1.9,0-3.1,1-3.1,2.7v2.2c0,1.7,1.1,2.7,3.1,2.7s3-.9,3-2.3h0c0-.2-.1-.4-.3-.4h-.8c-.2,0-.3.2-.3.4h0c0,.3,0,1-1.6,1s-1.6-.4-1.6-1.3v-.5h4.3a.3.3,0,0,0,.3-.3V32.4c0-1.7-1.1-2.7-3-2.7m-1.6,2.8c0-.9.5-1.4,1.6-1.4s1.6.7,1.6,1.4v.3H52.3Z" style="fill:#00a19a"/><path d="M61.9,29.8h-.5c-2.4,0-3.2.7-3.2,3v4.1a.3.3,0,0,0,.3.3h.8a.3.3,0,0,0,.3-.3v-4c0-1.5.3-1.7,1.8-1.7h.5a.3.3,0,0,0,.3-.3v-.8a.3.3,0,0,0-.3-.3" style="fill:#00a19a"/><path d="M68.9,29.9H68c-.1,0-.2,0-.3.2l-1.4,4.1a9.4,9.4,0,0,1-.3.9h0a9.4,9.4,0,0,1-.3-.9l-1.5-4.1c0-.2-.1-.2-.3-.2H62.8a.4.4,0,0,0-.1.3L65.1,37l.3.2h1.1c.2,0,.3-.1.3-.2l2.4-6.7V30h-.3" style="fill:#00a19a"/><path d="M72.8,29.7h-.3c-1.7,0-2.8.9-2.8,2.4s.2.3.4.3h.8a.3.3,0,0,0,.3-.3c0-.8.9-1,1.4-1s1.5.5,1.5,1.3v.4a4.4,4.4,0,0,0-1.7-.2c-1.9,0-2.9.7-2.9,2.3h0c0,1.5,1.1,2.3,2.9,2.3h.2c1.8,0,2.9-1,2.9-2.4V32.4a2.5,2.5,0,0,0-2.7-2.7m1.3,5.1V35c0,.6-.7.9-1.6.9S71,35.2,71,35v-.2c0-.5.1-.9,1.5-.9s1.6.4,1.6.9" style="fill:#00a19a"/><path d="M80.6,35.8H80c-1.1,0-1.4-.2-1.4-1.5V31.2h1.9a.3.3,0,0,0,.3-.3v-.7a.3.3,0,0,0-.3-.3H78.6V28.8a.4.4,0,0,0-.3-.4h-.9a.4.4,0,0,0-.3.4v1.1h-.6c-.2,0-.4.1-.4.3v.7c0,.2.2.3.4.3h.6v3c0,2.2.7,3,2.9,3h.6a.5.5,0,0,0,.3-.3v-.8a.3.3,0,0,0-.3-.3" style="fill:#00a19a"/><path d="M83.6,29.5h1.1l1.4-1.7a.4.4,0,0,0,.1-.3c-.1-.2-.2-.2-.3-.2H84.7L83.3,29a.2.2,0,0,0,0,.3c0,.2.1.2.3.2" style="fill:#00a19a"/><path d="M84.4,29.7a2.7,2.7,0,0,0-3,2.8v2.1c0,1.7,1.1,2.7,3,2.7s3-1,3-2.7V32.5a2.7,2.7,0,0,0-3-2.8M86,32.5v2c0,1-.5,1.4-1.6,1.4s-1.5-.5-1.5-1.4v-2c0-.9.5-1.4,1.5-1.4s1.6.5,1.6,1.4" style="fill:#00a19a"/><path d="M92.4,29.8H92c-2.5,0-3.3.7-3.3,3v4.1a.3.3,0,0,0,.3.3h.8a.4.4,0,0,0,.4-.3v-4c0-1.5.2-1.7,1.7-1.7h.5a.4.4,0,0,0,.4-.3v-.8c0-.2-.2-.3-.4-.3" style="fill:#00a19a"/><path d="M94.6,29.9h-.8c-.2,0-.4.1-.4.3v6.7a.4.4,0,0,0,.4.3h.8a.3.3,0,0,0,.3-.3V30.2a.3.3,0,0,0-.3-.3" style="fill:#00a19a"/><path d="M94.3,27.7h-.2a.8.8,0,1,0,0,1.6h.2a.8.8,0,0,0,0-1.6" style="fill:#00a19a"/><path d="M99.3,29.7a2.7,2.7,0,0,0-3,2.8v2.1c0,1.7,1.1,2.7,3,2.7s3-1,3-2.7V32.5a2.7,2.7,0,0,0-3-2.8m1.5,2.8v2c0,1-.4,1.4-1.5,1.4s-1.6-.5-1.6-1.4v-2c0-.9.5-1.4,1.6-1.4s1.5.5,1.5,1.4" style="fill:#00a19a"/><path d="M75,39.2h-.7v.9h-.8a1.3,1.3,0,0,0-1.4,1.4v1a1.3,1.3,0,0,0,1.5,1.4c1,0,1.6-.5,1.6-1.4V39.3H75m-1.4,3.9c-.4,0-.7-.2-.7-.6v-1c0-.4.3-.6.7-.6s.7.2.7.6v1c0,.4-.2.6-.7.6" style="fill:#00a19a"/><path d="M77.2,40.1c-1,0-1.6.5-1.6,1.4v1c0,.9.6,1.4,1.6,1.4a1.3,1.3,0,0,0,1.5-1.4v-1a1.3,1.3,0,0,0-1.5-1.4m-.7,1.4c0-.4.2-.6.7-.6s.7.2.7.6v1c0,.4-.2.6-.7.6s-.7-.2-.7-.6Z" style="fill:#00a19a"/><path d="M82.7,43h-.4c-.6,0-.7,0-.7-.7V40.9h1c.1,0,.1,0,.1-.1v-.6a.1.1,0,0,0-.1-.1h-1v-.5c0-.1,0-.2-.1-.2h-.6a.3.3,0,0,0-.1.2v.5h-.5v.6a.1.1,0,0,0,.1.1h.4v1.4c0,1.1.4,1.5,1.5,1.5h.5v-.6h-.1" style="fill:#00a19a"/><path d="M85.9,40.1h-.7v2.3c0,.4-.2.6-.7.6a.5.5,0,0,1-.6-.6V40.2H83v2.3a1.3,1.3,0,0,0,1.5,1.4c1,0,1.6-.5,1.6-1.4V40.2h-.2" style="fill:#00a19a"/><path d="M88.6,40.1h-.3c-1.3,0-1.7.4-1.7,1.5v2.1h.8v-2c0-.7.1-.8.8-.8h.4c.1,0,.1,0,.1-.1v-.6c0-.1,0-.1-.1-.1" style="fill:#00a19a"/><path d="M89.7,40.1H89v3.5h.8V40.2a.1.1,0,0,0-.1-.1" style="fill:#00a19a"/><path d="M89.5,39.1h-.1a.5.5,0,0,0-.5.4.5.5,0,0,0,.5.5h.1a.5.5,0,0,0,.4-.5.4.4,0,0,0-.4-.4" style="fill:#00a19a"/><path d="M92,41.6h-.1c-.6-.1-.7-.2-.7-.4s0-.3.6-.3.6.2.6.3v.2a.1.1,0,0,0,.1.1h.7a.1.1,0,0,0,.1-.1v-.2c0-.7-.6-1.1-1.5-1.1s-1.4.4-1.4,1.1h0c0,.9.7,1.1,1.3,1.2h.1c.5.1.7.1.7.3s0,.4-.7.4-.6-.3-.6-.4v-.2h-.9v.3c0,.7.6,1.1,1.5,1.1s1.5-.4,1.5-1.2h0c0-.9-.8-1-1.3-1.1" style="fill:#00a19a"/><path d="M97.2,40.1a1.8,1.8,0,0,0-1.1.3,1.3,1.3,0,0,0-1-.3c-.9,0-1.4.4-1.4,1.2v2.4h.9V41.4c0-.2,0-.5.5-.5s.6.3.6.5v2.3h.9V41.4c0-.2,0-.5.5-.5s.6.3.6.5v2.3h.8V41.3c0-.8-.5-1.2-1.3-1.2" style="fill:#00a19a"/><path d="M100.6,40.1c-1,0-1.6.5-1.6,1.4v1c0,.9.6,1.4,1.6,1.4a1.3,1.3,0,0,0,1.5-1.4v-1a1.3,1.3,0,0,0-1.5-1.4m-.7,1.4c0-.4.2-.6.7-.6s.7.2.7.6v1c0,.4-.2.6-.7.6s-.7-.2-.7-.6Z" style="fill:#00a19a"/></svg>