<svg width="103" height="67" viewBox="0 0 103 67" fill="none" xmlns="http://www.w3.org/2000/svg">
<g clip-path="url(#clip0_5_262)">
<path d="M32.9 19.7H33.6C33.6737 20.3098 33.9693 20.8711 34.4304 21.2768C34.8915 21.6826 35.4858 21.9044 36.1 21.9C36.5153 21.9141 36.9272 21.8202 37.2953 21.6274C37.6634 21.4346 37.9751 21.1495 38.2 20.8C41.0978 22.1204 43.4355 24.4227 44.8 27.3H46.5C45.8034 25.5113 44.7537 23.8811 43.4137 22.5067C42.0736 21.1322 40.4705 20.0417 38.7 19.3C38.6741 18.6279 38.3888 17.992 37.904 17.5258C37.4192 17.0597 36.7726 16.7995 36.1 16.8C35.6503 16.7988 35.2085 16.9189 34.8213 17.1477C34.4342 17.3765 34.1159 17.7055 33.9 18.1H32.9C30.8609 17.932 28.8091 18.1885 26.8742 18.8535C24.9393 19.5185 23.1632 20.5775 21.6582 21.9635C20.1533 23.3496 18.952 25.0327 18.1303 26.9064C17.3087 28.7802 16.8845 30.804 16.8845 32.85C16.8845 34.896 17.3087 36.9198 18.1303 38.7936C18.952 40.6673 20.1533 42.3504 21.6582 43.7365C23.1632 45.1225 24.9393 46.1815 26.8742 46.8465C28.8091 47.5115 30.8609 47.768 32.9 47.6C35.5937 47.5903 38.2345 46.8506 40.5412 45.4595C42.848 44.0684 44.7345 42.078 46 39.7H44.1C42.9089 41.6816 41.2181 43.3156 39.1971 44.4384C37.176 45.5612 34.8955 46.1335 32.5837 46.098C30.2719 46.0624 28.0101 45.4203 26.0245 44.2359C24.0388 43.0515 22.3992 41.3663 21.2695 39.3491C20.1398 37.3318 19.5598 35.0532 19.5875 32.7414C19.6152 30.4295 20.2497 28.1655 21.4273 26.1759C22.605 24.1862 24.2846 22.5408 26.298 21.4044C28.3114 20.2679 30.588 19.6801 32.9 19.7Z" fill="#EA5B0A"/>
<path d="M54.6 27.3H56.2C54.9629 22.0452 51.9902 17.361 47.7624 14.0041C43.5346 10.6472 38.2984 8.81378 32.9 8.79999C28.736 8.8179 24.6435 9.884 21 11.9L19.9 10.6L16.2 13.4L17.1 14.7C14.3086 17.1502 12.1239 20.2148 10.718 23.6526C9.3121 27.0904 8.72327 30.8076 8.99788 34.5117C9.2725 38.2157 10.4031 41.8055 12.3006 44.9984C14.1981 48.1913 16.8108 50.9002 19.933 52.912C23.0552 54.9237 26.6017 56.1833 30.2934 56.5917C33.9851 57.0001 37.7212 56.5461 41.2076 55.2654C44.694 53.9847 47.8356 51.9123 50.3851 49.2113C52.9346 46.5103 54.8224 43.2544 55.9 39.7H54.2C53.1423 42.9841 51.3403 45.9794 48.9345 48.4525C46.5287 50.9256 43.5842 52.8095 40.3305 53.9573C37.0768 55.1051 33.602 55.4858 30.177 55.0697C26.752 54.6536 23.4694 53.4519 20.5852 51.5584C17.701 49.6649 15.2932 47.1308 13.5495 44.1536C11.8059 41.1764 10.7735 37.8367 10.533 34.3949C10.2924 30.9531 10.8502 27.5023 12.1628 24.3115C13.4753 21.1207 15.5072 18.2763 18.1 16L19 17.2L22.8 14.3L22 13.2C25.3308 11.3417 29.0859 10.3771 32.9 10.4C37.8768 10.4203 42.7064 12.0902 46.633 15.1482C50.5595 18.2062 53.3614 22.4797 54.6 27.3Z" fill="#EA5B0A"/>
<path d="M32.9 64.1H32.3L31.3 62.3L30.2 64C24.3752 63.5167 18.802 61.412 14.1117 57.9244C9.42136 54.4368 5.80129 49.7055 3.66142 44.2665C1.52155 38.8274 0.947388 32.8978 2.00395 27.1492C3.0605 21.4006 5.70557 16.0627 9.63961 11.74C13.5736 7.41728 18.6395 4.28245 24.2634 2.69052C29.8873 1.0986 35.8446 1.11318 41.4606 2.73262C47.0767 4.35206 52.1271 7.51166 56.0399 11.8536C59.9527 16.1955 62.5716 21.5463 63.6 27.3H65.2C64.16 21.2939 61.467 15.6964 57.4231 11.1356C53.3792 6.57471 48.1444 3.23093 42.306 1.47939C36.4676 -0.272142 30.2566 -0.362131 24.37 1.21952C18.4833 2.80117 13.1538 5.99189 8.97942 10.4337C4.80507 14.8755 1.95103 20.3926 0.737502 26.366C-0.476022 32.3395 -0.00101137 38.5329 2.10924 44.2514C4.21949 49.97 7.88149 54.9873 12.6844 58.7406C17.4872 62.4939 23.241 64.8345 29.3 65.5L28.4 66.9H33.9L33.2 65.6C40.6452 65.5035 47.8389 62.892 53.6121 58.1899C59.3853 53.4878 63.3987 46.9715 65 39.7H63.4C61.819 46.6139 57.9438 52.7889 52.4056 57.2195C46.8674 61.6501 39.9923 64.0752 32.9 64.1Z" fill="#EA5B0A"/>
<path d="M32.7 29.7C30.8 29.7 29.6 30.8 29.6 32.5V34.6C29.6 36.3 30.8 37.3 32.7 37.3C34.6 37.3 35.7 36.3 35.7 34.6V32.5C35.7169 32.1104 35.6492 31.7218 35.5015 31.3608C35.3539 30.9999 35.1299 30.6752 34.8448 30.4091C34.5597 30.1431 34.2204 29.9419 33.8501 29.8195C33.4799 29.6971 33.0875 29.6563 32.7 29.7ZM34.2 32.5V34.5C34.2 35.5 33.7 35.9 32.7 35.9C31.7 35.9 31.1 35.4 31.1 34.5V32.5C31.1 31.6 31.6 31.1 32.7 31.1C33.8 31.1 34.2 31.6 34.2 32.5Z" fill="#00A19A"/>
<path d="M40.2 29.7C39.5621 29.6708 38.9315 29.846 38.4 30.2V28.2C38.4 28.1204 38.3684 28.0441 38.3122 27.9879C38.2559 27.9316 38.1796 27.9 38.1 27.9H37.3C37.1 27.9 36.9 28 36.9 28.2V34.6C36.9 36.3 38 37.3 40 37.3C42 37.3 43 36.3 43 34.6V32.4C43.0327 32.0285 42.9819 31.6543 42.8513 31.305C42.7206 30.9557 42.5135 30.64 42.245 30.3811C41.9765 30.1223 41.6535 29.9267 41.2997 29.8089C40.9458 29.691 40.5701 29.6538 40.2 29.7ZM40 31.1C41 31.1 41.5 31.6 41.5 32.5V34.5C41.5 35.4 41 35.9 40 35.9C39 35.9 38.4 35.4 38.4 34.5V32.5C38.4 31.6 38.9 31.1 40 31.1Z" fill="#00A19A"/>
<path d="M47.3 32.9H47C45.9 32.7 45.5 32.6 45.5 32C45.5 31.4 45.5 31.2 46.9 31.2C48.3 31.2 48.3 31.5 48.3 32.1C48.3 32.3 48.5 32.4 48.7 32.4H49.4C49.6 32.4 49.8 32.3 49.8 32.1C49.8 30.7 48.7 29.8 46.9 29.8C45.1 29.8 44 31.3 44 31.9C44 33.6 45.4 33.9 46.7 34.1H46.9C48 34.3 48.4 34.5 48.4 35C48.4 35.5 48.4 35.8 46.9 35.8C45.4 35.8 45.4 35.2 45.4 34.9C45.4 34.7 45.3 34.5 45.1 34.5H44.3C44.1 34.5 44 34.7 44 34.9V35.1C44 36.5 45.1 37.3 46.9 37.3C48.7 37.3 49.8 36.5 49.8 35.1V34.9C49.8 33.3 48.4 33.1 47.3 32.9Z" fill="#00A19A"/>
<path d="M53.9 29.7C52 29.7 50.8 30.7 50.8 32.4V34.6C50.8 36.3 51.9 37.3 53.9 37.3C55.9 37.3 56.9 36.4 56.9 35C56.9 34.8 56.8 34.6 56.6 34.6H55.8C55.6 34.6 55.5 34.8 55.5 35C55.5 35.3 55.5 36 53.9 36C52.3 36 52.3 35.6 52.3 34.7V34.2H56.6C56.6796 34.2 56.7559 34.1684 56.8121 34.1121C56.8684 34.0559 56.9 33.9796 56.9 33.9V32.4C56.9 30.7 55.8 29.7 53.9 29.7ZM52.3 32.5C52.3 31.6 52.8 31.1 53.9 31.1C55 31.1 55.5 31.8 55.5 32.5V32.8H52.3V32.5Z" fill="#00A19A"/>
<path d="M61.9 29.8H61.4C59 29.8 58.2 30.5 58.2 32.8V36.9C58.2 36.9796 58.2316 37.0559 58.2879 37.1121C58.3441 37.1684 58.4204 37.2 58.5 37.2H59.3C59.3796 37.2 59.4559 37.1684 59.5121 37.1121C59.5684 37.0559 59.6 36.9796 59.6 36.9V32.9C59.6 31.4 59.9 31.2 61.4 31.2H61.9C61.9796 31.2 62.0559 31.1684 62.1121 31.1121C62.1684 31.0559 62.2 30.9796 62.2 30.9V30.1C62.2 30.0204 62.1684 29.9441 62.1121 29.8879C62.0559 29.8316 61.9796 29.8 61.9 29.8Z" fill="#00A19A"/>
<path d="M68.9 29.9H68C67.9 29.9 67.8 29.9 67.7 30.1L66.3 34.2C66.2152 34.5049 66.1151 34.8052 66 35.1C65.8849 34.8052 65.7848 34.5049 65.7 34.2L64.2 30.1C64.2 29.9 64.1 29.9 63.9 29.9H62.8C62.7638 29.9406 62.7363 29.9881 62.7191 30.0397C62.7019 30.0913 62.6954 30.1458 62.7 30.2L65.1 37L65.4 37.2H66.5C66.7 37.2 66.8 37.1 66.8 37L69.2 30.3V30H68.9" fill="#00A19A"/>
<path d="M72.8 29.7H72.5C70.8 29.7 69.7 30.6 69.7 32.1C69.7 33.6 69.9 32.4 70.1 32.4H70.9C70.9796 32.4 71.0559 32.3684 71.1121 32.3121C71.1684 32.2559 71.2 32.1796 71.2 32.1C71.2 31.3 72.1 31.1 72.6 31.1C73.1 31.1 74.1 31.6 74.1 32.4V32.8C73.5519 32.6227 72.9743 32.5547 72.4 32.6C70.5 32.6 69.5 33.3 69.5 34.9C69.5 36.4 70.6 37.2 72.4 37.2H72.6C74.4 37.2 75.5 36.2 75.5 34.8V32.4C75.5303 32.0378 75.4813 31.6733 75.3564 31.3319C75.2314 30.9906 75.0335 30.6806 74.7765 30.4235C74.5195 30.1665 74.2095 29.9686 73.8681 29.8436C73.5267 29.7187 73.1622 29.6697 72.8 29.7ZM74.1 34.8V35C74.1 35.6 73.4 35.9 72.5 35.9C71.6 35.9 71 35.2 71 35V34.8C71 34.3 71.1 33.9 72.5 33.9C73.9 33.9 74.1 34.3 74.1 34.8Z" fill="#00A19A"/>
<path d="M80.6 35.8H80C78.9 35.8 78.6 35.6 78.6 34.3V31.2H80.5C80.5795 31.2 80.6559 31.1684 80.7121 31.1121C80.7684 31.0559 80.8 30.9796 80.8 30.9V30.2C80.8 30.1204 80.7684 30.0441 80.7121 29.9879C80.6559 29.9316 80.5795 29.9 80.5 29.9H78.6V28.8C78.6028 28.7092 78.5747 28.62 78.5202 28.5473C78.4657 28.4746 78.388 28.4227 78.3 28.4H77.4C77.312 28.4227 77.2343 28.4746 77.1798 28.5473C77.1252 28.62 77.0971 28.7092 77.1 28.8V29.9H76.5C76.3 29.9 76.1 30 76.1 30.2V30.9C76.1 31.1 76.3 31.2 76.5 31.2H77.1V34.2C77.1 36.4 77.8 37.2 80 37.2H80.6C80.6689 37.175 80.7315 37.1352 80.7834 37.0834C80.8352 37.0315 80.875 36.9689 80.9 36.9V36.1C80.9 36.0204 80.8684 35.9441 80.8121 35.8879C80.7558 35.8316 80.6795 35.8 80.6 35.8Z" fill="#00A19A"/>
<path d="M83.6 29.5H84.7L86.1 27.8C86.1362 27.7594 86.1637 27.7119 86.1809 27.6603C86.1981 27.6087 86.2046 27.5542 86.2 27.5C86.1 27.3 86 27.3 85.9 27.3H84.7L83.3 29C83.2787 29.0188 83.2617 29.0418 83.25 29.0677C83.2383 29.0936 83.2323 29.1216 83.2323 29.15C83.2323 29.1784 83.2383 29.2064 83.25 29.2323C83.2617 29.2581 83.2787 29.2812 83.3 29.3C83.3 29.5 83.4 29.5 83.6 29.5Z" fill="#00A19A"/>
<path d="M84.4 29.7C84.0125 29.6563 83.6201 29.6971 83.2499 29.8195C82.8796 29.9419 82.5403 30.1431 82.2552 30.4091C81.9701 30.6752 81.7461 30.9999 81.5984 31.3608C81.4508 31.7218 81.3831 32.1104 81.4 32.5V34.6C81.4 36.3 82.5 37.3 84.4 37.3C86.3 37.3 87.4 36.3 87.4 34.6V32.5C87.4169 32.1104 87.3492 31.7218 87.2016 31.3608C87.0539 30.9999 86.8299 30.6752 86.5448 30.4091C86.2597 30.1431 85.9204 29.9419 85.5501 29.8195C85.1799 29.6971 84.7875 29.6563 84.4 29.7ZM86 32.5V34.5C86 35.5 85.5 35.9 84.4 35.9C83.3 35.9 82.9 35.4 82.9 34.5V32.5C82.9 31.6 83.4 31.1 84.4 31.1C85.4 31.1 86 31.6 86 32.5Z" fill="#00A19A"/>
<path d="M92.4 29.8H92C89.5 29.8 88.7 30.5 88.7 32.8V36.9C88.7 36.9796 88.7316 37.0559 88.7879 37.1121C88.8441 37.1684 88.9205 37.2 89 37.2H89.8C89.8909 37.2029 89.98 37.1747 90.0527 37.1202C90.1254 37.0657 90.1773 36.988 90.2 36.9V32.9C90.2 31.4 90.4 31.2 91.9 31.2H92.4C92.4909 31.2029 92.58 31.1747 92.6527 31.1202C92.7254 31.0657 92.7773 30.988 92.8 30.9V30.1C92.8 29.9 92.6 29.8 92.4 29.8Z" fill="#00A19A"/>
<path d="M94.6 29.9H93.8C93.6 29.9 93.4 30 93.4 30.2V36.9C93.4227 36.988 93.4747 37.0657 93.5474 37.1202C93.6201 37.1747 93.7092 37.2029 93.8 37.2H94.6C94.6796 37.2 94.7559 37.1684 94.8122 37.1121C94.8684 37.0559 94.9 36.9796 94.9 36.9V30.2C94.9 30.1204 94.8684 30.0441 94.8122 29.9879C94.7559 29.9316 94.6796 29.9 94.6 29.9Z" fill="#00A19A"/>
<path d="M94.3 27.7H94.1C93.8878 27.7 93.6843 27.7843 93.5343 27.9343C93.3843 28.0844 93.3 28.2878 93.3 28.5C93.3 28.7122 93.3843 28.9157 93.5343 29.0657C93.6843 29.2157 93.8878 29.3 94.1 29.3H94.3C94.5122 29.3 94.7156 29.2157 94.8657 29.0657C95.0157 28.9157 95.1 28.7122 95.1 28.5C95.1 28.2878 95.0157 28.0844 94.8657 27.9343C94.7156 27.7843 94.5122 27.7 94.3 27.7Z" fill="#00A19A"/>
<path d="M99.3 29.7C98.9125 29.6563 98.5201 29.6971 98.1499 29.8195C97.7796 29.9419 97.4403 30.1431 97.1552 30.4091C96.8701 30.6752 96.6461 30.9999 96.4984 31.3608C96.3508 31.7218 96.2831 32.1104 96.3 32.5V34.6C96.3 36.3 97.4 37.3 99.3 37.3C101.2 37.3 102.3 36.3 102.3 34.6V32.5C102.317 32.1104 102.249 31.7218 102.102 31.3608C101.954 30.9999 101.73 30.6752 101.445 30.4091C101.16 30.1431 100.82 29.9419 100.45 29.8195C100.08 29.6971 99.6875 29.6563 99.3 29.7ZM100.8 32.5V34.5C100.8 35.5 100.4 35.9 99.3 35.9C98.2 35.9 97.7 35.4 97.7 34.5V32.5C97.7 31.6 98.2 31.1 99.3 31.1C100.4 31.1 100.8 31.6 100.8 32.5Z" fill="#00A19A"/>
<path d="M75 39.2H74.3V40.1H73.5C73.3123 40.0849 73.1236 40.1108 72.9469 40.1758C72.7702 40.2408 72.6097 40.3435 72.4766 40.4766C72.3434 40.6097 72.2408 40.7702 72.1758 40.9469C72.1108 41.1236 72.0849 41.3123 72.1 41.5V42.5C72.0823 42.6971 72.1098 42.8957 72.1805 43.0805C72.2512 43.2654 72.3631 43.4317 72.5078 43.5667C72.6525 43.7017 72.826 43.8019 73.0153 43.8597C73.2046 43.9175 73.4046 43.9313 73.6 43.9C74.6 43.9 75.2 43.4 75.2 42.5V39.3H75M73.6 43.2C73.2 43.2 72.9 43 72.9 42.6V41.6C72.9 41.2 73.2 41 73.6 41C74 41 74.3 41.2 74.3 41.6V42.6C74.3 43 74.1 43.2 73.6 43.2Z" fill="#00A19A"/>
<path d="M77.2 40.1C76.2 40.1 75.6 40.6 75.6 41.5V42.5C75.6 43.4 76.2 43.9 77.2 43.9C77.3954 43.9313 77.5954 43.9175 77.7847 43.8597C77.9739 43.8019 78.1475 43.7017 78.2922 43.5667C78.4369 43.4316 78.5488 43.2654 78.6195 43.0805C78.6902 42.8957 78.7177 42.6971 78.7 42.5V41.5C78.7177 41.3029 78.6902 41.1044 78.6195 40.9195C78.5488 40.7347 78.4369 40.5684 78.2922 40.4333C78.1475 40.2983 77.9739 40.1981 77.7847 40.1403C77.5954 40.0826 77.3954 40.0688 77.2 40.1ZM76.5 41.5C76.5 41.1 76.7 40.9 77.2 40.9C77.7 40.9 77.9 41.1 77.9 41.5V42.5C77.9 42.9 77.7 43.1 77.2 43.1C76.7 43.1 76.5 42.9 76.5 42.5V41.5Z" fill="#00A19A"/>
<path d="M82.7 43H82.3C81.7 43 81.6 43 81.6 42.3V40.9H82.6C82.7 40.9 82.7 40.9 82.7 40.8V40.2C82.7 40.1735 82.6894 40.148 82.6707 40.1293C82.6519 40.1105 82.6265 40.1 82.6 40.1H81.6V39.6C81.6 39.5 81.6 39.4 81.5 39.4H80.9C80.8421 39.4513 80.8063 39.5229 80.8 39.6V40.1H80.3V40.7C80.3 40.7131 80.3026 40.7261 80.3076 40.7383C80.3126 40.7504 80.32 40.7614 80.3293 40.7707C80.3386 40.78 80.3496 40.7874 80.3617 40.7924C80.3738 40.7974 80.3869 40.8 80.4 40.8H80.8V42.2C80.8 43.3 81.2 43.7 82.3 43.7H82.8V43.1H82.7" fill="#00A19A"/>
<path d="M85.9 40.1H85.2V42.4C85.2 42.8 85 43 84.5 43C84.4173 43.0192 84.3311 43.017 84.2495 42.9936C84.1679 42.9703 84.0936 42.9265 84.0336 42.8665C83.9735 42.8065 83.9298 42.7321 83.9064 42.6505C83.8831 42.5689 83.8809 42.4827 83.9 42.4V40.2H83V42.5C82.9823 42.6971 83.0098 42.8957 83.0805 43.0805C83.1512 43.2654 83.2631 43.4316 83.4078 43.5667C83.5525 43.7017 83.7261 43.8019 83.9154 43.8597C84.1046 43.9175 84.3046 43.9312 84.5 43.9C85.5 43.9 86.1 43.4 86.1 42.5V40.2H85.9" fill="#00A19A"/>
<path d="M88.6 40.1H88.3C87 40.1 86.6 40.5 86.6 41.6V43.7H87.4V41.7C87.4 41 87.5 40.9 88.2 40.9H88.6C88.7 40.9 88.7 40.9 88.7 40.8V40.2C88.7 40.1 88.7 40.1 88.6 40.1Z" fill="#00A19A"/>
<path d="M89.7 40.1H89V43.6H89.8V40.2C89.8 40.1735 89.7895 40.148 89.7707 40.1293C89.752 40.1105 89.7265 40.1 89.7 40.1Z" fill="#00A19A"/>
<path d="M89.5 39.1H89.4C89.2831 39.0976 89.169 39.1364 89.0776 39.2095C88.9862 39.2825 88.9234 39.3853 88.9 39.5C88.9 39.6326 88.9527 39.7598 89.0465 39.8535C89.1402 39.9473 89.2674 40 89.4 40H89.5C89.6147 39.9766 89.7175 39.9138 89.7906 39.8224C89.8636 39.7311 89.9024 39.617 89.9 39.5C89.9 39.3939 89.8579 39.2922 89.7829 39.2171C89.7079 39.1421 89.6061 39.1 89.5 39.1Z" fill="#00A19A"/>
<path d="M92 41.6H91.9C91.3 41.5 91.2 41.4 91.2 41.2C91.2 41 91.2 40.9 91.8 40.9C92.4 40.9 92.4 41.1 92.4 41.2V41.4C92.4 41.4265 92.4105 41.452 92.4293 41.4707C92.448 41.4895 92.4735 41.5 92.5 41.5H93.2C93.2265 41.5 93.2519 41.4895 93.2707 41.4707C93.2895 41.452 93.3 41.4265 93.3 41.4V41.2C93.3 40.5 92.7 40.1 91.8 40.1C90.9 40.1 90.4 40.5 90.4 41.2C90.4 42.1 91.1 42.3 91.7 42.4H91.8C92.3 42.5 92.5 42.5 92.5 42.7C92.5 42.9 92.5 43.1 91.8 43.1C91.1 43.1 91.2 42.8 91.2 42.7V42.5H90.3V42.8C90.3 43.5 90.9 43.9 91.8 43.9C92.7 43.9 93.3 43.5 93.3 42.7C93.3 41.8 92.5 41.7 92 41.6Z" fill="#00A19A"/>
<path d="M97.2 40.1C96.8105 40.0781 96.4245 40.1834 96.1 40.4C95.9631 40.2836 95.8036 40.1968 95.6315 40.1452C95.4593 40.0936 95.2784 40.0782 95.1 40.1C94.2 40.1 93.7 40.5 93.7 41.3V43.7H94.6V41.4C94.6 41.2 94.6 40.9 95.1 40.9C95.6 40.9 95.7 41.2 95.7 41.4V43.7H96.6V41.4C96.6 41.2 96.6 40.9 97.1 40.9C97.6 40.9 97.7 41.2 97.7 41.4V43.7H98.5V41.3C98.5 40.5 98 40.1 97.2 40.1Z" fill="#00A19A"/>
<path d="M100.6 40.1C99.6 40.1 99 40.6 99 41.5V42.5C99 43.4 99.6 43.9 100.6 43.9C100.795 43.9313 100.995 43.9175 101.185 43.8597C101.374 43.8019 101.548 43.7017 101.692 43.5667C101.837 43.4316 101.949 43.2654 102.02 43.0805C102.09 42.8957 102.118 42.6971 102.1 42.5V41.5C102.118 41.3029 102.09 41.1044 102.02 40.9195C101.949 40.7347 101.837 40.5684 101.692 40.4333C101.548 40.2983 101.374 40.1981 101.185 40.1403C100.995 40.0826 100.795 40.0688 100.6 40.1ZM99.9 41.5C99.9 41.1 100.1 40.9 100.6 40.9C101.1 40.9 101.3 41.1 101.3 41.5V42.5C101.3 42.9 101.1 43.1 100.6 43.1C100.1 43.1 99.9 42.9 99.9 42.5V41.5Z" fill="#00A19A"/>
</g>
<defs>
<clipPath id="clip0_5_262">
<rect width="102.3" height="67" fill="white"/>
</clipPath>
</defs>
</svg>
