<svg width="30" height="28" viewBox="0 0 30 28" fill="none" xmlns="http://www.w3.org/2000/svg">
<g clip-path="url(#clip0_31_2472)">
<path d="M14.6483 2.46638C14.6326 4.25944 14.6404 6.04468 14.6404 7.83774V8.18226C14.1402 7.97085 13.6399 7.86906 13.1084 7.94736C12.7254 8.00217 12.3736 8.12745 12.0532 8.34669C11.803 8.51112 11.7405 8.77734 11.8734 9.00441C12.0141 9.23148 12.272 9.30195 12.5378 9.14535C13.1787 8.76951 13.8119 8.76951 14.4372 9.16884C14.5779 9.2628 14.6483 9.36459 14.6404 9.54468C14.6326 10.8758 14.6326 12.2069 14.6404 13.538C14.6404 13.7494 14.617 13.8042 14.3903 13.7181C13.593 13.4127 12.8192 13.4988 12.0922 13.9451C11.803 14.1252 11.7249 14.3914 11.8734 14.6342C12.0141 14.8691 12.2798 14.916 12.5691 14.7516C13.2178 14.3679 13.8432 14.3914 14.4607 14.8064C14.5857 14.8926 14.6404 14.9865 14.6404 15.1431C14.6326 18.7997 14.6404 22.4641 14.6404 26.1207C14.6404 26.2069 14.6326 26.293 14.5935 26.3791C13.9917 27.8668 11.9594 28.4932 10.6149 27.5928C11.0839 27.1465 11.3731 26.6062 11.4591 25.9563C11.5294 25.4395 11.4356 24.9462 11.2012 24.4764C11.0761 24.2259 10.826 24.1398 10.5836 24.2494C10.357 24.359 10.2397 24.5939 10.3491 24.8366C10.826 25.8858 10.3726 26.8333 9.25482 27.3735C7.59771 28.1722 5.62012 27.0995 5.33091 25.2829C5.29182 25.048 5.31527 24.8993 5.59667 24.821C6.15165 24.6644 6.67536 24.4138 7.12872 24.0536C7.46483 23.7874 7.73841 23.4742 7.85566 23.0514C7.94946 22.7225 7.84003 22.472 7.56645 22.3858C7.30068 22.2997 7.06618 22.425 6.97239 22.746C6.8864 23.0279 6.69099 23.2158 6.47213 23.3724C5.97968 23.7169 5.42471 23.9753 4.83846 24.0615C4.17405 24.1554 3.54873 23.897 3.00157 23.5055C1.52424 22.425 1.25066 20.3579 2.41532 18.925C2.43877 18.8937 2.46222 18.8624 2.48567 18.831C2.75925 18.4709 2.64201 18.1185 2.20428 18.0089C1.01616 17.7113 0.297034 16.9675 0.0390869 15.7695C0.0312704 15.746 0.00782064 15.7225 -0.0078125 15.699C0.148519 15.7147 0.125069 15.8478 0.148519 15.9418C0.445549 16.9518 1.10214 17.6017 2.10266 17.9071C2.75925 18.1028 2.86869 18.463 2.44659 19.0111C1.68838 19.9977 1.54769 21.0861 2.05576 22.2136C2.55602 23.3254 3.47056 23.897 4.68213 23.9988C4.75248 24.0066 4.82283 23.991 4.88536 23.9753C5.40126 23.8422 5.88588 23.6465 6.33143 23.3568C6.58937 23.1923 6.7926 22.9731 6.91767 22.6834C7.05837 22.3624 7.33976 22.2214 7.58989 22.3154C7.90256 22.4328 8.04326 22.7304 7.92601 23.0905C7.73059 23.7326 7.23815 24.1163 6.68317 24.4373C6.37051 24.6174 6.0344 24.7662 5.69047 24.8679C5.44815 24.9384 5.36217 25.0872 5.41689 25.3299C5.65139 26.3948 6.27671 27.1386 7.31632 27.4362C8.37155 27.7415 9.31736 27.4753 10.0521 26.6453C10.396 26.2539 10.5289 25.7762 10.3804 25.2516C10.3413 25.1263 10.3022 25.0089 10.271 24.8836C10.1772 24.5547 10.2944 24.2885 10.568 24.1789C10.8416 24.0771 11.123 24.1867 11.2715 24.4843C11.4982 24.9541 11.5998 25.4474 11.5138 25.9641C11.4278 26.4731 11.2324 26.9351 10.9119 27.35C10.7322 27.5849 10.74 27.6163 10.9979 27.7181C12.2564 28.2113 13.4914 27.7807 14.2496 26.7628C14.445 26.4966 14.5466 26.2069 14.5466 25.8624C14.5388 22.378 14.5388 18.8937 14.5388 15.4172C14.5388 14.9474 14.4216 14.7986 13.9839 14.6498C13.5227 14.4932 13.0849 14.5324 12.655 14.7673C12.6316 14.7829 12.6003 14.7986 12.5769 14.8064C12.2486 14.9709 11.9203 14.9004 11.7796 14.6342C11.6389 14.3601 11.7405 14.0313 12.0375 13.859C12.7019 13.4832 13.3976 13.3344 14.148 13.5615C14.5232 13.6711 14.531 13.6632 14.531 13.2874C14.531 12.1051 14.5232 10.9228 14.5388 9.7326C14.5466 9.40374 14.4059 9.22365 14.1324 9.09837C13.6712 8.89479 13.2022 8.89479 12.741 9.1062C12.6629 9.14535 12.5847 9.19233 12.5065 9.23148C12.2095 9.36459 11.9125 9.27846 11.7639 9.0279C11.6232 8.793 11.6936 8.4798 11.9437 8.29971C12.4049 7.97085 12.9364 7.83774 13.4914 7.8534C13.7415 7.86123 13.9995 7.90038 14.2418 7.97868C14.5076 8.06481 14.5232 8.04915 14.5232 7.76727C14.5232 6.82768 14.5232 5.88808 14.5232 4.94848C14.5232 4.16548 14.4919 3.38249 14.531 2.59949C14.5623 1.97309 14.3043 1.49546 13.9057 1.07264C12.5691 -0.368072 10.3179 -0.227133 9.16103 1.37018C8.94998 1.65989 8.96561 1.70687 9.26264 1.88696C10.1537 2.43506 10.6227 3.24155 10.6931 4.2751C10.7165 4.59613 10.7322 4.91716 10.6462 5.23819C10.5524 5.59837 10.3022 5.78629 9.9974 5.73148C9.68474 5.67667 9.53622 5.41828 9.58312 5.03461C9.61439 4.75273 9.63002 4.46302 9.59094 4.18897C9.46587 3.40598 9.03596 2.86571 8.2543 2.6543C7.88692 2.55251 7.543 2.40374 7.15998 2.3411C5.44815 2.06705 3.61908 3.46862 3.68161 5.48092C3.69724 5.88808 3.79104 6.27175 3.95519 6.64759C4.21314 7.20352 4.65868 7.43059 5.26837 7.30531C5.76863 7.20352 6.11256 7.49323 6.00313 7.93953C5.9406 8.19792 5.74518 8.31537 5.50287 8.37801C4.65086 8.59725 3.93174 8.33886 3.35331 7.72029C3.16572 7.51672 3.00938 7.49323 2.77489 7.59502C1.3679 8.20575 0.617513 9.9675 1.15686 11.4082C1.27411 11.7136 1.321 11.7449 1.63367 11.6666C2.72799 11.3926 3.85357 11.7919 4.51798 12.6923C4.63523 12.8489 4.69776 13.0134 4.6665 13.2091C4.60396 13.6006 4.18969 13.7807 3.86139 13.5615C3.73633 13.4832 3.64253 13.3657 3.54873 13.2561C3.0172 12.6454 2.17301 12.5122 1.47734 12.9194C0.820744 13.2952 0.367383 13.8747 0.156336 14.642C0.132886 14.736 0.156336 14.8691 4.07174e-06 14.8847C0.0469035 14.736 0.0859864 14.5872 0.132886 14.4462C0.398649 13.6632 0.914543 13.0995 1.64148 12.7393C2.32934 12.4026 3.16572 12.614 3.67379 13.2326C3.99427 13.6084 4.22095 13.6789 4.47108 13.4675C4.70558 13.2639 4.68213 12.9664 4.3851 12.6219C3.65034 11.7449 2.57947 11.4317 1.48515 11.7919C1.321 11.8467 1.26629 11.8154 1.20376 11.6744C0.422099 10.0615 1.32882 7.96302 3.02502 7.4071C3.21262 7.34446 3.25951 7.43059 3.3455 7.54804C3.89266 8.25273 4.77593 8.52678 5.58885 8.26056C5.91715 8.15094 6.05785 7.92387 5.97186 7.64199C5.8937 7.38361 5.65139 7.28182 5.33091 7.36012C4.68213 7.52455 4.16624 7.26616 3.90829 6.65542C3.04847 4.60396 4.32257 2.45072 6.52684 2.22365C6.8395 2.19233 7.15217 2.21582 7.45701 2.30195C7.82439 2.40374 8.19177 2.50553 8.54352 2.64647C9.29391 2.94401 9.64565 3.54692 9.716 4.32208C9.73945 4.58047 9.73164 4.84669 9.68474 5.11291C9.63784 5.39479 9.8098 5.62969 10.0756 5.66884C10.3335 5.70799 10.5524 5.55139 10.5993 5.27734C10.8807 3.82097 10.3257 2.41157 9.02033 1.83998C8.83273 1.76168 8.92653 1.66772 8.98125 1.57376C10.1225 -0.462032 13.1006 -0.524672 14.3434 1.46414C14.5466 1.76168 14.6483 2.08271 14.6483 2.46638Z" fill="white"/>
<path d="M15.4221 6.38921C15.4377 6.11517 15.4377 5.84112 15.4221 5.56707C15.4143 5.40264 15.4768 5.37132 15.6253 5.37132C16.1256 5.37915 16.618 5.36349 17.1183 5.37915C17.3137 5.38698 17.431 5.32434 17.5091 5.15208C17.5248 5.12076 17.5482 5.08161 17.5717 5.05029C17.7671 4.81539 17.7983 4.61181 17.6264 4.30644C17.2434 3.63306 17.4466 2.76394 18.0485 2.2315C18.6425 1.70689 19.5336 1.65208 20.1902 2.09056C20.8546 2.53687 21.136 3.36684 20.8781 4.12635C20.6201 4.87803 19.901 5.37132 19.1193 5.30868C18.9161 5.29302 18.7989 5.34 18.7051 5.52009C18.58 5.76282 18.4159 5.98206 18.283 6.22479C18.1345 6.47534 17.9156 6.59279 17.6342 6.58496C17.3137 6.57713 16.9932 6.58496 16.6649 6.58496C16.321 6.58496 15.9771 6.57713 15.641 6.59279C15.4612 6.60845 15.4143 6.54581 15.4221 6.38921Z" fill="white"/>
<path d="M20.9328 24.1007C21.1047 24.9855 20.5888 25.8389 19.729 26.113C19.0334 26.3322 18.2673 26.0973 17.814 25.5179C17.3684 24.9463 17.3059 24.1633 17.6967 23.5448C17.8061 23.3647 17.7514 23.2629 17.6811 23.1063C17.5091 22.7148 17.2512 22.5738 16.8213 22.6208C16.4383 22.66 16.0396 22.6208 15.6488 22.6365C15.4534 22.6443 15.4221 22.566 15.4299 22.4016C15.4377 22.1588 15.4455 21.9161 15.4299 21.6656C15.4143 21.4698 15.469 21.3915 15.68 21.3993C16.0083 21.415 16.3445 21.4072 16.6727 21.4072C16.9932 21.4072 17.3137 21.4072 17.642 21.4072C17.9234 21.4072 18.1266 21.5168 18.2673 21.7595C18.4158 22.0101 18.58 22.2528 18.7207 22.5112C18.7989 22.66 18.9005 22.6991 19.0646 22.6835C19.9792 22.6052 20.7608 23.2081 20.9328 24.1007Z" fill="white"/>
<path d="M25.1303 24.8524C24.9427 25.6197 24.2079 26.1991 23.4185 26.1991C22.6212 26.1991 21.8864 25.6354 21.6988 24.8602C21.4956 24.0615 21.863 23.2551 22.6133 22.8636C22.754 22.7931 22.8322 22.7148 22.8009 22.5582C22.7931 22.5269 22.8009 22.4955 22.8009 22.4721C22.7853 21.9944 22.9573 21.4463 22.7462 21.0548C22.4336 20.4832 21.9177 20.0291 21.4878 19.5202C21.4018 19.4184 21.2924 19.4497 21.1907 19.4497C19.3773 19.4497 17.5638 19.4419 15.7426 19.4575C15.4846 19.4575 15.3987 19.4027 15.4221 19.1365C15.4534 18.8468 15.3283 18.4553 15.4768 18.2908C15.641 18.0951 16.0396 18.236 16.3445 18.2282C17.1183 18.2204 17.8843 18.2282 18.6582 18.2282C19.6352 18.2282 20.6123 18.236 21.5894 18.2282C21.863 18.2282 22.074 18.3222 22.2538 18.5336C22.7697 19.1443 23.2856 19.7551 23.8093 20.3658C23.9656 20.5459 24.036 20.7416 24.0281 20.9765C24.0203 21.509 24.0281 22.0336 24.0203 22.5582C24.0203 22.7148 24.0594 22.7931 24.2001 22.8714C24.9583 23.2472 25.3257 24.0459 25.1303 24.8524Z" fill="white"/>
<path d="M15.7035 8.54247C17.5091 8.5503 19.3148 8.54247 21.1204 8.5503C21.3471 8.5503 21.4956 8.47983 21.6363 8.30757C21.9646 7.90041 22.3163 7.50109 22.6602 7.10176C22.7619 6.98431 22.8088 6.86686 22.8009 6.71026C22.7931 6.28744 22.7931 5.87245 22.8009 5.44963C22.8009 5.30086 22.7775 5.21473 22.6212 5.13643C21.8239 4.72927 21.4643 3.86798 21.7301 3.038C21.9802 2.24717 22.7853 1.7069 23.5748 1.80869C24.4815 1.92614 25.1459 2.60735 25.1694 3.5078C25.1928 4.23599 24.8567 4.78408 24.2079 5.1286C24.0516 5.21473 24.0125 5.30086 24.0125 5.45746C24.0203 5.9899 24.0125 6.51451 24.0203 7.03912C24.0203 7.26619 23.95 7.45411 23.8015 7.62637C23.2778 8.22927 22.7619 8.84001 22.246 9.45858C22.0662 9.67782 21.8473 9.77961 21.5581 9.77178C20.581 9.76395 19.604 9.77178 18.6269 9.77178C17.642 9.77178 16.6571 9.76395 15.6722 9.77961C15.469 9.77961 15.3987 9.7248 15.4143 9.52122C15.4299 9.28632 15.4299 9.05142 15.4143 8.81652C15.4065 8.58945 15.4846 8.54247 15.7035 8.54247Z" fill="white"/>
<path d="M15.4925 15.9809C15.5003 16.7561 15.4065 16.6778 16.1803 16.6778C17.9156 16.6778 19.6587 16.6856 21.394 16.67C21.7379 16.67 21.9724 16.7717 22.1991 17.038C22.8713 17.8288 23.5592 18.604 24.2314 19.387C24.4112 19.5984 24.6457 19.6688 24.9114 19.6688C25.3335 19.6688 25.7556 19.6845 26.1699 19.6688C26.4669 19.6532 26.6545 19.7471 26.8187 20.0055C27.5143 21.1096 28.8979 20.9451 29.4998 20.2169C29.6404 20.0525 29.7342 19.8568 29.8202 19.661C29.8593 19.5827 29.8593 19.4574 29.9922 19.4574C29.9062 19.5201 29.9218 19.6297 29.8906 19.7236C29.617 20.397 29.1324 20.8042 28.4054 20.8747C27.6472 20.9451 27.0688 20.6319 26.7014 19.9742C26.592 19.7863 26.4826 19.7236 26.2793 19.7315C25.8181 19.7471 25.357 19.7236 24.9036 19.7393C24.5753 19.7471 24.333 19.6375 24.1141 19.387C23.4185 18.5648 22.7071 17.7662 22.0037 16.944C21.8786 16.7952 21.7457 16.7483 21.5503 16.7483C19.5962 16.7561 17.642 16.7483 15.6957 16.7561C15.4846 16.7561 15.3987 16.7169 15.4143 16.482C15.4377 16.2471 15.4299 16.0122 15.4143 15.7773C15.3987 15.5738 15.4612 15.5111 15.6644 15.519C16.2897 15.5346 16.9151 15.5268 17.5404 15.5268C19.0021 15.5268 20.4716 15.5346 21.9333 15.519C22.246 15.519 22.4727 15.6207 22.6681 15.8556C23.3637 16.67 24.0829 17.4764 24.7785 18.2986C24.9192 18.463 25.0599 18.5413 25.2788 18.5178C25.4195 18.5022 25.5758 18.51 25.7165 18.5178C26.2012 18.5492 26.592 18.5335 26.9125 18.0011C27.2642 17.4138 27.9364 17.2494 28.6243 17.4138C29.2965 17.5704 29.7264 18.0089 29.9297 18.6666C29.9453 18.7214 29.914 18.7919 29.9922 18.8154C29.8515 18.8154 29.8593 18.6901 29.828 18.6118C29.5623 17.9306 29.0698 17.5078 28.3429 17.453C27.655 17.3981 27.1079 17.7035 26.764 18.3221C26.6467 18.5257 26.4982 18.6196 26.2715 18.6118C25.9198 18.604 25.568 18.6118 25.2163 18.6118C25.0287 18.6118 24.8802 18.5413 24.7551 18.4004C24.0672 17.5861 23.3559 16.7952 22.6681 15.9809C22.457 15.7304 22.2147 15.6129 21.8786 15.6129C19.8697 15.6207 17.8531 15.6129 15.8442 15.6129C15.5081 15.6129 15.4925 15.6286 15.4925 15.9809Z" fill="white"/>
<path d="M30 9.24717C29.9062 9.29415 29.9218 9.39594 29.8906 9.47424C29.6014 10.1868 29.0698 10.5939 28.3116 10.6409C27.5847 10.6801 27.0297 10.3512 26.6858 9.70914C26.592 9.52905 26.4904 9.48207 26.3106 9.4899C25.8729 9.50556 25.3726 9.37245 25.013 9.53688C24.6457 9.70131 24.4112 10.1554 24.1219 10.4843C23.6373 11.0402 23.1449 11.604 22.6602 12.1678C22.4727 12.387 22.2616 12.481 21.9724 12.481C19.8697 12.4731 17.7749 12.4731 15.6722 12.481C15.4612 12.481 15.3987 12.4261 15.4143 12.2226C15.4299 11.9877 15.4377 11.7528 15.4143 11.5179C15.3908 11.2908 15.4768 11.2438 15.6879 11.2438C17.6342 11.2516 19.5727 11.2438 21.519 11.2516C21.7457 11.2516 21.8942 11.1812 22.0349 11.0089C22.7306 10.1868 23.4419 9.38811 24.1454 8.56596C24.333 8.34672 24.5519 8.25276 24.8333 8.25276C25.3413 8.26059 25.8494 8.25276 26.3575 8.26059C26.4982 8.26059 26.5842 8.2371 26.6545 8.09616C27.0453 7.35232 27.7098 7.01563 28.5149 7.12525C29.2184 7.21921 29.7655 7.75947 29.9531 8.5503C29.9531 8.56596 29.9766 8.57379 29.9922 8.58945C29.8515 8.58162 29.8671 8.45634 29.8359 8.37804C29.5154 7.50892 28.7806 7.07044 27.8739 7.21921C27.3971 7.29751 27.061 7.59505 26.8108 7.98654C26.6467 8.24493 26.4513 8.33106 26.1543 8.32323C25.7478 8.30757 25.3335 8.32323 24.9271 8.3154C24.5988 8.3154 24.3564 8.43285 24.1376 8.69124C23.4575 9.49773 22.754 10.2807 22.0662 11.0872C21.902 11.283 21.6988 11.3143 21.4643 11.3143C19.6509 11.3143 17.8296 11.3143 16.0162 11.3143C15.4846 11.3143 15.4846 11.3143 15.4846 11.8389C15.4846 12.387 15.4846 12.387 16.024 12.387C17.9469 12.387 19.8697 12.3792 21.7926 12.3948C22.1913 12.3948 22.4727 12.2539 22.7228 11.9563C23.3872 11.1655 24.0829 10.3903 24.7551 9.60735C24.8802 9.46641 25.0287 9.39594 25.2163 9.39594C25.5367 9.39594 25.865 9.4116 26.1855 9.39594C26.4747 9.38028 26.6467 9.4899 26.7952 9.74046C27.186 10.406 27.9443 10.7114 28.6556 10.5C29.1793 10.3434 29.5545 10.0067 29.7811 9.50556C29.8437 9.39594 29.8437 9.255 30 9.24717Z" fill="white"/>
<path d="M14.4372 9.16104C13.8041 8.75389 13.1787 8.76171 12.5378 9.13755C12.272 9.29415 12.0141 9.22368 11.8734 8.99661C11.7327 8.76955 11.803 8.50333 12.0532 8.3389C12.3736 8.12749 12.7254 7.99438 13.1084 7.93957C13.6321 7.8691 14.1324 7.96306 14.6404 8.17447V7.82995C14.6404 6.03688 14.6326 4.25165 14.6483 2.45858C14.6483 2.07492 14.5466 1.75389 14.3512 1.44069C13.1084 -0.532467 10.1303 -0.469827 8.98906 1.56597C8.93435 1.65993 8.84055 1.75389 9.02815 1.83219C10.3335 2.40377 10.8885 3.81317 10.6071 5.26955C10.5524 5.54359 10.3413 5.70019 10.0834 5.66104C9.81762 5.62189 9.64566 5.38699 9.69256 5.10512C9.73946 4.8389 9.75509 4.58051 9.72382 4.31429C9.64566 3.53912 9.29391 2.93621 8.55134 2.63867C8.19959 2.49773 7.83221 2.39594 7.46483 2.29415C7.15999 2.20802 6.84732 2.18453 6.53466 2.21585C4.33039 2.45075 3.04847 4.61183 3.91611 6.66328C4.17406 7.27402 4.68995 7.53241 5.33873 7.36798C5.6592 7.28968 5.90152 7.39147 5.97968 7.64986C6.06567 7.93174 5.92497 8.15881 5.59667 8.26843C4.78375 8.53465 3.89266 8.25277 3.35332 7.5559C3.26733 7.44628 3.21262 7.36015 3.03284 7.41496C1.32882 7.97089 0.429919 10.0693 1.21158 11.6823C1.28192 11.8232 1.33664 11.8546 1.49297 11.7997C2.58729 11.4396 3.65816 11.7528 4.40074 12.6297C4.69777 12.9742 4.72122 13.2718 4.48672 13.4754C4.23659 13.6868 4.00209 13.6163 3.68943 13.2405C3.17353 12.6297 2.34498 12.4183 1.65712 12.7472C0.922363 13.1074 0.406469 13.6711 0.148522 14.4541C0.101623 14.6029 0.0625397 14.7516 0.0156403 14.8926V15.7147C0.0312734 15.7382 0.0547231 15.7539 0.0625397 15.7852C0.320487 16.9832 1.03961 17.727 2.22773 18.0246C2.66546 18.1342 2.78271 18.4865 2.50913 18.8467C2.48568 18.878 2.46223 18.9094 2.43878 18.9407C1.25066 20.3579 1.52424 22.425 3.0172 23.4977C3.56436 23.8892 4.18187 24.1476 4.8541 24.0537C5.44034 23.9754 5.9875 23.7091 6.48776 23.3646C6.71444 23.208 6.90204 23.0201 6.98802 22.7382C7.08964 22.4172 7.31632 22.2919 7.58208 22.378C7.85566 22.4642 7.96509 22.7147 7.87129 23.0436C7.75405 23.4664 7.48047 23.7796 7.14435 24.0458C6.68318 24.406 6.16728 24.6566 5.61231 24.8132C5.33091 24.8915 5.30746 25.0402 5.34654 25.2751C5.62794 27.0995 7.61335 28.1644 9.27046 27.3657C10.3804 26.8333 10.8416 25.878 10.3648 24.8288C10.2553 24.5861 10.3648 24.3512 10.5993 24.2416C10.8338 24.132 11.0839 24.2103 11.2168 24.4687C11.4513 24.9306 11.5451 25.4239 11.4747 25.9485C11.3888 26.5906 11.0995 27.1308 10.6305 27.585C11.975 28.4854 14.0073 27.859 14.6092 26.3713C14.6404 26.2852 14.6561 26.2069 14.6561 26.1129C14.6561 22.4563 14.6561 18.7919 14.6561 15.1353C14.6561 14.9787 14.6014 14.8848 14.4763 14.7986C13.851 14.3836 13.2256 14.3601 12.5847 14.7438C12.3033 14.9161 12.0375 14.8613 11.889 14.6264C11.7405 14.3836 11.8187 14.1174 12.1079 13.9373C12.8348 13.491 13.6087 13.4049 14.4059 13.7103C14.6326 13.7964 14.6561 13.7494 14.6561 13.5302C14.6483 12.1991 14.6483 10.868 14.6561 9.53688C14.6483 9.36462 14.5857 9.255 14.4372 9.16104ZM12.147 18.557C12.1548 18.8467 11.9672 19.0268 11.6232 19.0581C11.5373 19.066 11.4513 19.066 11.3966 19.066C10.0521 19.0581 8.94216 18.0872 8.75457 16.7874C8.71548 16.5212 8.864 16.2863 9.10631 16.2315C9.37989 16.1767 9.60657 16.3176 9.66911 16.6074C9.82544 17.359 10.2397 17.8758 10.9979 18.0794C11.1933 18.1342 11.3809 18.1185 11.5763 18.1107C11.9281 18.1029 12.1391 18.2673 12.147 18.557ZM7.48047 19.2069C7.41012 19.4575 7.19125 19.5827 6.90986 19.5358C5.51069 19.293 4.51017 17.7505 4.86191 16.3881C4.91663 16.1689 5.11204 16.0123 5.33091 16.0201C5.60449 16.0279 5.80772 16.2707 5.78427 16.5604C5.68265 17.7114 6.04222 18.2595 7.15217 18.6431C7.41012 18.7293 7.55081 18.9642 7.48047 19.2069ZM6.73007 11.2595C6.49558 11.4161 6.22981 11.3378 6.08912 11.1185C5.94842 10.8993 6.01095 10.6252 6.25326 10.4608C6.68318 10.1711 7.1678 10.038 7.70715 10.0223C8.59824 10.0537 9.33299 10.4373 9.87234 11.1733C10.0521 11.4161 10.0209 11.6901 9.82544 11.8546C9.61439 12.0268 9.31736 11.9955 9.13758 11.7371C8.6295 11.0246 7.5899 10.6957 6.73007 11.2595Z" fill="white"/>
<path d="M30 18.8154V19.4574C29.914 19.5201 29.9297 19.6297 29.8984 19.7236C29.6248 20.397 29.1402 20.8042 28.4132 20.8747C27.655 20.9451 27.0766 20.6319 26.7092 19.9742C26.5998 19.7863 26.4904 19.7236 26.2871 19.7315C25.826 19.7471 25.3648 19.7236 24.9114 19.7393C24.5831 19.7471 24.3408 19.6375 24.1219 19.387C23.4263 18.5648 22.715 17.7662 22.0115 16.944C21.8864 16.7952 21.7535 16.7483 21.5581 16.7483C19.604 16.7561 17.6498 16.7483 15.7035 16.7561C15.4924 16.7561 15.4065 16.7169 15.4221 16.482C15.4456 16.2471 15.4377 16.0122 15.4221 15.7773C15.4065 15.5738 15.469 15.5111 15.6722 15.519C16.2976 15.5346 16.9229 15.5268 17.5482 15.5268C19.0099 15.5268 20.4794 15.5346 21.9411 15.519C22.2538 15.519 22.4805 15.6207 22.6759 15.8556C23.3716 16.67 24.0907 17.4764 24.7864 18.2986C24.9271 18.463 25.0677 18.5413 25.2866 18.5178C25.4273 18.5022 25.5836 18.51 25.7243 18.5178C26.209 18.5492 26.5998 18.5335 26.9203 18.0011C27.272 17.4138 27.9442 17.2494 28.6321 17.4138C29.3043 17.5704 29.7342 18.0089 29.9375 18.6666C29.9531 18.7136 29.9297 18.7841 30 18.8154Z" fill="white"/>
<path d="M30 8.5973V9.23936C29.9062 9.28634 29.9218 9.38813 29.8906 9.46643C29.6014 10.179 29.0698 10.5861 28.3116 10.6331C27.5847 10.6722 27.0297 10.3434 26.6858 9.70133C26.592 9.52124 26.4904 9.47426 26.3106 9.48209C25.8729 9.49775 25.3726 9.36464 25.013 9.52907C24.6457 9.6935 24.4112 10.1476 24.1219 10.4765C23.6373 11.0324 23.1449 11.5962 22.6602 12.1599C22.4727 12.3792 22.2616 12.4731 21.9724 12.4731C19.8697 12.4653 17.7749 12.4653 15.6722 12.4731C15.4612 12.4731 15.3987 12.4183 15.4143 12.2147C15.4299 11.9798 15.4377 11.745 15.4143 11.5101C15.3908 11.283 15.4768 11.236 15.6879 11.236C17.6342 11.2438 19.5727 11.236 21.519 11.2438C21.7457 11.2438 21.8942 11.1734 22.0349 11.0011C22.7306 10.179 23.4419 9.3803 24.1454 8.55815C24.333 8.33891 24.5519 8.24495 24.8333 8.24495C25.3413 8.25278 25.8494 8.24495 26.3575 8.25278C26.4982 8.25278 26.5842 8.22929 26.6545 8.08835C27.0453 7.3445 27.7098 7.00781 28.5149 7.11743C29.2184 7.21139 29.7655 7.75166 29.9531 8.54249C29.9687 8.57381 29.9922 8.58947 30 8.5973Z" fill="white"/>
<path d="M25.1303 24.8524C24.9427 25.6197 24.2079 26.1991 23.4185 26.1991C22.6212 26.1991 21.8864 25.6354 21.6988 24.8602C21.4956 24.0615 21.863 23.2551 22.6133 22.8636C22.754 22.7931 22.8322 22.7148 22.8009 22.5582C22.7931 22.5269 22.8009 22.4955 22.8009 22.4721C22.7853 21.9944 22.9573 21.4463 22.7462 21.0548C22.4336 20.4832 21.9177 20.0291 21.4878 19.5202C21.4018 19.4184 21.2924 19.4497 21.1907 19.4497C19.3773 19.4497 17.5638 19.4419 15.7426 19.4575C15.4846 19.4575 15.3987 19.4027 15.4221 19.1365C15.4534 18.8468 15.3283 18.4553 15.4768 18.2908C15.641 18.0951 16.0396 18.236 16.3445 18.2282C17.1183 18.2204 17.8843 18.2282 18.6582 18.2282C19.6352 18.2282 20.6123 18.236 21.5894 18.2282C21.863 18.2282 22.074 18.3222 22.2538 18.5336C22.7697 19.1443 23.2856 19.7551 23.8093 20.3658C23.9656 20.5459 24.036 20.7416 24.0281 20.9765C24.0203 21.509 24.0281 22.0336 24.0203 22.5582C24.0203 22.7148 24.0594 22.7931 24.2001 22.8714C24.9583 23.2472 25.3257 24.0459 25.1303 24.8524Z" fill="white"/>
<path d="M25.1772 3.5078C25.2006 4.23599 24.8645 4.78408 24.2157 5.1286C24.0594 5.21473 24.0203 5.30086 24.0203 5.45746C24.0281 5.9899 24.0203 6.51451 24.0281 7.03912C24.0281 7.26619 23.9578 7.45411 23.8093 7.62637C23.2856 8.22927 22.7697 8.84001 22.2538 9.45858C22.074 9.67782 21.8551 9.77961 21.5659 9.77178C20.5888 9.76395 19.6118 9.77178 18.6347 9.77178C17.6498 9.77178 16.6649 9.76395 15.68 9.77961C15.4768 9.77961 15.4065 9.7248 15.4221 9.52122C15.4377 9.28632 15.4377 9.05142 15.4221 8.81652C15.4065 8.58945 15.4846 8.54247 15.6957 8.54247C17.5013 8.5503 19.3069 8.54247 21.1126 8.5503C21.3392 8.5503 21.4878 8.47983 21.6285 8.30757C21.9568 7.90041 22.3085 7.50109 22.6524 7.10176C22.754 6.98431 22.8009 6.86686 22.7931 6.71026C22.7853 6.28744 22.7853 5.87245 22.7931 5.44963C22.7931 5.30086 22.7697 5.21473 22.6133 5.13643C21.8161 4.72927 21.4565 3.86798 21.7223 3.038C21.9724 2.24717 22.7775 1.7069 23.567 1.80869C24.4815 1.92614 25.1459 2.60735 25.1772 3.5078Z" fill="white"/>
<path d="M20.8624 4.14201C20.6045 4.89369 19.8854 5.38698 19.1037 5.32434C18.9005 5.30868 18.7832 5.35566 18.6894 5.53575C18.5644 5.77848 18.4002 5.99772 18.2673 6.24044C18.1188 6.491 17.9 6.60845 17.6186 6.60062C17.2981 6.59279 16.9776 6.60062 16.6493 6.60062C16.3054 6.60062 15.9614 6.59279 15.6253 6.60845C15.4534 6.61628 15.4065 6.55364 15.4143 6.38921C15.4299 6.11517 15.4299 5.84112 15.4143 5.56707C15.4065 5.40264 15.469 5.37132 15.6175 5.37132C16.1178 5.37915 16.6102 5.36349 17.1105 5.37915C17.3059 5.38698 17.4231 5.32434 17.5013 5.15208C17.5169 5.12076 17.5404 5.08161 17.5638 5.05029C17.7593 4.81539 17.7905 4.61181 17.6186 4.30644C17.2355 3.63306 17.4388 2.76394 18.0406 2.2315C18.6347 1.70689 19.5258 1.65208 20.1824 2.09056C20.8468 2.55253 21.1282 3.3825 20.8624 4.14201Z" fill="white"/>
<path d="M19.729 26.113C19.0334 26.3322 18.2673 26.0973 17.814 25.5179C17.3684 24.9463 17.3059 24.1633 17.6967 23.5448C17.8061 23.3647 17.7514 23.2629 17.6811 23.1063C17.5091 22.7148 17.2512 22.5738 16.8213 22.6208C16.4382 22.66 16.0396 22.6208 15.6488 22.6365C15.4534 22.6443 15.4221 22.566 15.4299 22.4016C15.4377 22.1588 15.4455 21.9161 15.4299 21.6656C15.4143 21.4698 15.469 21.3915 15.68 21.3993C16.0083 21.415 16.3445 21.4072 16.6727 21.4072C16.9932 21.4072 17.3137 21.4072 17.642 21.4072C17.9234 21.4072 18.1266 21.5168 18.2673 21.7595C18.4158 22.0101 18.58 22.2528 18.7207 22.5112C18.7989 22.66 18.9005 22.6991 19.0646 22.6835C19.9713 22.6052 20.753 23.2081 20.925 24.1007C21.1047 24.9855 20.5888 25.8389 19.729 26.113Z" fill="white"/>
</g>
<defs>
<clipPath id="clip0_31_2472">
<rect width="30" height="28" fill="white"/>
</clipPath>
</defs>
</svg>
