<svg width="255" height="179" viewBox="0 0 255 179" fill="none" xmlns="http://www.w3.org/2000/svg">
<g clip-path="url(#clip0_47_8309)">
<path d="M186.567 4.11049C191.197 2.6273 196.124 2.33066 200.967 2.6273C207.934 3.05106 215.197 4.74614 220.295 9.49235C223.523 12.4587 225.647 16.3998 228.281 19.9594C235.8 30.257 247.439 37.5882 252.536 49.2843C256.869 59.2852 255.255 71.8288 247.779 79.7532C240.302 87.6777 227.134 89.9237 217.916 84.1604C209.038 78.6091 205.13 67.5911 196.974 60.9803C191.154 56.2764 183.678 54.1576 177.391 50.1318C170.935 46.0212 165.71 39.5376 164.52 31.9521C163.543 25.6803 165.795 18.8576 170.68 14.7471C175.48 10.7637 180.492 6.05982 186.567 4.11049Z" fill="#DBF6FF"/>
<path d="M226.794 80.8552C218.766 82.1265 210.95 80.05 202.964 78.6092C195.275 77.2107 187.629 74.541 181.512 69.5405C178.708 67.2522 176.244 64.4129 175.14 60.938C173.568 56.0223 175.013 50.7252 174.97 45.5552C174.97 39.4953 173.441 33.6897 169.235 29.2401C166.687 26.528 163.713 24.1549 161.674 21.019C157.469 14.4506 160.74 5.67855 167.281 1.99176C173.271 -1.35602 180.875 -0.0423312 187.076 2.88167C193.278 5.80568 198.716 10.1705 204.96 13.0098C211.799 16.1456 219.275 17.3746 226.794 18.095C232.571 18.6459 238.433 17.9678 243.106 21.358C246.462 23.7735 248.841 27.3755 250.242 31.2742C252.876 38.6478 252.324 47.2927 251.134 54.9205C250.327 60.0057 248.713 65.0486 245.74 69.2863C242.086 74.4986 236.564 78.2278 230.447 80.0076C229.258 80.389 228.026 80.6433 226.794 80.8552Z" fill="#BCDFEB"/>
<path d="M214.22 179H27.9085C13.8481 168.279 4.07795 152.981 1.44427 135.521C0.339821 128.275 0.977003 119.672 6.88155 115.308C16.0145 108.612 29.6926 117.045 39.9725 112.384C46.5992 109.375 49.8701 101.577 49.955 94.2886C50.04 86.9998 47.5762 80.0076 45.7071 72.9731C43.8806 65.9385 42.6487 58.353 45.1549 51.488C47.6612 44.6653 54.9675 39.1139 62.0615 40.9361C68.0935 42.5041 71.959 48.6063 77.7361 50.9371C83.7681 53.3526 90.7771 51.149 96.1294 47.4622C101.482 43.7754 105.73 38.7325 110.742 34.622C119.535 27.3331 131.132 22.8836 142.431 24.5787C153.731 26.2737 164.18 35.0034 165.922 46.2332C167.366 55.429 163.501 66.0656 169.15 73.4816C175.522 81.8298 188.861 79.4991 198.078 84.5843C205.597 88.7373 209.59 98.3144 207.254 106.536C204.875 114.926 196.762 122.003 198.078 130.606C199.013 136.793 204.535 141.073 208.401 145.988C215.835 155.481 219.19 168.024 214.22 179Z" fill="#DBF6FF"/>
<path d="M205.47 179H45.8346C40.992 174.593 35.5547 170.525 32.7936 164.592C30.0325 158.659 30.0325 150.904 34.5777 146.2C40.0575 140.479 49.1904 141.242 56.879 139.378C65.7571 137.174 73.8281 130.097 74.975 121.028C76.4618 109.332 66.6492 98.6957 67.2439 86.915C67.7111 77.6344 75.6122 69.3286 84.8726 68.3115C91.1169 67.6335 97.6162 69.9218 103.648 68.1844C109.255 66.5741 113.291 61.8278 118.133 58.6072C123.826 54.8357 131.132 53.2253 137.716 55.0899C144.3 56.9545 149.865 62.633 150.757 69.4133C151.692 76.6174 147.784 84.7961 151.947 90.7289C155.047 95.1785 161.249 96.026 166.644 95.8565C172.081 95.687 177.816 94.9666 182.616 97.5516C187.034 99.967 189.668 104.925 190.177 109.926C190.687 114.926 189.285 119.969 187.204 124.546C185.42 128.571 183.083 132.343 181.724 136.538C180.365 140.734 180.067 145.522 182.319 149.336C184.655 153.32 189.158 155.396 192.854 158.235C199.268 163.066 204.96 170.821 205.47 179Z" fill="#BCDFEB"/>
<path d="M192.089 24.2397L201.307 47.6318L220.975 36.5714L192.089 24.2397Z" fill="#FAFAFA"/>
<path d="M192.089 24.2397L210.227 42.6313L215.155 39.8344L192.089 24.2397Z" fill="#D9D9D9"/>
<path d="M215.155 39.8345L211.714 48.3099L210.227 42.6313L215.155 39.8345Z" fill="#D9D9D9"/>
<path d="M211.714 48.3099L207.466 44.1569L210.227 42.6313L211.714 48.3099Z" fill="#B0B0B0"/>
<path d="M71.4918 171.754C50.7196 166.287 32.5812 151.497 23.1084 132.258C19.2004 124.334 16.6941 115.477 17.2889 106.663C17.8836 97.8482 21.8341 88.9915 28.928 83.6944C36.022 78.3973 46.3868 77.2531 53.9055 81.9569C61.1694 86.4912 64.6102 95.2209 70.897 101.027C78.4158 107.976 90.3523 110.01 99.4003 105.222C108.448 100.476 113.546 88.9067 110.275 79.2448C107.216 70.3033 98.5507 64.7095 91.032 58.9463C83.5132 53.183 76.037 45.089 77.0989 35.6813C78.0335 27.5874 85.1699 21.5275 92.6462 18.3916C107.046 12.3741 125.567 15.0438 135.38 27.1636C145.915 40.1733 143.876 59.2005 139.16 75.2614C134.403 91.3222 127.394 107.553 129.773 124.164C131.727 137.937 140.307 150.311 151.649 158.405C162.991 166.499 176.924 170.482 190.857 171.33C204.748 172.177 219.658 169.592 229.938 160.227C240.217 150.862 243.701 133.402 234.61 122.893C229.895 117.469 222.886 114.672 216.132 112.172C209.378 109.671 202.326 107.044 197.441 101.789C192.556 96.5346 190.645 87.7202 195.275 82.1688C200.585 75.7699 214.815 75.0495 219.828 68.4387C223.396 63.6925 219.233 54.5814 215.155 50.0895" stroke="#52BFDE" stroke-width="2.5409" stroke-miterlimit="10" stroke-dasharray="7.62 7.62"/>
<path d="M59.9375 147.218C50.9745 141.327 42.946 133.954 36.3194 125.521C33.5582 121.961 31.0095 118.232 29.3104 114.036C27.6112 109.884 26.8466 105.264 27.6537 100.857C28.2484 97.679 29.99 94.3736 33.0485 93.3989C35.4273 92.5938 38.1459 93.4413 40.1424 94.9669C42.1389 96.4924 43.5407 98.696 44.7726 100.857C49.5727 109.333 52.5038 118.656 56.0295 127.724C57.7286 132.089 59.5977 136.369 61.8491 140.437C62.9535 142.471 64.1854 144.463 65.5023 146.328C66.7341 148.065 68.943 149.887 69.6652 151.752C67.966 153.15 61.5942 148.277 59.9375 147.218Z" fill="#429C9B"/>
<path d="M34.6627 98.145C39.038 116.706 49.3603 133.826 63.7606 146.412" stroke="#57BABD" stroke-width="2.0199" stroke-miterlimit="10"/>
<path d="M179.515 147.302C187.246 143.573 194.34 138.573 200.415 132.555C202.963 130.055 205.385 127.3 207.126 124.207C208.868 121.071 209.972 117.511 209.803 113.909C209.675 111.324 208.613 108.57 206.319 107.426C204.493 106.536 202.284 106.917 200.542 107.934C198.801 108.951 197.484 110.519 196.252 112.129C191.579 118.316 188.308 125.436 184.57 132.216C182.786 135.479 180.875 138.7 178.666 141.708C177.561 143.192 176.414 144.632 175.14 145.989C173.993 147.217 172.081 148.446 171.274 149.845C172.549 151.159 178.113 147.98 179.515 147.302Z" fill="#429C9B"/>
<path d="M204.578 111.07C199.183 125.308 189.243 137.81 176.584 146.285" stroke="#57BABD" stroke-width="1.6117" stroke-miterlimit="10"/>
<path d="M63.8456 135.055C68.6882 111.281 63.5057 85.6858 49.9125 65.5991" stroke="#61A9B8" stroke-width="2.5409" stroke-miterlimit="10"/>
<path d="M51.3143 67.93C47.4063 66.6587 44.008 63.9466 41.8841 60.4717C39.7601 56.9544 38.953 52.7167 39.6327 48.6909C43.7531 49.7927 47.6612 52.3353 49.8276 56.0221C52.0365 59.6665 52.2914 63.7771 51.3143 67.93Z" fill="#61A9B8"/>
<path d="M55.6472 75.6425C54.7551 72.6338 55.01 69.286 56.2843 66.4044C57.6012 63.5227 59.9375 61.1496 62.8261 59.8359C63.9305 62.9295 63.973 66.5315 62.6137 69.5402C61.2544 72.5066 58.7056 74.4136 55.6472 75.6425Z" fill="#61A9B8"/>
<path d="M55.9445 75.3461C53.5657 73.2696 50.4223 72.0831 47.2789 72.0407C44.1354 71.9983 40.9495 73.1425 38.5282 75.219C40.907 77.5073 44.1354 79.0753 47.4488 79.0753C50.7196 79.1176 53.5232 77.6344 55.9445 75.3461Z" fill="#61A9B8"/>
<path d="M60.5747 87.8468C60.2349 84.7109 61.042 81.4479 62.8261 78.8629C64.6102 76.2779 67.3713 74.3286 70.4298 73.5234C70.982 76.7865 70.4298 80.3037 68.5182 83.0159C66.6067 85.728 63.8031 87.2112 60.5747 87.8468Z" fill="#61A9B8"/>
<path d="M60.8721 87.5926C58.8756 85.1348 55.987 83.4397 52.886 82.8464C49.7851 82.2955 46.4718 82.8464 43.7531 84.4567C45.6647 87.1265 48.5957 89.2453 51.8241 89.7962C55.0949 90.3895 58.1534 89.4572 60.8721 87.5926Z" fill="#61A9B8"/>
<path d="M63.8031 100.052C63.7181 96.9158 64.8226 93.7375 66.8191 91.2796C68.8156 88.8218 71.7466 87.1691 74.8476 86.6182C75.1024 89.8812 74.2529 93.3985 72.1289 95.8987C70.0475 98.4413 67.074 99.6703 63.8031 100.052Z" fill="#61A9B8"/>
<path d="M64.1429 99.8399C62.4013 97.2126 59.6402 95.2632 56.6242 94.4157C53.5657 93.5681 50.2099 93.8648 47.3638 95.2208C49.063 98.0601 51.7816 100.391 54.9675 101.238C58.1109 102.128 61.2544 101.45 64.1429 99.8399Z" fill="#61A9B8"/>
<path d="M65.6722 113.485C66.097 110.349 67.6687 107.383 70.005 105.306C72.3838 103.187 75.4848 102.001 78.6707 101.958C78.4158 105.222 77.014 108.527 74.5502 110.731C72.0865 112.892 68.9855 113.612 65.6722 113.485Z" fill="#61A9B8"/>
<path d="M66.0545 113.316C64.7376 110.434 62.3163 108.103 59.4703 106.789C56.5817 105.476 53.2259 105.264 50.2099 106.154C51.4418 109.205 53.7356 111.959 56.7516 113.316C59.7676 114.672 62.9535 114.46 66.0545 113.316Z" fill="#61A9B8"/>
<path d="M176.287 143.234C171.062 119.545 175.777 93.8649 189.073 73.5664" stroke="#61A9B8" stroke-width="2.5409" stroke-miterlimit="10"/>
<path d="M187.714 75.9393C191.579 74.5832 194.935 71.8287 197.016 68.3114C199.055 64.7941 199.82 60.5141 199.055 56.4883C194.935 57.6748 191.112 60.3022 188.988 63.989C186.822 67.6758 186.652 71.7863 187.714 75.9393Z" fill="#61A9B8"/>
<path d="M183.466 83.6945C184.315 80.6434 184.018 77.2956 182.659 74.4563C181.299 71.6171 178.921 69.244 176.032 67.9727C174.97 71.1085 174.97 74.6682 176.414 77.6346C177.816 80.6433 180.365 82.5503 183.466 83.6945Z" fill="#61A9B8"/>
<path d="M183.211 83.398C185.547 81.2792 188.691 80.0502 191.834 79.9655C194.978 79.8807 198.163 80.9825 200.627 82.9743C198.291 85.305 195.105 86.9153 191.792 87.0001C188.478 87.0848 185.632 85.644 183.211 83.398Z" fill="#61A9B8"/>
<path d="M178.793 95.984C179.09 92.8481 178.241 89.585 176.372 87.0424C174.545 84.4574 171.784 82.5929 168.683 81.8301C168.216 85.0931 168.811 88.6104 170.722 91.2801C172.676 93.9499 175.522 95.3907 178.793 95.984Z" fill="#61A9B8"/>
<path d="M178.453 95.7721C180.407 93.2719 183.253 91.5344 186.354 90.8988C189.455 90.2631 192.769 90.814 195.53 92.3396C193.661 95.0517 190.772 97.1706 187.544 97.8486C184.273 98.4419 181.214 97.552 178.453 95.7721Z" fill="#61A9B8"/>
<path d="M175.735 108.231C175.777 105.095 174.588 101.917 172.549 99.5011C170.51 97.0856 167.579 95.4753 164.435 94.9668C164.223 98.2722 165.157 101.705 167.324 104.205C169.49 106.748 172.464 107.934 175.735 108.231Z" fill="#61A9B8"/>
<path d="M175.395 108.061C177.094 105.391 179.813 103.4 182.829 102.51C185.845 101.62 189.2 101.832 192.089 103.145C190.432 105.985 187.756 108.4 184.613 109.29C181.427 110.222 178.326 109.587 175.395 108.061Z" fill="#61A9B8"/>
<path d="M174.078 121.707C173.611 118.571 171.997 115.647 169.575 113.613C167.196 111.536 164.01 110.392 160.867 110.392C161.164 113.655 162.651 116.961 165.157 119.079C167.664 121.198 170.765 121.919 174.078 121.707Z" fill="#61A9B8"/>
<path d="M173.696 121.58C174.97 118.698 177.306 116.283 180.195 114.969C183.041 113.613 186.397 113.316 189.455 114.164C188.266 117.257 186.014 120.012 182.998 121.41C180.025 122.766 176.839 122.639 173.696 121.58Z" fill="#61A9B8"/>
<path d="M60.065 159.168C61.3818 156.752 63.1234 154.549 64.2704 152.091C61.2119 148.192 57.5162 144.717 53.6507 141.624C51.1444 139.632 48.4683 137.725 45.7496 135.988C43.2434 137.979 40.7371 139.971 38.2734 141.92C38.6982 138.445 38.953 135.437 39.3353 132.174C33.7706 129.165 27.951 126.707 21.919 124.8C20.5172 127.046 19.3703 129.377 17.5012 131.326C17.5437 128.783 17.2889 126.114 16.949 123.402C11.3843 121.961 5.69215 121.028 0 120.689C0 122.978 0.127436 125.266 0.382309 127.555C1.86907 127.088 3.01599 125.859 4.58771 125.605C3.52574 128.105 2.5912 130.902 1.35932 133.445C2.71864 139.505 5.05497 145.353 8.1984 150.735C10.8321 149.209 13.2959 147.09 16.4393 145.777C15.8871 150.608 15.8871 155.65 15.4623 160.524C17.1189 162.346 18.903 164.041 20.8146 165.609C24.1704 168.363 27.8236 170.737 31.6892 172.686C32.4963 169.677 33.3033 166.711 35.2574 164.211C37.5512 168.575 40.015 172.432 42.0965 176.712C50.7621 179.17 60.0225 179.678 68.8581 177.983C70.3448 177.686 71.5342 175.356 72.0015 173.957C72.4688 172.559 72.3838 170.991 72.1714 169.508C71.5342 164.846 69.7926 160.524 67.3713 156.583C64.8226 157.176 62.2314 157.896 60.065 159.168Z" fill="#61A9B8"/>
<path d="M62.5712 173.491C42.1814 161.541 23.5332 146.582 7.3913 129.334" stroke="#85CCE0" stroke-width="2.5409" stroke-miterlimit="10"/>
<path d="M180.62 163.956C179.388 162.304 177.859 160.863 176.712 159.125C178.581 155.905 180.96 152.896 183.508 150.226C185.165 148.446 186.949 146.794 188.776 145.183C190.857 146.412 192.939 147.599 194.977 148.828C194.298 146.285 193.788 144.081 193.151 141.666C196.974 138.827 201.052 136.369 205.3 134.335C206.574 135.86 207.721 137.471 209.293 138.7C208.995 136.793 208.911 134.801 208.868 132.724C212.861 131.072 216.982 129.758 221.187 128.868C221.442 130.563 221.612 132.301 221.654 134.038C220.507 133.869 219.488 133.063 218.298 133.063C219.36 134.843 220.337 136.793 221.527 138.572C221.144 143.234 220.04 147.853 218.256 152.175C216.132 151.328 214.093 149.972 211.587 149.336C212.521 152.853 213.073 156.625 213.881 160.227C212.819 161.753 211.672 163.193 210.44 164.592C208.273 167.007 205.767 169.169 203.091 171.033C202.199 168.872 201.264 166.753 199.523 165.1C198.291 168.575 196.847 171.711 195.742 175.144C189.54 177.898 182.744 179.254 175.947 178.958C174.843 178.915 173.653 177.305 173.186 176.288C172.676 175.271 172.591 174.127 172.591 173.025C172.591 169.508 173.398 166.117 174.8 162.897C176.882 162.982 178.878 163.278 180.62 163.956Z" fill="#61A9B8"/>
<path d="M180.322 174.89C194.213 163.787 206.532 150.692 216.684 136.115" stroke="#85CCE0" stroke-width="1.9105" stroke-miterlimit="10"/>
<path d="M178.836 179H60.4897C57.941 179 55.902 176.966 55.902 174.423V98.6534C55.902 96.1108 57.941 94.0767 60.4897 94.0767H178.836C181.384 94.0767 183.423 96.1108 183.423 98.6534V174.381C183.423 176.923 181.342 179 178.836 179Z" fill="#101439"/>
<path d="M181.809 137.457C182.301 135.385 181.017 133.307 178.94 132.815C176.862 132.324 174.779 133.606 174.287 135.678C173.794 137.75 175.079 139.828 177.156 140.32C179.233 140.811 181.316 139.53 181.809 137.457Z" fill="#1C2363"/>
<path d="M58.5782 150.904C57.8985 150.904 57.3463 150.353 57.3463 149.675V123.401C57.3463 122.723 57.8985 122.172 58.5782 122.172C59.2579 122.172 59.8101 122.723 59.8101 123.401V149.675C59.8101 150.353 59.2579 150.904 58.5782 150.904Z" fill="#1C2363"/>
<path d="M172.676 97.2124H61.5517V175.864H172.676V97.2124Z" fill="#DCE8F4"/>
<path d="M172.719 97.2124H61.5942V102.51H172.719V97.2124Z" fill="#A6AFB8"/>
<path d="M64.7801 100.094H63.3783V101.874H64.7801V100.094Z" fill="#FC6047"/>
<path d="M66.6067 98.8228H65.2049V101.832H66.6067V98.8228Z" fill="#FC6047"/>
<path d="M68.5607 97.9751H67.1589V101.874H68.5607V97.9751Z" fill="#FC6047"/>
<path d="M163.841 98.314V98.5683C163.841 98.7802 163.671 98.9497 163.458 98.9497H163.033C162.821 98.9497 162.651 99.1192 162.651 99.331V100.475C162.651 100.687 162.821 100.857 163.033 100.857H163.458C163.671 100.857 163.841 101.026 163.841 101.238V101.492C163.841 101.704 164.01 101.874 164.223 101.874H170C170.212 101.874 170.382 101.704 170.382 101.492V98.314C170.382 98.1021 170.212 97.9326 170 97.9326H164.223C164.01 97.9326 163.841 98.1021 163.841 98.314Z" fill="#DCE8F4"/>
<path d="M170.042 101.619H169.023C168.938 101.619 168.896 101.577 168.896 101.492V98.2717C168.896 98.1869 168.938 98.1445 169.023 98.1445H170.042C170.127 98.1445 170.17 98.1869 170.17 98.2717V101.492C170.17 101.535 170.085 101.619 170.042 101.619Z" fill="#B7FC47"/>
<path d="M168.428 101.619H167.409C167.324 101.619 167.281 101.577 167.281 101.492V98.2717C167.281 98.1869 167.324 98.1445 167.409 98.1445H168.428C168.513 98.1445 168.556 98.1869 168.556 98.2717V101.492C168.556 101.535 168.513 101.619 168.428 101.619Z" fill="#B7FC47"/>
<path d="M166.814 101.619H165.795C165.71 101.619 165.667 101.577 165.667 101.492V98.2717C165.667 98.1869 165.71 98.1445 165.795 98.1445H166.814C166.899 98.1445 166.942 98.1869 166.942 98.2717V101.492C166.984 101.535 166.899 101.619 166.814 101.619Z" fill="#B7FC47"/>
<path d="M160.952 99.882C160.952 100.687 160.272 101.365 159.465 101.365C158.658 101.365 157.978 100.687 157.978 99.882C157.978 99.0769 158.658 98.3989 159.465 98.3989C160.272 98.3565 160.952 99.0345 160.952 99.882Z" fill="#DCE8F4"/>
<path d="M165.667 108.442H68.6032V169.804H165.667V108.442Z" fill="#C3CED9"/>
<path d="M165.667 108.442H68.6032V113.739H165.667V108.442Z" fill="#A7B1BA"/>
<path d="M163.713 116.452H100.165V118.952H163.713V116.452Z" fill="#E0EDFA"/>
<path d="M135.252 121.283H100.165V123.783H135.252V121.283Z" fill="#E0EDFA"/>
<path d="M119.025 126.071H100.165V128.572H119.025V126.071Z" fill="#E0EDFA"/>
<path d="M163.713 134.377H100.165V136.877H163.713V134.377Z" fill="#E0EDFA"/>
<path d="M135.252 139.166H100.165V141.666H135.252V139.166Z" fill="#E0EDFA"/>
<path d="M119.025 143.954H100.165V146.454H119.025V143.954Z" fill="#E0EDFA"/>
<path d="M163.713 151.836H100.165V154.337H163.713V151.836Z" fill="#E0EDFA"/>
<path d="M135.252 156.625H100.165V159.125H135.252V156.625Z" fill="#E0EDFA"/>
<path d="M119.025 161.414H100.165V163.914H119.025V161.414Z" fill="#E0EDFA"/>
<path d="M97.064 116.452H72.4263V130.309H97.064V116.452Z" fill="#E0EDFA"/>
<path d="M72.4263 130.309L84.7451 123.401L97.064 130.309H72.4263Z" fill="#CEDAE6"/>
<path d="M97.064 116.452L84.7451 123.401L72.4263 116.452H97.064Z" fill="#CEDAE6"/>
<path d="M97.064 134.292H72.4263V148.15H97.064V134.292Z" fill="#E0EDFA"/>
<path d="M72.4263 148.107L84.7451 141.2L97.064 148.107H72.4263Z" fill="#CEDAE6"/>
<path d="M97.064 134.292L84.7451 141.2L72.4263 134.292H97.064Z" fill="#CEDAE6"/>
<path d="M97.064 152.091H72.4263V165.948H97.064V152.091Z" fill="#E0EDFA"/>
<path d="M72.4263 165.905L84.7451 158.998L97.064 165.905H72.4263Z" fill="#CEDAE6"/>
<path d="M97.064 152.091L84.7451 158.998L72.4263 152.091H97.064Z" fill="#CEDAE6"/>
<g opacity="0.44">
<path d="M101.269 97.2124L61.5517 136.835V102.213L66.6067 97.2124H101.269Z" fill="white"/>
<path d="M125.355 97.2124L61.5517 160.863V143.149L107.641 97.2124H125.355Z" fill="white"/>
</g>
<g opacity="0.44">
<path d="M172.676 105.772V140.394L137.121 175.864H102.416L172.676 105.772Z" fill="white"/>
<path d="M172.676 146.708V164.422L161.207 175.864H143.493L172.676 146.708Z" fill="white"/>
</g>
<path d="M80.3273 95.0513L113.248 69.5827C115.33 67.9724 118.261 67.9724 120.342 69.5827L153.263 95.0513V137.725H80.3273V95.0513Z" fill="#EE8F23"/>
<path d="M144.81 72.4644H88.7381V133.996H144.81V72.4644Z" fill="#FAFAFA"/>
<path d="M141.454 76.1514H92.1364V78.016H141.454V76.1514Z" fill="#DBDBDB"/>
<path d="M134.063 79.9229H92.1364V81.7874H134.063V79.9229Z" fill="#DBDBDB"/>
<path d="M127.266 83.6943H92.1364V85.5589H127.266V83.6943Z" fill="#DBDBDB"/>
<path d="M127.266 90.9409H92.1364V92.8055H127.266V90.9409Z" fill="#DBDBDB"/>
<path d="M118.176 94.5425H92.1364V96.4071H118.176V94.5425Z" fill="#DBDBDB"/>
<path d="M142.856 102.128H116.817V103.993H142.856V102.128Z" fill="#DBDBDB"/>
<path d="M142.856 105.815H121.659V107.68H142.856V105.815Z" fill="#DBDBDB"/>
<path d="M116.817 116.409L80.3273 95.0938V137.725L116.817 116.409Z" fill="#FFAC42"/>
<path d="M116.817 116.409L153.263 95.0938V137.725L116.817 116.409Z" fill="#FFAC42"/>
<path d="M113.248 112.257L80.3273 137.725H153.263L120.342 112.257C118.261 110.646 115.33 110.646 113.248 112.257Z" fill="#FFBE6E"/>
<path d="M158.762 96.6252C159.604 93.6035 157.831 90.4733 154.802 89.6338C151.773 88.7943 148.635 90.5632 147.793 93.5849C146.952 96.6066 148.725 99.7367 151.754 100.576C154.783 101.416 157.921 99.6469 158.762 96.6252Z" fill="#FC6D5F"/>
<path d="M151.989 92.2124V97.7214H150.417V93.4413H149.398V92.2548H151.989V92.2124Z" fill="white"/>
<path d="M156.577 94.6703C156.959 94.9669 157.129 95.3907 157.129 95.9416C157.129 96.2806 157.044 96.5772 156.874 96.8739C156.704 97.1705 156.449 97.3824 156.067 97.5519C155.727 97.7214 155.26 97.8062 154.75 97.8062C154.368 97.8062 153.985 97.7638 153.603 97.679C153.221 97.5943 152.881 97.4671 152.626 97.2976L153.178 96.1111C153.391 96.2382 153.646 96.3653 153.901 96.4501C154.155 96.5348 154.41 96.5772 154.708 96.5772C154.963 96.5772 155.175 96.5348 155.345 96.4077C155.515 96.323 155.6 96.1535 155.6 95.9839C155.6 95.8144 155.515 95.6449 155.345 95.5602C155.175 95.4754 154.92 95.433 154.495 95.433H153.008L153.263 92.2124H156.789V93.399H154.58L154.495 94.2041H154.878C155.642 94.2041 156.194 94.3736 156.577 94.6703Z" fill="white"/>
<path d="M59.2154 44.4961C60.1924 44.5384 61.042 44.7927 61.8066 45.3012C62.5712 45.8098 63.1659 46.4878 63.5482 47.3353C63.8456 47.971 64.0155 48.5643 64.0155 49.1152C64.0155 49.6661 63.9305 50.1322 63.6757 50.556C63.4208 50.9374 63.081 51.2764 62.6562 51.4883C62.2739 51.6578 61.934 51.7425 61.5942 51.7001C61.2544 51.6578 60.957 51.5306 60.6597 51.2764C60.6172 52.0392 60.1924 52.6324 59.3853 53.0138C58.9605 53.2257 58.5357 53.2681 58.0685 53.2257C57.6012 53.1833 57.1764 53.0138 56.7516 52.7172C56.3269 52.4205 56.0295 51.9968 55.7746 51.4883C55.5198 50.9797 55.3923 50.4712 55.4348 49.9627C55.4348 49.4542 55.6047 49.0304 55.8596 48.6066C56.1145 48.2252 56.4543 47.9286 56.8791 47.7167C57.5163 47.4201 58.0685 47.3777 58.6207 47.632L58.3658 47.1234L60.1075 46.3183L61.6367 49.5389C61.7641 49.7508 61.8491 49.9203 61.9765 49.9627C62.104 50.0051 62.2314 50.0051 62.4013 49.9627C62.8261 49.7508 62.8261 49.1152 62.2739 48.0134C61.9341 47.3353 61.5093 46.8268 60.957 46.4454C60.4048 46.064 59.7676 45.8945 59.0455 45.8521C58.3234 45.8521 57.6012 45.9793 56.8366 46.3607C56.1145 46.6997 55.5198 47.1658 55.095 47.7591C54.6702 48.3524 54.4153 48.988 54.3728 49.7084C54.3304 50.4288 54.4578 51.1069 54.7976 51.8273C55.1374 52.5477 55.6047 53.0986 56.1569 53.5224C56.7516 53.9461 57.3888 54.158 58.111 54.2004C58.8331 54.2428 59.5552 54.0732 60.3199 53.7342C61.0845 53.3952 61.7217 52.8867 62.1889 52.251L63.1235 53.1833C62.8686 53.48 62.5712 53.7766 62.1464 54.1156C61.7217 54.4123 61.2969 54.6665 60.8721 54.8784C59.8526 55.3446 58.8331 55.5988 57.8561 55.5141C56.8791 55.4717 55.987 55.175 55.2224 54.6241C54.4578 54.0732 53.8206 53.3528 53.3958 52.4205C52.971 51.4883 52.7586 50.556 52.8436 49.6237C52.9286 48.6914 53.2684 47.8015 53.8631 46.9963C54.4578 46.1911 55.2649 45.5555 56.2844 45.047C57.3039 44.6656 58.2809 44.4537 59.2154 44.4961ZM59.7676 50.6831C59.8526 50.3865 59.8101 50.0474 59.6402 49.666C59.4703 49.2847 59.2154 49.0304 58.9181 48.9033C58.6207 48.7761 58.3234 48.8185 58.026 48.9456C57.7287 49.0728 57.5163 49.327 57.4313 49.6237C57.3463 49.9203 57.3888 50.2593 57.5587 50.6407C57.7287 51.0221 57.9835 51.2764 58.2809 51.4035C58.5782 51.5306 58.8756 51.5306 59.1729 51.3611C59.4703 51.234 59.6827 51.0221 59.7676 50.6831Z" fill="#BCDFEB"/>
<path d="M156.024 46.742L155.472 48.5218L157.044 48.8184L156.747 50.4288L154.963 50.0898L154.368 51.912L152.669 51.6153L153.263 49.7931L151.734 49.4965L151.139 51.3187L149.44 51.022L150.035 49.1998L148.463 48.9032L148.761 47.2929L150.545 47.6319L151.097 45.8521L149.525 45.5554L149.823 43.9451L151.607 44.2841L152.201 42.4619L153.901 42.7586L153.306 44.5808L154.835 44.8774L155.43 43.0552L157.129 43.3518L156.534 45.174L158.106 45.4707L157.809 47.081L156.024 46.742ZM154.325 46.4453L152.796 46.1487L152.244 47.9285L153.773 48.2252L154.325 46.4453Z" fill="#BCDFEB"/>
<path d="M74.1255 155.82H52.971C46.5567 155.82 41.3318 150.65 41.3318 144.209C41.3318 137.81 46.5143 132.598 52.971 132.598H62.4863C68.9006 132.598 74.1255 137.768 74.1255 144.209V155.82Z" fill="#FFBE6E"/>
<path d="M57.7287 135.437C52.8861 135.437 48.9355 139.378 48.9355 144.209C48.9355 149.04 52.8861 152.981 57.7287 152.981C62.5712 152.981 66.5218 149.04 66.5218 144.209C66.5218 139.378 62.5712 135.437 57.7287 135.437ZM50.0825 144.209C50.0825 143.616 50.1674 143.065 50.2949 142.514C50.6772 142.344 51.4418 142.048 52.4613 141.751C52.2064 143.065 52.1215 144.548 52.3338 146.116C51.6542 145.946 50.932 145.735 50.1674 145.438C50.125 145.057 50.0825 144.633 50.0825 144.209ZM53.6082 141.497C55.5622 141.116 58.1959 140.946 61.3818 141.539C61.6792 143.065 61.8491 144.802 61.5517 146.582C59.5128 146.921 56.7941 147.048 53.4808 146.37C53.1834 144.59 53.3109 142.938 53.6082 141.497ZM62.5712 141.794C63.4208 142.005 64.3129 142.26 65.2049 142.556C65.3324 143.065 65.3748 143.616 65.3748 144.209C65.3748 144.633 65.3324 145.057 65.2474 145.48C64.8226 145.692 63.973 146.031 62.6987 146.328C62.9111 144.76 62.8261 143.192 62.5712 141.794ZM64.7801 141.243C63.9306 140.988 63.1235 140.734 62.3164 140.565C62.019 139.293 61.5942 138.192 61.2969 137.429C62.8686 138.276 64.1005 139.632 64.7801 141.243ZM59.7676 136.878C59.98 137.259 60.6172 138.573 61.0845 140.353C58.2384 139.887 55.8171 139.971 53.9056 140.268C54.4153 138.573 55.095 137.386 55.3498 136.963C56.1145 136.708 56.8791 136.581 57.7287 136.581C58.4508 136.581 59.1305 136.666 59.7676 136.878ZM53.6932 137.725C53.3533 138.446 53.0135 139.378 52.7162 140.48C51.9091 140.649 51.2719 140.861 50.7621 141.073C51.3993 139.717 52.4188 138.531 53.6932 137.725ZM50.5497 146.752C51.2719 146.964 51.9515 147.175 52.5887 147.345C52.8436 148.489 53.3109 149.676 54.033 150.905C52.3763 149.972 51.1444 148.531 50.5497 146.752ZM55.8596 151.625C54.8401 150.269 54.2029 148.913 53.8206 147.599C55.4348 147.896 56.9216 148.023 58.2809 148.023C59.4278 148.023 60.4473 147.938 61.3393 147.811C60.9995 149.125 60.4048 150.396 59.5128 151.625C58.9605 151.752 58.3658 151.837 57.7711 151.837C57.0915 151.837 56.4543 151.752 55.8596 151.625ZM61.2544 150.989C61.8916 149.888 62.2739 148.743 62.5288 147.599C63.5058 147.387 64.3129 147.133 64.8651 146.921C64.2279 148.659 62.9111 150.142 61.2544 150.989Z" fill="#FAFAFA"/>
<path d="M157.341 170.143H178.496C184.91 170.143 190.135 164.973 190.135 158.532C190.135 152.133 184.953 146.921 178.496 146.921H168.981C162.566 146.921 157.341 152.091 157.341 158.532V170.143Z" fill="#FFBE6E"/>
<path d="M182.404 155.185C182.404 151.922 177.179 149.082 173.696 151.922C170.212 149.082 164.988 151.922 164.988 155.185C164.988 155.185 163.883 161.626 173.696 166.287C183.551 161.626 182.404 155.185 182.404 155.185Z" stroke="#FAFAFA" stroke-width="3.8114" stroke-miterlimit="10" stroke-linejoin="round"/>
<path d="M150.375 17.0358C150.247 16.9935 150.12 16.9511 149.95 16.9087C149.908 16.7816 149.865 16.6544 149.823 16.5273C149.61 15.9764 149.313 15.4679 148.761 14.917C148.208 15.4679 147.911 15.9764 147.699 16.5273C147.656 16.6544 147.614 16.7816 147.571 16.9087C147.444 16.9511 147.316 16.9935 147.189 17.0358C146.637 17.2477 146.127 17.5444 145.575 18.0953C146.127 18.6462 146.637 18.9428 147.189 19.1547C147.316 19.1971 147.444 19.2394 147.571 19.2818C147.614 19.4089 147.656 19.5361 147.699 19.7056C147.911 20.2565 148.208 20.765 148.761 21.3159C149.355 20.765 149.61 20.2565 149.823 19.7056C149.865 19.5785 149.908 19.4513 149.95 19.3242C150.077 19.2818 150.205 19.2394 150.332 19.1971C150.885 18.9852 151.394 18.6885 151.947 18.1376C151.437 17.502 150.927 17.2477 150.375 17.0358Z" fill="#BCDFEB"/>
<path d="M5.8196 106.663C5.69216 106.62 5.56473 106.578 5.39481 106.536C5.35233 106.409 5.30986 106.281 5.26738 106.154C5.05498 105.603 4.75763 105.095 4.20541 104.544C3.65318 105.095 3.35583 105.603 3.14344 106.154C3.10096 106.281 3.05848 106.409 3.016 106.536C2.88857 106.578 2.76113 106.62 2.63369 106.663C2.08147 106.875 1.57172 107.171 1.0195 107.722C1.57172 108.273 2.08147 108.57 2.63369 108.782C2.76113 108.824 2.88857 108.866 3.016 108.909C3.05848 109.036 3.10096 109.163 3.14344 109.333C3.35583 109.883 3.65318 110.392 4.20541 110.943C4.80011 110.392 5.05498 109.883 5.26738 109.333C5.30986 109.205 5.35233 109.078 5.39481 108.951C5.52225 108.909 5.64969 108.866 5.77712 108.824C6.32935 108.612 6.83909 108.315 7.39131 107.765C6.88157 107.171 6.32935 106.917 5.8196 106.663Z" fill="#BCDFEB"/>
<path d="M161.462 80.7282C161.334 80.6858 161.207 80.6435 161.037 80.6011C160.995 80.474 160.952 80.3468 160.91 80.2197C160.697 79.6688 160.4 79.1603 159.848 78.6094C159.295 79.1603 158.998 79.6688 158.786 80.2197C158.743 80.3468 158.701 80.474 158.658 80.6011C158.531 80.6435 158.403 80.6858 158.276 80.7282C157.724 80.9401 157.214 81.2367 156.662 81.7876C157.214 82.3385 157.724 82.6352 158.276 82.8471C158.403 82.8894 158.531 82.9318 158.658 82.9742C158.701 83.1013 158.743 83.2285 158.786 83.398C158.998 83.9489 159.295 84.4574 159.848 85.0083C160.442 84.4574 160.697 83.9489 160.91 83.398C160.952 83.2708 160.995 83.1437 161.037 83.0166C161.164 82.9742 161.292 82.9318 161.419 82.8894C161.972 82.6776 162.481 82.3809 163.033 81.83C162.524 81.2367 162.014 80.9401 161.462 80.7282Z" fill="#BCDFEB"/>
<path d="M217.364 25.2991C217.279 25.2567 217.236 25.2567 217.151 25.2143C217.151 25.1296 217.109 25.0872 217.067 25.0024C216.939 24.7482 216.812 24.4515 216.514 24.1973C216.217 24.4515 216.089 24.7482 215.962 25.0024C215.92 25.0872 215.92 25.1296 215.877 25.2143C215.792 25.2143 215.75 25.2567 215.665 25.2991C215.41 25.4262 215.112 25.5533 214.858 25.85C215.112 26.1466 215.41 26.2737 215.665 26.4009C215.75 26.4432 215.792 26.4432 215.877 26.4856C215.877 26.5704 215.92 26.6127 215.962 26.6975C216.089 26.9518 216.217 27.2484 216.514 27.5027C216.812 27.2484 216.939 26.9518 217.067 26.6975C217.109 26.6127 217.109 26.5704 217.151 26.4856C217.236 26.4856 217.279 26.4432 217.364 26.4009C217.619 26.2737 217.916 26.1466 218.171 25.85C217.916 25.5533 217.661 25.4262 217.364 25.2991Z" fill="#DBF6FF"/>
<path d="M233.931 73.0154C233.846 72.973 233.803 72.973 233.718 72.9306C233.718 72.8459 233.676 72.8035 233.633 72.7187C233.506 72.4645 233.378 72.1678 233.081 71.9136C232.784 72.1678 232.656 72.4645 232.529 72.7187C232.486 72.8035 232.486 72.8459 232.444 72.9306C232.359 72.9306 232.316 72.973 232.231 73.0154C231.977 73.1425 231.679 73.2696 231.424 73.5663C231.679 73.8629 231.977 73.99 232.231 74.1172C232.316 74.1595 232.359 74.1596 232.444 74.2019C232.444 74.2867 232.486 74.3291 232.529 74.4138C232.656 74.6681 232.784 74.9647 233.081 75.219C233.378 74.9647 233.506 74.6681 233.633 74.4138C233.676 74.3291 233.676 74.2867 233.718 74.2019C233.803 74.2019 233.846 74.1595 233.931 74.1172C234.185 73.99 234.483 73.8629 234.738 73.5663C234.44 73.2696 234.185 73.1425 233.931 73.0154Z" fill="#DBF6FF"/>
<path d="M233.293 71.9138C233.208 71.8714 233.166 71.8714 233.081 71.8291C233.081 71.7443 233.038 71.7019 232.996 71.6172C232.869 71.3629 232.741 71.0663 232.444 70.812C232.146 71.0663 232.019 71.3629 231.892 71.6172C231.849 71.7019 231.849 71.7443 231.807 71.8291C231.722 71.8291 231.679 71.8714 231.594 71.9138C231.339 72.0409 231.042 72.1681 230.787 72.4647C231.042 72.7613 231.339 72.8885 231.594 73.0156C231.679 73.058 231.722 73.058 231.807 73.1004C231.807 73.1851 231.849 73.2275 231.892 73.3122C232.019 73.5665 232.146 73.8631 232.444 74.1174C232.741 73.8631 232.869 73.5665 232.996 73.3122C233.038 73.2275 233.038 73.1851 233.081 73.1004C233.166 73.1004 233.208 73.058 233.293 73.0156C233.548 72.8885 233.846 72.7613 234.1 72.4647C233.846 72.1681 233.548 71.9986 233.293 71.9138Z" fill="#DBF6FF"/>
<path d="M39.3353 86.4915C39.2504 86.4491 39.2079 86.4491 39.123 86.4067C39.123 86.3219 39.0805 86.2796 39.038 86.1948C38.9106 85.9405 38.7831 85.6439 38.4858 85.3896C38.1884 85.6439 38.061 85.9405 37.9336 86.1948C37.8911 86.2796 37.8911 86.3219 37.8486 86.4067C37.7636 86.4067 37.7212 86.4491 37.6362 86.4915C37.3813 86.6186 37.084 86.7457 36.8291 87.0423C37.084 87.339 37.3813 87.4661 37.6362 87.5932C37.7212 87.6356 37.7636 87.6356 37.8486 87.678C37.8486 87.7628 37.8911 87.8051 37.9336 87.8899C38.061 88.1441 38.1884 88.4408 38.4858 88.695C38.7831 88.4408 38.9106 88.1441 39.038 87.8899C39.0805 87.8051 39.0805 87.7628 39.123 87.678C39.2079 87.678 39.2504 87.6356 39.3353 87.5932C39.5902 87.4661 39.8876 87.339 40.1424 87.0423C39.8451 86.7457 39.5902 86.5762 39.3353 86.4915Z" fill="#BCDFEB"/>
<path d="M9.77013 171.203C9.68517 171.16 9.6427 171.16 9.55774 171.118C9.55774 171.033 9.51526 170.991 9.47278 170.906C9.34534 170.652 9.21791 170.355 8.92056 170.101C8.62321 170.355 8.49577 170.652 8.36833 170.906C8.32585 170.991 8.32585 171.033 8.28338 171.118C8.19842 171.118 8.15594 171.16 8.07098 171.203C7.81611 171.33 7.51876 171.457 7.26389 171.754C7.51876 172.05 7.81611 172.178 8.07098 172.305C8.15594 172.347 8.19842 172.347 8.28338 172.389C8.28338 172.474 8.32585 172.517 8.36833 172.601C8.49577 172.856 8.62321 173.152 8.92056 173.406C9.21791 173.152 9.34534 172.856 9.47278 172.601C9.51526 172.517 9.51526 172.474 9.55774 172.389C9.6427 172.389 9.68517 172.347 9.77013 172.305C10.025 172.178 10.3224 172.05 10.5772 171.754C10.3224 171.457 10.0675 171.288 9.77013 171.203Z" fill="#BCDFEB"/>
<path d="M124.08 43.9875C123.996 43.9452 123.953 43.9452 123.868 43.9028C123.868 43.818 123.826 43.7757 123.783 43.6909C123.656 43.4366 123.528 43.14 123.231 42.8857C122.934 43.14 122.806 43.4366 122.679 43.6909C122.636 43.7757 122.636 43.818 122.594 43.9028C122.509 43.9028 122.466 43.9452 122.381 43.9875C122.126 44.1147 121.829 44.2418 121.574 44.5384C121.829 44.8351 122.126 44.9622 122.381 45.0893C122.466 45.1317 122.509 45.1317 122.594 45.1741C122.594 45.2588 122.636 45.3012 122.679 45.386C122.806 45.6402 122.934 45.9369 123.231 46.1911C123.528 45.9369 123.656 45.6402 123.783 45.386C123.826 45.3012 123.826 45.2588 123.868 45.1741C123.953 45.1741 123.996 45.1317 124.08 45.0893C124.335 44.9622 124.633 44.8351 124.888 44.5384C124.633 44.1994 124.335 44.0723 124.08 43.9875Z" fill="#BCDFEB"/>
<path d="M46.047 16.6965C45.962 16.6542 45.9196 16.6541 45.8346 16.6118C45.8346 16.527 45.7921 16.4846 45.7496 16.3999C45.6222 16.1456 45.4948 15.849 45.1974 15.5947C44.9001 15.849 44.7726 16.1456 44.6452 16.3999C44.6027 16.4846 44.6027 16.527 44.5602 16.6118C44.4753 16.6118 44.4328 16.6542 44.3478 16.6965C44.093 16.8237 43.7956 16.9508 43.5407 17.2474C43.7956 17.5441 44.093 17.6712 44.3478 17.7983C44.4328 17.8407 44.4753 17.8407 44.5602 17.8831C44.5602 17.9678 44.6027 18.0102 44.6452 18.095C44.7726 18.3492 44.9001 18.6459 45.1974 18.9001C45.4948 18.6459 45.6222 18.3492 45.7496 18.095C45.7921 18.0102 45.7921 17.9678 45.8346 17.8831C45.9196 17.8831 45.962 17.8407 46.047 17.7983C46.3019 17.6712 46.5992 17.5441 46.8541 17.2474C46.5992 16.9508 46.3443 16.7813 46.047 16.6965Z" fill="#BCDFEB"/>
<path d="M212.776 88.9495C212.691 88.9071 212.649 88.9071 212.564 88.8647C212.564 88.7799 212.521 88.7376 212.479 88.6528C212.351 88.3986 212.224 88.1019 211.927 87.8477C211.629 88.1019 211.502 88.3986 211.374 88.6528C211.332 88.7376 211.332 88.7799 211.289 88.8647C211.204 88.8647 211.162 88.9071 211.077 88.9495C210.822 89.0766 210.525 89.2037 210.27 89.5004C210.525 89.797 210.822 89.9241 211.077 90.0513C211.162 90.0936 211.204 90.0936 211.289 90.136C211.289 90.2208 211.332 90.2631 211.374 90.3479C211.502 90.6022 211.629 90.8988 211.927 91.1531C212.224 90.8988 212.351 90.6022 212.479 90.3479C212.521 90.2631 212.521 90.2208 212.564 90.136C212.649 90.136 212.691 90.0936 212.776 90.0513C213.031 89.9241 213.328 89.797 213.583 89.5004C213.328 89.2037 213.031 89.0342 212.776 88.9495Z" fill="#BCDFEB"/>
<path d="M133.043 60.8957C132.959 60.8534 132.916 60.8534 132.831 60.811C132.831 60.7262 132.789 60.6839 132.746 60.5991C132.619 60.3448 132.491 60.0482 132.194 59.7939C131.897 60.0482 131.769 60.3448 131.642 60.5991C131.599 60.6839 131.599 60.7262 131.557 60.811C131.472 60.811 131.429 60.8534 131.344 60.8957C131.089 61.0229 130.792 61.15 130.537 61.4466C130.792 61.7433 131.089 61.8704 131.344 61.9975C131.429 62.0399 131.472 62.0399 131.557 62.0823C131.557 62.167 131.599 62.2094 131.642 62.2942C131.769 62.5484 131.897 62.8451 132.194 63.0993C132.491 62.8451 132.619 62.5484 132.746 62.2942C132.789 62.2094 132.789 62.167 132.831 62.0823C132.916 62.0823 132.959 62.0399 133.043 61.9975C133.298 61.8704 133.596 61.7433 133.851 61.4466C133.596 61.1076 133.341 60.9805 133.043 60.8957Z" fill="#DBF6FF"/>
<path d="M102.671 29.0706C102.544 29.0283 102.416 28.9859 102.331 28.9435C102.289 28.8164 102.246 28.6892 102.204 28.6045C102.034 28.1383 101.779 27.6722 101.269 27.2061C100.76 27.6722 100.505 28.1383 100.335 28.6045C100.292 28.7316 100.25 28.8588 100.207 28.9435C100.08 28.9859 99.9525 29.0283 99.8676 29.0706C99.4003 29.2401 98.9331 29.4944 98.4658 30.0029C98.9331 30.5115 99.4003 30.7657 99.8676 30.9352C99.995 30.9776 100.122 31.02 100.207 31.0624C100.25 31.1895 100.292 31.3166 100.335 31.4014C100.505 31.8675 100.76 32.3337 101.269 32.7998C101.779 32.3337 102.034 31.8675 102.204 31.4014C102.246 31.2742 102.289 31.1471 102.331 31.0624C102.459 31.02 102.586 30.9776 102.671 30.9352C103.138 30.7657 103.606 30.5115 104.073 30.0029C103.648 29.5368 103.138 29.2825 102.671 29.0706Z" fill="#BCDFEB"/>
<path d="M30.5847 63.3114C30.4573 63.269 30.3299 63.2266 30.2449 63.1842C30.2024 63.0571 30.1599 62.93 30.1175 62.8452C29.9476 62.3791 29.6927 61.9129 29.1829 61.4468C28.6732 61.9129 28.4183 62.3791 28.2484 62.8452C28.2059 62.9723 28.1634 63.0995 28.121 63.1842C27.9935 63.2266 27.8661 63.269 27.7811 63.3114C27.3139 63.4809 26.8466 63.7351 26.3793 64.2437C26.8466 64.7522 27.3139 65.0064 27.7811 65.1759C27.9086 65.2183 28.036 65.2607 28.121 65.3031C28.1634 65.4302 28.2059 65.5573 28.2484 65.6421C28.4183 66.1082 28.6732 66.5744 29.1829 67.0405C29.6927 66.5744 29.9476 66.1082 30.1175 65.6421C30.1599 65.515 30.2024 65.3878 30.2449 65.3031C30.3723 65.2607 30.4998 65.2183 30.5847 65.1759C31.052 65.0064 31.5193 64.7522 31.9865 64.2437C31.5193 63.7351 31.052 63.4809 30.5847 63.3114Z" fill="#BCDFEB"/>
<path d="M182.999 51.9119C182.871 51.8696 182.744 51.8272 182.659 51.7848C182.616 51.6577 182.574 51.5306 182.531 51.4458C182.361 50.9797 182.106 50.5135 181.597 50.0474C181.087 50.5135 180.832 50.9797 180.662 51.4458C180.62 51.5729 180.577 51.7001 180.535 51.7848C180.407 51.8272 180.28 51.8696 180.195 51.9119C179.728 52.0815 179.26 52.3357 178.793 52.8442C179.26 53.3528 179.728 53.607 180.195 53.7765C180.322 53.8189 180.45 53.8613 180.535 53.9037C180.577 54.0308 180.62 54.1579 180.662 54.2427C180.832 54.7088 181.087 55.175 181.597 55.6411C182.106 55.175 182.361 54.7088 182.531 54.2427C182.574 54.1155 182.616 53.9884 182.659 53.9037C182.786 53.8613 182.914 53.8189 182.999 53.7765C183.466 53.607 183.933 53.3528 184.4 52.8442C183.933 52.3357 183.466 52.0815 182.999 51.9119Z" fill="#DBF6FF"/>
<path d="M253.598 36.0628C253.471 36.0204 253.343 35.9781 253.258 35.9357C253.216 35.8086 253.173 35.6814 253.131 35.5967C252.961 35.1305 252.706 34.6644 252.196 34.1982C251.687 34.6644 251.432 35.1305 251.262 35.5967C251.219 35.7238 251.177 35.8509 251.134 35.9357C251.007 35.9781 250.88 36.0204 250.795 36.0628C250.327 36.2323 249.86 36.4866 249.393 36.9951C249.86 37.5036 250.327 37.7579 250.795 37.9274C250.922 37.9698 251.05 38.0122 251.134 38.0545C251.177 38.1817 251.219 38.3088 251.262 38.3936C251.432 38.8597 251.687 39.3258 252.196 39.792C252.706 39.3258 252.961 38.8597 253.131 38.3936C253.173 38.2664 253.216 38.1393 253.258 38.0545C253.386 38.0122 253.513 37.9698 253.598 37.9274C254.065 37.7579 254.533 37.5036 255 36.9951C254.533 36.529 254.065 36.2747 253.598 36.0628Z" fill="#DBF6FF"/>
<path d="M179.515 14.3236C179.388 14.2812 179.26 14.2388 179.175 14.1964C179.133 14.0693 179.09 13.9422 179.048 13.8574C178.878 13.3913 178.623 12.9251 178.113 12.459C177.604 12.9251 177.349 13.3913 177.179 13.8574C177.136 13.9846 177.094 14.1117 177.051 14.1964C176.924 14.2388 176.797 14.2812 176.712 14.3236C176.244 14.4931 175.777 14.7473 175.31 15.2559C175.777 15.7644 176.244 16.0186 176.712 16.1882C176.839 16.2305 176.967 16.2729 177.051 16.3153C177.094 16.4424 177.136 16.5695 177.179 16.6543C177.349 17.1204 177.604 17.5866 178.113 18.0527C178.623 17.5866 178.878 17.1204 179.048 16.6543C179.09 16.5272 179.133 16.4 179.175 16.3153C179.303 16.2729 179.43 16.2305 179.515 16.1882C179.983 16.0186 180.45 15.7644 180.917 15.2559C180.45 14.7473 179.983 14.5355 179.515 14.3236Z" fill="#DBF6FF"/>
</g>
<defs>
<clipPath id="clip0_47_8309">
<rect width="255" height="179" fill="white"/>
</clipPath>
</defs>
</svg>
